<svg width="127" height="42" viewBox="0 0 127 42" fill="none" xmlns="http://www.w3.org/2000/svg">
<rect x="0.678589" width="126" height="42" rx="5" fill="#4ECDC4"/>
<g clip-path="url(#clip0_19_82)">
<path d="M28.4911 11H12.8661C11.658 11 10.6786 11.9794 10.6786 13.1875V28.8125C10.6786 30.0206 11.658 31 12.8661 31H28.4911C29.6992 31 30.6786 30.0206 30.6786 28.8125V13.1875C30.6786 11.9794 29.6992 11 28.4911 11Z" fill="#1E1E24"/>
<path d="M25.2393 18.3592V23.5332C25.2393 25.3159 25.1089 26.1709 24.7176 26.9101C24.3552 27.6204 23.8768 28.0696 22.8914 28.5624L20.8188 27.5769C21.8044 27.1131 22.2826 26.7074 22.5869 26.084C22.9059 25.4463 23.0074 24.7071 23.0074 22.7651V18.3592H25.2393ZM21.6886 14.9124V25.2435C20.5436 25.4609 19.703 25.5479 18.79 25.5479C16.0652 25.5479 14.6449 24.316 14.6449 21.9535C14.6449 19.6781 16.1523 18.1999 18.4856 18.1999C18.8479 18.1999 19.1232 18.2288 19.4566 18.3157V14.9124H21.6886ZM18.7031 19.9969C17.5726 19.9969 16.9203 20.6926 16.9203 21.91C16.9203 23.0985 17.5436 23.7507 18.6886 23.7507C18.9348 23.7507 19.1378 23.7362 19.4566 23.6928V20.1128C19.1958 20.0259 18.9784 19.9969 18.7031 19.9969ZM25.2393 14.9243V17.2142H23.0074V14.9243H25.2393Z" fill="#4ECDC4"/>
</g>
<path d="M46.3036 28H42.2638V14.9091H46.4826C47.7525 14.9091 48.8391 15.1712 49.7425 15.6953C50.6459 16.2152 51.3384 16.9631 51.8199 17.9389C52.3015 18.9105 52.5422 20.0739 52.5422 21.429C52.5422 22.7926 52.2993 23.9666 51.8135 24.951C51.3277 25.9311 50.6204 26.6854 49.6914 27.2138C48.7624 27.7379 47.6331 28 46.3036 28ZM43.849 26.5938H46.2013C47.2837 26.5938 48.1807 26.3849 48.8924 25.9673C49.604 25.5497 50.1346 24.9553 50.484 24.1839C50.8334 23.4126 51.0081 22.4943 51.0081 21.429C51.0081 20.3722 50.8355 19.4624 50.4904 18.6996C50.1452 17.9325 49.6296 17.3445 48.9435 16.9354C48.2574 16.522 47.403 16.3153 46.3803 16.3153H43.849V26.5938ZM60.2127 14.9091H61.7979V24.267C61.7979 25.1023 61.6445 25.8118 61.3377 26.3956C61.0309 26.9794 60.5983 27.4226 60.0401 27.7251C59.4819 28.0277 58.8235 28.179 58.065 28.179C57.349 28.179 56.712 28.049 56.1537 27.7891C55.5955 27.5249 55.1566 27.1499 54.837 26.6641C54.5174 26.1783 54.3576 25.6009 54.3576 24.9318H55.9172C55.9172 25.3026 56.0088 25.6264 56.1921 25.9034C56.3796 26.1761 56.6353 26.3892 56.9591 26.5426C57.283 26.696 57.6516 26.7727 58.065 26.7727C58.5209 26.7727 58.9087 26.6768 59.2283 26.4851C59.5479 26.2933 59.7908 26.0121 59.957 25.6413C60.1275 25.2663 60.2127 24.8082 60.2127 24.267V14.9091ZM65.5117 28H63.8498L68.6566 14.9091H70.2929L75.0998 28H73.4378L69.5259 16.9801H69.4236L65.5117 28ZM66.1253 22.8864H72.8242V24.2926H66.1253V22.8864ZM87.5195 14.9091V28H85.9854L78.8519 17.7216H78.724V28H77.1388V14.9091H78.6729L85.832 25.2131H85.9598V14.9091H87.5195ZM99.6404 19C99.4998 18.5696 99.3144 18.1839 99.0843 17.843C98.8585 17.4979 98.5879 17.2038 98.2725 16.9609C97.9614 16.718 97.6077 16.5327 97.2114 16.4048C96.8151 16.277 96.3805 16.2131 95.9075 16.2131C95.1319 16.2131 94.4266 16.4134 93.7917 16.8139C93.1567 17.2145 92.6518 17.8047 92.2768 18.5845C91.9018 19.3643 91.7143 20.321 91.7143 21.4545C91.7143 22.5881 91.9039 23.5447 92.2832 24.3246C92.6624 25.1044 93.1759 25.6946 93.8237 26.0952C94.4714 26.4957 95.2001 26.696 96.0097 26.696C96.7597 26.696 97.4202 26.5362 97.9913 26.2166C98.5666 25.8928 99.014 25.4368 99.3336 24.8487C99.6575 24.2564 99.8194 23.5597 99.8194 22.7585L100.305 22.8608H96.3677V21.4545H101.353V22.8608C101.353 23.9389 101.123 24.8764 100.663 25.6733C100.207 26.4702 99.5765 27.0881 98.7711 27.527C97.97 27.9616 97.0495 28.179 96.0097 28.179C94.8506 28.179 93.8322 27.9062 92.9543 27.3608C92.0808 26.8153 91.3989 26.0398 90.9089 25.0341C90.4231 24.0284 90.1802 22.8352 90.1802 21.4545C90.1802 20.419 90.3187 19.4879 90.5957 18.6612C90.8769 17.8303 91.2732 17.1229 91.7846 16.5391C92.296 15.9553 92.9011 15.5078 93.5999 15.1967C94.2988 14.8857 95.068 14.7301 95.9075 14.7301C96.5978 14.7301 97.2413 14.8345 97.8379 15.0433C98.4387 15.2479 98.9735 15.5398 99.4423 15.919C99.9153 16.294 100.309 16.7436 100.625 17.2678C100.94 17.7876 101.157 18.3651 101.277 19H99.6404ZM115.114 21.4545C115.114 22.8352 114.865 24.0284 114.366 25.0341C113.868 26.0398 113.184 26.8153 112.314 27.3608C111.445 27.9062 110.452 28.179 109.336 28.179C108.219 28.179 107.226 27.9062 106.357 27.3608C105.488 26.8153 104.804 26.0398 104.305 25.0341C103.806 24.0284 103.557 22.8352 103.557 21.4545C103.557 20.0739 103.806 18.8807 104.305 17.875C104.804 16.8693 105.488 16.0938 106.357 15.5483C107.226 15.0028 108.219 14.7301 109.336 14.7301C110.452 14.7301 111.445 15.0028 112.314 15.5483C113.184 16.0938 113.868 16.8693 114.366 17.875C114.865 18.8807 115.114 20.0739 115.114 21.4545ZM113.58 21.4545C113.58 20.321 113.39 19.3643 113.011 18.5845C112.636 17.8047 112.127 17.2145 111.483 16.8139C110.844 16.4134 110.128 16.2131 109.336 16.2131C108.543 16.2131 107.825 16.4134 107.181 16.8139C106.542 17.2145 106.033 17.8047 105.654 18.5845C105.279 19.3643 105.091 20.321 105.091 21.4545C105.091 22.5881 105.279 23.5447 105.654 24.3246C106.033 25.1044 106.542 25.6946 107.181 26.0952C107.825 26.4957 108.543 26.696 109.336 26.696C110.128 26.696 110.844 26.4957 111.483 26.0952C112.127 25.6946 112.636 25.1044 113.011 24.3246C113.39 23.5447 113.58 22.5881 113.58 21.4545Z" fill="#1E1E24"/>
<defs>
<clipPath id="clip0_19_82">
<rect width="20" height="20" fill="white" transform="translate(10.6786 11)"/>
</clipPath>
</defs>
</svg>
