<svg width="50" height="45" viewBox="0 0 50 45" fill="none" xmlns="http://www.w3.org/2000/svg">
<rect width="50" height="44.0723" rx="5" fill="#4ECDC4"/>
<g clip-path="url(#clip0_4_68)">
<path d="M24.9902 23.6328C28.6328 23.6328 31.5918 20.6738 31.5918 17.0312C31.5918 16.8945 31.5918 16.7676 31.582 16.6309C33.2129 16.4648 34.4824 15.0879 34.4824 13.4082C34.4824 11.6309 33.0371 10.1855 31.25 10.1855C30.1758 10.1855 29.2187 10.7129 28.6328 11.5332C27.5879 10.8301 26.3379 10.4297 24.9902 10.4297C23.6426 10.4297 22.3926 10.8301 21.3476 11.5332C20.7617 10.7129 19.8047 10.1855 18.7304 10.1855C16.9433 10.1855 15.498 11.6309 15.498 13.4082C15.498 15.0879 16.7676 16.4648 18.3984 16.6309C18.3886 16.7676 18.3886 16.8945 18.3886 17.0312C18.3886 20.6738 21.3476 23.6328 24.9902 23.6328ZM22.4414 16.5918C21.9922 16.5918 21.6015 16.2109 21.6015 15.7422C21.6015 15.2734 21.9922 14.8926 22.4414 14.8926C22.9101 14.8926 23.291 15.2734 23.291 15.7422C23.291 16.2109 22.9101 16.5918 22.4414 16.5918ZM27.5488 16.5918C27.0801 16.5918 26.6992 16.2109 26.6992 15.7422C26.6992 15.2734 27.0801 14.8926 27.5488 14.8926C27.998 14.8926 28.3887 15.2734 28.3887 15.7422C28.3887 16.2109 27.998 16.5918 27.5488 16.5918ZM18.7304 11.582C19.375 11.582 19.9414 11.9141 20.2636 12.4316C19.5117 13.1934 18.9355 14.1602 18.6426 15.2246C18.5742 15.2246 18.5156 15.2148 18.4668 15.2051C17.5781 15.0781 16.9043 14.3262 16.9043 13.4082C16.9043 12.4023 17.7246 11.582 18.7304 11.582ZM31.25 11.582C32.2558 11.582 33.0762 12.4023 33.0762 13.4082C33.0762 14.3164 32.4023 15.0879 31.5137 15.2051C31.4551 15.2148 31.3769 15.2246 31.3379 15.2246C31.0449 14.1602 30.4687 13.1934 29.7168 12.4316C30.039 11.9141 30.6054 11.582 31.25 11.582ZM25.0097 22.8125C23.3301 22.8125 21.9922 21.4648 21.9922 19.7949C21.9922 18.1348 23.3398 16.7773 25.0097 16.7773C26.6699 16.7773 28.0273 18.125 28.0273 19.7949C28.0273 21.4551 26.6601 22.8125 25.0097 22.8125ZM24.9902 20.1758C25.5762 20.1758 26.5137 19.2969 26.5137 19.0527C26.5137 18.6523 25.8691 18.0957 24.9902 18.0957C24.1113 18.0957 23.4375 18.6523 23.4375 19.0527C23.4375 19.2969 24.414 20.1758 24.9902 20.1758ZM33.4179 22.2559L29.834 20.6348L25.9277 23.2422H24.0722L20.166 20.6348L16.582 22.2559C14.873 23.0273 14.1504 25.0684 14.9316 26.7578C15.332 27.5977 16.0254 28.2031 16.8652 28.4863C17.3828 26.6016 18.8086 25.2637 20.5371 25.2637C22.7246 25.2637 24.4336 27.4121 24.4336 30.0977C24.4336 31.2891 24.0918 32.373 23.5351 33.2227C24.4531 33.3496 25.5371 33.3398 26.4648 33.2227C25.9082 32.373 25.5664 31.2891 25.5664 30.0977C25.5664 27.4121 27.2754 25.2637 29.4629 25.2637C31.1914 25.2637 32.6172 26.6016 33.1347 28.4863C33.9746 28.2031 34.6679 27.5977 35.0683 26.7578C35.8496 25.0684 35.1269 23.0273 33.4179 22.2559ZM20.5371 34.0723C22.2265 34.0723 23.5449 32.2949 23.5449 30.0977C23.5449 27.9297 22.2265 26.1523 20.5371 26.1523C18.8476 26.1523 17.5293 27.9297 17.5293 30.0977C17.5293 32.2949 18.8476 34.0723 20.5371 34.0723ZM29.4629 34.0723C31.1523 34.0723 32.4707 32.2949 32.4707 30.0977C32.4707 27.9297 31.1523 26.1523 29.4629 26.1523C27.7734 26.1523 26.4551 27.9297 26.4551 30.0977C26.4551 32.2949 27.7734 34.0723 29.4629 34.0723Z" fill="#1E1E24"/>
</g>
<defs>
<clipPath id="clip0_4_68">
<rect width="20.765" height="24.0723" fill="white" transform="translate(14.6175 10)"/>
</clipPath>
</defs>
</svg>
