<svg width="118" height="42" viewBox="0 0 118 42" fill="none" xmlns="http://www.w3.org/2000/svg">
<rect width="118" height="42" rx="5" fill="#4ECDC4"/>
<path d="M24.7545 17.663L24.933 15.7098H15.067L15.5915 21.6697H22.4219L22.1763 24.2143L19.9777 24.8058L17.7902 24.2143L17.6451 22.6518H15.692L15.9375 25.7545L19.9777 26.8706H20.0223V26.8594L24.029 25.7545L24.587 19.6831H17.3995L17.2321 17.663H24.7545ZM12.1429 12.4286H27.8571L26.4286 28.4777L19.9777 30.2857L13.5714 28.4777L12.1429 12.4286Z" fill="#1E1E24"/>
<path d="M41.5852 28V14.9091H43.1705V20.7386H50.1506V14.9091H51.7358V28H50.1506V22.1449H43.1705V28H41.5852ZM54.1935 16.3153V14.9091H64.0117V16.3153H59.8952V28H58.31V16.3153H54.1935ZM66.4583 14.9091H68.3503L72.7992 25.7756H72.9526L77.4015 14.9091H79.2935V28H77.8105V18.054H77.6827L73.5918 28H72.16L68.0691 18.054H67.9412V28H66.4583V14.9091ZM82.4719 28V14.9091H84.0572V26.5938H90.1424V28H82.4719ZM101.52 28.179C100.77 28.179 100.095 28.0298 99.494 27.7315C98.8931 27.4332 98.4116 27.0241 98.0494 26.5043C97.6871 25.9844 97.489 25.392 97.4549 24.7273H98.989C99.0487 25.3196 99.3171 25.8097 99.7944 26.1974C100.276 26.581 100.851 26.7727 101.52 26.7727C102.057 26.7727 102.534 26.647 102.952 26.3956C103.374 26.1442 103.704 25.799 103.943 25.3601C104.186 24.9169 104.307 24.4162 104.307 23.858C104.307 23.2869 104.181 22.7777 103.93 22.3303C103.683 21.8786 103.342 21.5227 102.907 21.2628C102.473 21.0028 101.976 20.8707 101.418 20.8665C101.017 20.8622 100.606 20.924 100.184 21.0518C99.7624 21.1754 99.4151 21.3352 99.1424 21.5312L97.6594 21.3523L98.4521 14.9091H105.253V16.3153H99.7816L99.3214 20.1761H99.3981C99.6665 19.9631 100.003 19.7862 100.408 19.6456C100.813 19.505 101.235 19.4347 101.674 19.4347C102.475 19.4347 103.189 19.6264 103.815 20.0099C104.446 20.3892 104.94 20.9091 105.298 21.5696C105.66 22.2301 105.841 22.9844 105.841 23.8324C105.841 24.6676 105.654 25.4134 105.279 26.0696C104.908 26.7216 104.397 27.2372 103.745 27.6165C103.093 27.9915 102.351 28.179 101.52 28.179Z" fill="#1E1E24"/>
</svg>
