<svg width="21" height="20" viewBox="0 0 21 20" fill="none" xmlns="http://www.w3.org/2000/svg">
<g clip-path="url(#clip0_9_240)">
<path fill-rule="evenodd" clip-rule="evenodd" d="M0.720246 2.24594C0.251135 3.14902 0.251135 4.33546 0.251135 6.70833V13.2917C0.251135 15.6645 0.251135 16.851 0.720246 17.7541C1.11556 18.5151 1.73606 19.1356 2.49707 19.5309C3.40015 20 4.58659 20 6.95947 20H13.5428C15.9157 20 17.1021 20 18.0052 19.5309C18.7662 19.1356 19.3867 18.5151 19.782 17.7541C20.2511 16.851 20.2511 15.6645 20.2511 13.2917V6.70833C20.2511 4.33546 20.2511 3.14902 19.782 2.24594C19.3867 1.48493 18.7662 0.864425 18.0052 0.469111C17.1021 0 15.9157 0 13.5428 0H6.95947C4.58659 0 3.40015 0 2.49707 0.469111C1.73606 0.864425 1.11556 1.48493 0.720246 2.24594ZM7.24132 2.77122C8.01706 2.73592 8.26493 2.72728 10.24 2.72728H10.2377C12.2134 2.72728 12.4604 2.73592 13.2361 2.77122C14.0104 2.80667 14.5391 2.92925 15.0028 3.1091C15.4815 3.2947 15.8861 3.54319 16.2906 3.94773C16.6951 4.35198 16.9436 4.75773 17.13 5.23607C17.3087 5.69849 17.4315 6.22698 17.4678 7.00122C17.5027 7.77698 17.5118 8.02485 17.5118 10C17.5118 11.9752 17.5027 12.2224 17.4678 12.9982C17.4315 13.7721 17.3087 14.3008 17.13 14.7633C16.9436 15.2415 16.6951 15.6473 16.2906 16.0515C15.8865 16.4561 15.4814 16.7052 15.0032 16.8909C14.5405 17.0708 14.0114 17.1933 13.2372 17.2288C12.4615 17.2641 12.2144 17.2727 10.2391 17.2727C8.26417 17.2727 8.01645 17.2641 7.24072 17.2288C6.46665 17.1933 5.93803 17.0708 5.47532 16.8909C4.9973 16.7052 4.59155 16.4561 4.18748 16.0515C3.78309 15.6473 3.53462 15.2415 3.34871 14.7632C3.16902 14.3008 3.04645 13.7723 3.01085 12.998C2.97569 12.2223 2.96691 11.9752 2.96691 10C2.96691 8.02485 2.976 7.77682 3.01069 7.00107C3.04554 6.22713 3.16826 5.69849 3.34856 5.23592C3.53492 4.75773 3.7834 4.35198 4.18793 3.94773C4.59216 3.54334 4.99791 3.29486 5.47622 3.1091C5.93863 2.92925 6.4671 2.80667 7.24132 2.77122ZM9.99763 4.03781C9.85057 4.03775 9.71429 4.03769 9.58762 4.03789V4.03607C8.2322 4.03758 7.97221 4.04667 7.30132 4.07698C6.59225 4.10955 6.20726 4.22773 5.95091 4.32773C5.61152 4.45986 5.36911 4.61743 5.11457 4.87198C4.86003 5.12652 4.70216 5.36895 4.57034 5.70834C4.4708 5.9647 4.35232 6.34955 4.3199 7.05864C4.28505 7.82531 4.27808 8.0544 4.27808 9.99652C4.27808 11.9386 4.28505 12.1689 4.3199 12.9356C4.35217 13.6447 4.4708 14.0296 4.57034 14.2856C4.70246 14.6252 4.86003 14.867 5.11457 15.1215C5.36911 15.3761 5.61152 15.5336 5.95091 15.6655C6.20741 15.765 6.59225 15.8835 7.30132 15.9162C8.06796 15.9511 8.29811 15.9586 10.24 15.9586C12.1818 15.9586 12.4121 15.9511 13.1787 15.9162C13.8878 15.8838 14.2729 15.7656 14.529 15.6656C14.8685 15.5338 15.1102 15.3762 15.3647 15.1217C15.6193 14.8673 15.7771 14.6256 15.9089 14.2862C16.0085 14.0302 16.127 13.6453 16.1594 12.9362C16.1942 12.1696 16.2018 11.9392 16.2018 9.99834C16.2018 8.05743 16.1942 7.82713 16.1594 7.06046C16.1271 6.35137 16.0085 5.96652 15.9089 5.71046C15.7768 5.37107 15.6193 5.12864 15.3647 4.8741C15.1103 4.61955 14.8684 4.46198 14.529 4.33016C14.2726 4.23061 13.8878 4.11213 13.1787 4.0797C12.4119 4.04486 12.1818 4.03789 10.24 4.03789C10.1561 4.03789 10.0754 4.03785 9.99763 4.03781ZM13.2493 6.11789C13.2493 5.63592 13.6402 5.24546 14.122 5.24546V5.24516C14.6038 5.24516 14.9947 5.63607 14.9947 6.11789C14.9947 6.5997 14.6038 6.99061 14.122 6.99061C13.6402 6.99061 13.2493 6.5997 13.2493 6.11789ZM6.50528 10C6.50528 7.93748 8.17742 6.26524 10.2399 6.26516C12.3024 6.26516 13.9741 7.93743 13.9741 10C13.9741 12.0626 12.3025 13.7341 10.24 13.7341C8.17751 13.7341 6.50528 12.0626 6.50528 10ZM12.6642 10C12.6642 8.66107 11.5788 7.57576 10.24 7.57576C8.90112 7.57576 7.81585 8.66107 7.81585 10C7.81585 11.3388 8.90112 12.4242 10.24 12.4242C11.5788 12.4242 12.6642 11.3388 12.6642 10Z" fill="#1E1E24"/>
</g>
<defs>
<clipPath id="clip0_9_240">
<rect width="20" height="20" fill="white" transform="translate(0.239716)"/>
</clipPath>
</defs>
</svg>
