<svg width="104" height="42" viewBox="0 0 104 42" fill="none" xmlns="http://www.w3.org/2000/svg">
<rect width="103.683" height="42" rx="5" fill="#CB4251"/>
<g clip-path="url(#clip0_19_148)">
<path d="M32.9615 22.4954C32.0312 22.5002 31.2226 22.7243 30.5455 23.0555C30.2971 22.5636 30.0487 22.1252 30.0049 21.8037C29.9562 21.4286 29.8977 21.1997 29.9562 20.7516C30.0146 20.3035 30.2776 19.6654 30.2728 19.6167C30.2679 19.568 30.2143 19.339 29.6785 19.3341C29.1427 19.3293 28.68 19.4364 28.6264 19.5777C28.5728 19.719 28.4705 20.0404 28.4023 20.3717C28.3098 20.8587 27.3307 22.5977 26.7706 23.5085C26.5904 23.1529 26.4345 22.8412 26.4004 22.5928C26.3517 22.2177 26.2932 21.9888 26.3517 21.5407C26.4101 21.0926 26.6732 20.4545 26.6683 20.4058C26.6634 20.357 26.6098 20.1281 26.074 20.1232C25.5382 20.1184 25.0755 20.2255 25.0219 20.3668C24.9683 20.508 24.9099 20.8393 24.7979 21.1607C24.6858 21.4822 23.3853 24.3853 23.0443 25.1354C22.869 25.5202 22.718 25.8271 22.6108 26.0365C22.6108 26.0365 22.6059 26.0511 22.5913 26.0755C22.4988 26.2557 22.4452 26.3531 22.4452 26.3531C22.4452 26.3531 22.4452 26.3531 22.4452 26.358C22.3721 26.4895 22.2942 26.6113 22.2552 26.6113C22.226 26.6113 22.1724 26.2606 22.265 25.7832C22.4598 24.775 22.9225 23.2065 22.9177 23.153C22.9177 23.1237 23.0054 22.851 22.6157 22.7097C22.2357 22.5684 22.0994 22.8022 22.0653 22.8022C22.0312 22.8022 22.0068 22.885 22.0068 22.885C22.0068 22.885 22.4306 21.1218 21.1982 21.1218C20.4286 21.1218 19.3668 21.9644 18.8407 22.7243C18.5095 22.9045 17.8032 23.2893 17.0482 23.7034C16.7608 23.8641 16.4637 24.0248 16.1861 24.1758C16.1666 24.1564 16.1471 24.132 16.1276 24.1125C14.6371 22.5197 11.8802 21.3945 11.9971 19.2562C12.0409 18.4769 12.3088 16.4311 17.2918 13.9469C21.3931 11.9255 24.6566 12.4856 25.2216 13.7277C26.0302 15.5007 23.473 18.7935 19.2353 19.2708C17.6181 19.4511 16.7706 18.8276 16.5563 18.5938C16.3322 18.3502 16.2981 18.3356 16.2153 18.3843C16.0789 18.4574 16.1666 18.6766 16.2153 18.8032C16.3419 19.1344 16.8631 19.719 17.7448 20.0063C18.5241 20.2596 20.4189 20.4009 22.7131 19.5144C25.2801 18.5207 27.2869 15.7589 26.6975 13.4452C26.1081 11.0974 22.2114 10.3229 18.5241 11.6332C16.3322 12.4126 13.9552 13.64 12.2455 15.2377C10.2143 17.1374 9.89284 18.7886 10.0243 19.4803C10.4968 21.9352 13.8821 23.5329 15.2362 24.7165C15.168 24.7555 15.1047 24.7896 15.0511 24.8188C14.3741 25.1549 11.7925 26.5041 11.1495 27.9313C10.4189 29.5485 11.2664 30.7077 11.8266 30.8636C13.5655 31.3458 15.3531 30.4788 16.3127 29.0468C17.2723 27.6147 17.1554 25.754 16.7121 24.9016C16.7073 24.8919 16.7024 24.8821 16.6926 24.8724C16.868 24.7701 17.0482 24.6629 17.2236 24.5606C17.5694 24.3561 17.9104 24.1661 18.2026 24.0102C18.037 24.4632 17.9152 25.0039 17.8568 25.7832C17.7837 26.699 18.1588 27.8875 18.6508 28.3551C18.8699 28.5597 19.1281 28.5645 19.2937 28.5645C19.8685 28.5645 20.1266 28.0872 20.414 27.5222C20.7647 26.8305 21.0813 26.0268 21.0813 26.0268C21.0813 26.0268 20.6868 28.1992 21.7584 28.1992C22.1481 28.1992 22.5426 27.6926 22.718 27.4345C22.718 27.4394 22.718 27.4394 22.718 27.4394C22.718 27.4394 22.7277 27.4247 22.7472 27.3907C22.7862 27.3273 22.8105 27.2884 22.8105 27.2884C22.8105 27.2884 22.8105 27.2835 22.8105 27.2786C22.9664 27.0058 23.3171 26.3872 23.8383 25.3595C24.5105 24.0346 25.1583 22.3785 25.1583 22.3785C25.1583 22.3785 25.2168 22.7828 25.4165 23.4549C25.5334 23.8495 25.7769 24.283 25.9717 24.7019C25.8159 24.9211 25.7185 25.0429 25.7185 25.0429C25.7185 25.0429 25.7185 25.0429 25.7233 25.0477C25.5967 25.2133 25.4603 25.3936 25.3093 25.5689C24.7784 26.2021 24.1451 26.9279 24.0575 27.1374C23.9552 27.3858 23.9795 27.566 24.1744 27.7121C24.3156 27.8193 24.5689 27.8339 24.8271 27.8193C25.3044 27.7852 25.6405 27.6683 25.8061 27.5952C26.0643 27.5027 26.3663 27.3614 26.6488 27.152C27.17 26.7672 27.4866 26.2168 27.4574 25.491C27.4428 25.0916 27.3112 24.6922 27.1505 24.3171C27.1992 24.2489 27.2431 24.1807 27.2918 24.1125C28.1149 22.9094 28.753 21.5894 28.753 21.5894C28.753 21.5894 28.8115 21.9937 29.0112 22.6659C29.1086 23.0068 29.3083 23.377 29.4837 23.7375C28.7092 24.3658 28.2319 25.0964 28.0614 25.5738C27.7545 26.4603 27.9932 26.8597 28.4462 26.9523C28.6508 26.9961 28.943 26.8987 29.1573 26.8061C29.4301 26.7185 29.7516 26.5675 30.0584 26.3434C30.5796 25.9586 31.0813 25.4228 31.0521 24.697C31.0375 24.3658 30.9498 24.0395 30.8281 23.7228C31.4856 23.4501 32.3332 23.2991 33.4145 23.4257C35.7331 23.6985 36.1909 25.1452 36.1033 25.754C36.0156 26.3629 35.5285 26.6941 35.3678 26.7964C35.207 26.8987 35.1534 26.9328 35.168 27.0058C35.1875 27.113 35.2655 27.1081 35.4018 27.0887C35.5918 27.0546 36.6196 26.5967 36.6634 25.4764C36.7365 24.0443 35.3726 22.4808 32.9615 22.4954ZM15.0755 28.5256C14.3059 29.3634 13.2343 29.68 12.7715 29.4121C12.2747 29.1247 12.4696 27.8875 13.4145 27.001C13.9893 26.4603 14.7297 25.9586 15.2216 25.6517C15.3337 25.5835 15.4993 25.4861 15.699 25.3643C15.7331 25.3449 15.7526 25.3351 15.7526 25.3351C15.7915 25.3108 15.8305 25.2864 15.8695 25.2621C16.2153 26.5285 15.8841 27.6439 15.0755 28.5256ZM20.6771 24.7165C20.4092 25.3692 19.849 27.0399 19.508 26.9474C19.2158 26.8695 19.0356 25.603 19.4496 24.3512C19.659 23.7228 20.1023 22.9727 20.3604 22.6805C20.7793 22.2129 21.2421 22.057 21.3541 22.247C21.4954 22.4954 20.8427 24.3074 20.6771 24.7165ZM25.2996 26.9279C25.1875 26.9864 25.0804 27.0253 25.0317 26.9961C24.9976 26.9766 25.0804 26.8987 25.0804 26.8987C25.0804 26.8987 25.66 26.2752 25.8889 25.9927C26.0205 25.8271 26.1763 25.6322 26.3419 25.4131C26.3419 25.4325 26.3419 25.4569 26.3419 25.4764C26.3419 26.2216 25.621 26.7233 25.2996 26.9279ZM28.8651 26.1145C28.7823 26.056 28.7969 25.8612 29.0745 25.2523C29.1817 25.0136 29.435 24.6142 29.8685 24.2294C29.9172 24.3853 29.9513 24.5363 29.9464 24.6775C29.9415 25.6176 29.2694 25.9683 28.8651 26.1145Z" fill="#1E1E24"/>
</g>
<path d="M55.4272 18.1818C55.3505 17.5341 55.0394 17.0312 54.494 16.6733C53.9485 16.3153 53.2795 16.1364 52.4869 16.1364C51.9073 16.1364 51.4002 16.2301 50.9656 16.4176C50.5352 16.6051 50.1985 16.8629 49.9556 17.1911C49.717 17.5192 49.5977 17.892 49.5977 18.3097C49.5977 18.6591 49.6808 18.9595 49.847 19.2109C50.0174 19.4581 50.2347 19.6648 50.4989 19.831C50.7631 19.9929 51.0401 20.1271 51.3299 20.2337C51.6197 20.3359 51.886 20.419 52.1289 20.483L53.4585 20.8409C53.7994 20.9304 54.1786 21.054 54.5962 21.2116C55.0181 21.3693 55.4208 21.5845 55.8043 21.8572C56.1921 22.1257 56.5117 22.4709 56.7631 22.8928C57.0146 23.3146 57.1403 23.8324 57.1403 24.446C57.1403 25.1534 56.9549 25.7926 56.5842 26.3636C56.2177 26.9347 55.6808 27.3885 54.9734 27.7251C54.2703 28.0618 53.4158 28.2301 52.4102 28.2301C51.4727 28.2301 50.6609 28.0788 49.9748 27.7763C49.293 27.4737 48.756 27.0518 48.364 26.5107C47.9762 25.9695 47.7568 25.3409 47.7056 24.625H49.342C49.3846 25.1193 49.5508 25.5284 49.8406 25.8523C50.1346 26.1719 50.5053 26.4105 50.9528 26.5682C51.4045 26.7216 51.8903 26.7983 52.4102 26.7983C53.0153 26.7983 53.5586 26.7003 54.0401 26.5043C54.5217 26.304 54.9031 26.027 55.1843 25.6733C55.4656 25.3153 55.6062 24.8977 55.6062 24.4205C55.6062 23.9858 55.4847 23.6321 55.2418 23.3594C54.9989 23.0866 54.6793 22.8651 54.283 22.6946C53.8867 22.5241 53.4585 22.375 52.9982 22.2472L51.3874 21.7869C50.3647 21.4929 49.5551 21.0732 48.9585 20.5277C48.3619 19.9822 48.0636 19.2685 48.0636 18.3864C48.0636 17.6534 48.2617 17.0142 48.658 16.4688C49.0586 15.919 49.5955 15.4929 50.2688 15.1903C50.9464 14.8835 51.7028 14.7301 52.538 14.7301C53.3818 14.7301 54.1318 14.8814 54.788 15.1839C55.4443 15.4822 55.9641 15.8913 56.3477 16.4112C56.7354 16.9311 56.94 17.5213 56.9613 18.1818H55.4272ZM60.2836 28H58.6216L63.4285 14.9091H65.0648L69.8716 28H68.2097L64.2978 16.9801H64.1955L60.2836 28ZM60.8972 22.8864H67.5961V24.2926H60.8972V22.8864ZM79.0698 18.1818C78.9931 17.5341 78.682 17.0312 78.1365 16.6733C77.5911 16.3153 76.9221 16.1364 76.1294 16.1364C75.5499 16.1364 75.0428 16.2301 74.6081 16.4176C74.1777 16.6051 73.8411 16.8629 73.5982 17.1911C73.3596 17.5192 73.2402 17.892 73.2402 18.3097C73.2402 18.6591 73.3233 18.9595 73.4895 19.2109C73.66 19.4581 73.8773 19.6648 74.1415 19.831C74.4057 19.9929 74.6827 20.1271 74.9725 20.2337C75.2623 20.3359 75.5286 20.419 75.7715 20.483L77.101 20.8409C77.4419 20.9304 77.8212 21.054 78.2388 21.2116C78.6607 21.3693 79.0634 21.5845 79.4469 21.8572C79.8347 22.1257 80.1543 22.4709 80.4057 22.8928C80.6571 23.3146 80.7829 23.8324 80.7829 24.446C80.7829 25.1534 80.5975 25.7926 80.2267 26.3636C79.8603 26.9347 79.3233 27.3885 78.616 27.7251C77.9128 28.0618 77.0584 28.2301 76.0527 28.2301C75.1152 28.2301 74.3035 28.0788 73.6174 27.7763C72.9356 27.4737 72.3986 27.0518 72.0066 26.5107C71.6188 25.9695 71.3993 25.3409 71.3482 24.625H72.9846C73.0272 25.1193 73.1934 25.5284 73.4831 25.8523C73.7772 26.1719 74.1479 26.4105 74.5954 26.5682C75.0471 26.7216 75.5329 26.7983 76.0527 26.7983C76.6579 26.7983 77.2012 26.7003 77.6827 26.5043C78.1642 26.304 78.5456 26.027 78.8269 25.6733C79.1081 25.3153 79.2488 24.8977 79.2488 24.4205C79.2488 23.9858 79.1273 23.6321 78.8844 23.3594C78.6415 23.0866 78.3219 22.8651 77.9256 22.6946C77.5293 22.5241 77.101 22.375 76.6408 22.2472L75.03 21.7869C74.0073 21.4929 73.1976 21.0732 72.601 20.5277C72.0044 19.9822 71.7062 19.2685 71.7062 18.3864C71.7062 17.6534 71.9043 17.0142 72.3006 16.4688C72.7012 15.919 73.2381 15.4929 73.9114 15.1903C74.589 14.8835 75.3454 14.7301 76.1806 14.7301C77.0243 14.7301 77.7743 14.8814 78.4306 15.1839C79.0868 15.4822 79.6067 15.8913 79.9902 16.4112C80.378 16.9311 80.5826 17.5213 80.6039 18.1818H79.0698ZM90.5483 18.1818C90.4716 17.5341 90.1605 17.0312 89.6151 16.6733C89.0696 16.3153 88.4006 16.1364 87.608 16.1364C87.0284 16.1364 86.5213 16.2301 86.0867 16.4176C85.6563 16.6051 85.3196 16.8629 85.0767 17.1911C84.8381 17.5192 84.7188 17.892 84.7188 18.3097C84.7188 18.6591 84.8019 18.9595 84.968 19.2109C85.1385 19.4581 85.3558 19.6648 85.62 19.831C85.8842 19.9929 86.1612 20.1271 86.451 20.2337C86.7408 20.3359 87.0071 20.419 87.25 20.483L88.5796 20.8409C88.9205 20.9304 89.2997 21.054 89.7173 21.2116C90.1392 21.3693 90.5419 21.5845 90.9254 21.8572C91.3132 22.1257 91.6328 22.4709 91.8842 22.8928C92.1357 23.3146 92.2614 23.8324 92.2614 24.446C92.2614 25.1534 92.076 25.7926 91.7053 26.3636C91.3388 26.9347 90.8019 27.3885 90.0945 27.7251C89.3913 28.0618 88.5369 28.2301 87.5313 28.2301C86.5938 28.2301 85.782 28.0788 85.0959 27.7763C84.4141 27.4737 83.8771 27.0518 83.4851 26.5107C83.0973 25.9695 82.8778 25.3409 82.8267 24.625H84.4631C84.5057 25.1193 84.6719 25.5284 84.9617 25.8523C85.2557 26.1719 85.6264 26.4105 86.0739 26.5682C86.5256 26.7216 87.0114 26.7983 87.5313 26.7983C88.1364 26.7983 88.6797 26.7003 89.1612 26.5043C89.6428 26.304 90.0242 26.027 90.3054 25.6733C90.5867 25.3153 90.7273 24.8977 90.7273 24.4205C90.7273 23.9858 90.6058 23.6321 90.3629 23.3594C90.12 23.0866 89.8004 22.8651 89.4041 22.6946C89.0078 22.5241 88.5796 22.375 88.1193 22.2472L86.5085 21.7869C85.4858 21.4929 84.6761 21.0732 84.0796 20.5277C83.483 19.9822 83.1847 19.2685 83.1847 18.3864C83.1847 17.6534 83.3828 17.0142 83.7791 16.4688C84.1797 15.919 84.7166 15.4929 85.3899 15.1903C86.0675 14.8835 86.8239 14.7301 87.6591 14.7301C88.5028 14.7301 89.2528 14.8814 89.9091 15.1839C90.5653 15.4822 91.0852 15.8913 91.4688 16.4112C91.8565 16.9311 92.0611 17.5213 92.0824 18.1818H90.5483Z" fill="#1E1E24"/>
<defs>
<clipPath id="clip0_19_148">
<rect width="26.6829" height="20" fill="white" transform="translate(10 11)"/>
</clipPath>
</defs>
</svg>
