<svg width="131" height="42" viewBox="0 0 131 42" fill="none" xmlns="http://www.w3.org/2000/svg">
<rect x="0.302307" width="129.904" height="42" rx="5" fill="#4ECDC4"/>
<g clip-path="url(#clip0_11_374)">
<path d="M17.3878 23.2413L12.4543 27.086L10.3023 26.0143V15.9942L12.4458 14.914L17.3453 18.7672L25.1027 11.0012L30.2063 13.0342V28.9318L25.1282 30.9988L17.3878 23.2413ZM24.9496 24.5938V17.4062L20.3053 21.0043L24.9496 24.5938ZM12.6244 23.3009L15.0657 21.0808L12.6244 18.6481V23.3009Z" fill="#1E1E24"/>
</g>
<path d="M42.3285 14.9091L46.2148 25.929H46.3682L50.2546 14.9091H51.9165L47.1097 28H45.4734L40.6665 14.9091H42.3285ZM61.1147 18.1818C61.038 17.5341 60.7269 17.0312 60.1814 16.6733C59.636 16.3153 58.967 16.1364 58.1743 16.1364C57.5948 16.1364 57.0877 16.2301 56.653 16.4176C56.2226 16.6051 55.886 16.8629 55.6431 17.1911C55.4045 17.5192 55.2851 17.892 55.2851 18.3097C55.2851 18.6591 55.3682 18.9595 55.5344 19.2109C55.7049 19.4581 55.9222 19.6648 56.1864 19.831C56.4506 19.9929 56.7276 20.1271 57.0174 20.2337C57.3072 20.3359 57.5735 20.419 57.8164 20.483L59.1459 20.8409C59.4868 20.9304 59.8661 21.054 60.2837 21.2116C60.7056 21.3693 61.1083 21.5845 61.4918 21.8572C61.8796 22.1257 62.1992 22.4709 62.4506 22.8928C62.702 23.3146 62.8278 23.8324 62.8278 24.446C62.8278 25.1534 62.6424 25.7926 62.2716 26.3636C61.9052 26.9347 61.3682 27.3885 60.6609 27.7251C59.9577 28.0618 59.1033 28.2301 58.0976 28.2301C57.1601 28.2301 56.3484 28.0788 55.6623 27.7763C54.9805 27.4737 54.4435 27.0518 54.0515 26.5107C53.6637 25.9695 53.4442 25.3409 53.3931 24.625H55.0295C55.0721 25.1193 55.2383 25.5284 55.528 25.8523C55.8221 26.1719 56.1928 26.4105 56.6403 26.5682C57.092 26.7216 57.5778 26.7983 58.0976 26.7983C58.7028 26.7983 59.2461 26.7003 59.7276 26.5043C60.2091 26.304 60.5905 26.027 60.8718 25.6733C61.153 25.3153 61.2937 24.8977 61.2937 24.4205C61.2937 23.9858 61.1722 23.6321 60.9293 23.3594C60.6864 23.0866 60.3668 22.8651 59.9705 22.6946C59.5742 22.5241 59.1459 22.375 58.6857 22.2472L57.0749 21.7869C56.0522 21.4929 55.2425 21.0732 54.6459 20.5277C54.0493 19.9822 53.7511 19.2685 53.7511 18.3864C53.7511 17.6534 53.9492 17.0142 54.3455 16.4688C54.7461 15.919 55.283 15.4929 55.9563 15.1903C56.6339 14.8835 57.3903 14.7301 58.2255 14.7301C59.0692 14.7301 59.8192 14.8814 60.4755 15.1839C61.1317 15.4822 61.6516 15.8913 62.0351 16.4112C62.4229 16.9311 62.6275 17.5213 62.6488 18.1818H61.1147ZM81.0307 19H79.4455C79.3517 18.544 79.1877 18.1435 78.9533 17.7983C78.7232 17.4531 78.4419 17.1634 78.1095 16.929C77.7814 16.6903 77.4171 16.5114 77.0165 16.392C76.6159 16.2727 76.1983 16.2131 75.7637 16.2131C74.971 16.2131 74.253 16.4134 73.6095 16.8139C72.9703 17.2145 72.4611 17.8047 72.0818 18.5845C71.7068 19.3643 71.5193 20.321 71.5193 21.4545C71.5193 22.5881 71.7068 23.5447 72.0818 24.3246C72.4611 25.1044 72.9703 25.6946 73.6095 26.0952C74.253 26.4957 74.971 26.696 75.7637 26.696C76.1983 26.696 76.6159 26.6364 77.0165 26.517C77.4171 26.3977 77.7814 26.2209 78.1095 25.9865C78.4419 25.7479 78.7232 25.456 78.9533 25.1108C79.1877 24.7614 79.3517 24.3608 79.4455 23.9091H81.0307C80.9114 24.5781 80.6941 25.1768 80.3787 25.7053C80.0634 26.2337 79.6713 26.6832 79.2026 27.054C78.7338 27.4205 78.2075 27.6996 77.6237 27.8913C77.0442 28.0831 76.4242 28.179 75.7637 28.179C74.6472 28.179 73.6543 27.9062 72.785 27.3608C71.9156 26.8153 71.2317 26.0398 70.7331 25.0341C70.2345 24.0284 69.9852 22.8352 69.9852 21.4545C69.9852 20.0739 70.2345 18.8807 70.7331 17.875C71.2317 16.8693 71.9156 16.0938 72.785 15.5483C73.6543 15.0028 74.6472 14.7301 75.7637 14.7301C76.4242 14.7301 77.0442 14.826 77.6237 15.0178C78.2075 15.2095 78.7338 15.4908 79.2026 15.8615C79.6713 16.228 80.0634 16.6754 80.3787 17.2038C80.6941 17.728 80.9114 18.3267 81.0307 19ZM94.6378 21.4545C94.6378 22.8352 94.3885 24.0284 93.8899 25.0341C93.3913 26.0398 92.7074 26.8153 91.8381 27.3608C90.9687 27.9062 89.9758 28.179 88.8594 28.179C87.7429 28.179 86.75 27.9062 85.8807 27.3608C85.0113 26.8153 84.3274 26.0398 83.8288 25.0341C83.3302 24.0284 83.081 22.8352 83.081 21.4545C83.081 20.0739 83.3302 18.8807 83.8288 17.875C84.3274 16.8693 85.0113 16.0938 85.8807 15.5483C86.75 15.0028 87.7429 14.7301 88.8594 14.7301C89.9758 14.7301 90.9687 15.0028 91.8381 15.5483C92.7074 16.0938 93.3913 16.8693 93.8899 17.875C94.3885 18.8807 94.6378 20.0739 94.6378 21.4545ZM93.1037 21.4545C93.1037 20.321 92.914 19.3643 92.5348 18.5845C92.1598 17.8047 91.6506 17.2145 91.0071 16.8139C90.3679 16.4134 89.652 16.2131 88.8594 16.2131C88.0667 16.2131 87.3487 16.4134 86.7052 16.8139C86.066 17.2145 85.5568 17.8047 85.1775 18.5845C84.8025 19.3643 84.615 20.321 84.615 21.4545C84.615 22.5881 84.8025 23.5447 85.1775 24.3246C85.5568 25.1044 86.066 25.6946 86.7052 26.0952C87.3487 26.4957 88.0667 26.696 88.8594 26.696C89.652 26.696 90.3679 26.4957 91.0071 26.0952C91.6506 25.6946 92.1598 25.1044 92.5348 24.3246C92.914 23.5447 93.1037 22.5881 93.1037 21.4545ZM101.343 28H97.3033V14.9091H101.522C102.792 14.9091 103.879 15.1712 104.782 15.6953C105.685 16.2152 106.378 16.9631 106.859 17.9389C107.341 18.9105 107.582 20.0739 107.582 21.429C107.582 22.7926 107.339 23.9666 106.853 24.951C106.367 25.9311 105.66 26.6854 104.731 27.2138C103.802 27.7379 102.673 28 101.343 28ZM98.8885 26.5938H101.241C102.323 26.5938 103.22 26.3849 103.932 25.9673C104.643 25.5497 105.174 24.9553 105.523 24.1839C105.873 23.4126 106.048 22.4943 106.048 21.429C106.048 20.3722 105.875 19.4624 105.53 18.6996C105.185 17.9325 104.669 17.3445 103.983 16.9354C103.297 16.522 102.442 16.3153 101.42 16.3153H98.8885V26.5938ZM110.241 28V14.9091H118.141V16.3153H111.826V20.7386H117.732V22.1449H111.826V26.5938H118.244V28H110.241Z" fill="#1E1E24"/>
<defs>
<clipPath id="clip0_11_374">
<rect width="19.904" height="20" fill="white" transform="translate(10.3023 11)"/>
</clipPath>
</defs>
</svg>
