<svg width="156" height="42" viewBox="0 0 156 42" fill="none" xmlns="http://www.w3.org/2000/svg">
<rect x="0.239716" width="155" height="42" rx="5" fill="#F3A63B"/>
<g clip-path="url(#clip0_9_239)">
<path fill-rule="evenodd" clip-rule="evenodd" d="M10.7202 13.2459C10.2511 14.149 10.2511 15.3355 10.2511 17.7083V24.2917C10.2511 26.6645 10.2511 27.851 10.7202 28.7541C11.1156 29.5151 11.7361 30.1356 12.4971 30.5309C13.4002 31 14.5866 31 16.9595 31H23.5428C25.9157 31 27.1021 31 28.0052 30.5309C28.7662 30.1356 29.3867 29.5151 29.782 28.7541C30.2511 27.851 30.2511 26.6645 30.2511 24.2917V17.7083C30.2511 15.3355 30.2511 14.149 29.782 13.2459C29.3867 12.4849 28.7662 11.8644 28.0052 11.4691C27.1021 11 25.9157 11 23.5428 11H16.9595C14.5866 11 13.4002 11 12.4971 11.4691C11.7361 11.8644 11.1156 12.4849 10.7202 13.2459ZM17.2413 13.7712C18.0171 13.7359 18.2649 13.7273 20.24 13.7273H20.2377C22.2134 13.7273 22.4604 13.7359 23.2361 13.7712C24.0104 13.8067 24.5391 13.9292 25.0028 14.1091C25.4815 14.2947 25.8861 14.5432 26.2906 14.9477C26.6951 15.352 26.9436 15.7577 27.13 16.2361C27.3087 16.6985 27.4315 17.227 27.4678 18.0012C27.5027 18.777 27.5118 19.0249 27.5118 21C27.5118 22.9752 27.5027 23.2224 27.4678 23.9982C27.4315 24.7721 27.3087 25.3008 27.13 25.7633C26.9436 26.2415 26.6951 26.6473 26.2906 27.0515C25.8865 27.4561 25.4814 27.7052 25.0032 27.8909C24.5405 28.0708 24.0114 28.1933 23.2372 28.2288C22.4615 28.2641 22.2144 28.2727 20.2391 28.2727C18.2642 28.2727 18.0165 28.2641 17.2407 28.2288C16.4666 28.1933 15.938 28.0708 15.4753 27.8909C14.9973 27.7052 14.5916 27.4561 14.1875 27.0515C13.7831 26.6473 13.5346 26.2415 13.3487 25.7632C13.169 25.3008 13.0465 24.7723 13.0108 23.998C12.9757 23.2223 12.9669 22.9752 12.9669 21C12.9669 19.0249 12.976 18.7768 13.0107 18.0011C13.0455 17.2271 13.1683 16.6985 13.3486 16.2359C13.5349 15.7577 13.7834 15.352 14.1879 14.9477C14.5922 14.5433 14.9979 14.2949 15.4762 14.1091C15.9386 13.9292 16.4671 13.8067 17.2413 13.7712ZM19.9976 15.0378C19.8506 15.0377 19.7143 15.0377 19.5876 15.0379V15.0361C18.2322 15.0376 17.9722 15.0467 17.3013 15.077C16.5923 15.1096 16.2073 15.2277 15.9509 15.3277C15.6115 15.4599 15.3691 15.6174 15.1146 15.872C14.86 16.1265 14.7022 16.3689 14.5703 16.7083C14.4708 16.9647 14.3523 17.3496 14.3199 18.0586C14.285 18.8253 14.2781 19.0544 14.2781 20.9965C14.2781 22.9386 14.285 23.1689 14.3199 23.9356C14.3522 24.6447 14.4708 25.0296 14.5703 25.2856C14.7025 25.6252 14.86 25.867 15.1146 26.1215C15.3691 26.3761 15.6115 26.5336 15.9509 26.6655C16.2074 26.765 16.5923 26.8835 17.3013 26.9162C18.068 26.9511 18.2981 26.9586 20.24 26.9586C22.1818 26.9586 22.4121 26.9511 23.1787 26.9162C23.8878 26.8838 24.2729 26.7656 24.529 26.6656C24.8685 26.5338 25.1102 26.3762 25.3647 26.1217C25.6193 25.8673 25.7771 25.6256 25.9089 25.2862C26.0085 25.0302 26.127 24.6453 26.1594 23.9362C26.1942 23.1696 26.2018 22.9392 26.2018 20.9983C26.2018 19.0574 26.1942 18.8271 26.1594 18.0605C26.1271 17.3514 26.0085 16.9665 25.9089 16.7105C25.7768 16.3711 25.6193 16.1286 25.3647 15.8741C25.1103 15.6196 24.8684 15.462 24.529 15.3302C24.2726 15.2306 23.8878 15.1121 23.1787 15.0797C22.4119 15.0449 22.1818 15.0379 20.24 15.0379C20.1561 15.0379 20.0754 15.0378 19.9976 15.0378ZM23.2493 17.1179C23.2493 16.6359 23.6402 16.2455 24.122 16.2455V16.2452C24.6038 16.2452 24.9947 16.6361 24.9947 17.1179C24.9947 17.5997 24.6038 17.9906 24.122 17.9906C23.6402 17.9906 23.2493 17.5997 23.2493 17.1179ZM16.5053 21C16.5053 18.9375 18.1774 17.2652 20.2399 17.2652C22.3024 17.2652 23.9741 18.9374 23.9741 21C23.9741 23.0626 22.3025 24.7341 20.24 24.7341C18.1775 24.7341 16.5053 23.0626 16.5053 21ZM22.6642 21C22.6642 19.6611 21.5788 18.5758 20.24 18.5758C18.9011 18.5758 17.8159 19.6611 17.8159 21C17.8159 22.3388 18.9011 23.4242 20.24 23.4242C21.5788 23.4242 22.6642 22.3388 22.6642 21Z" fill="#1E1E24"/>
</g>
<path d="M43.4102 14.9091V28H41.8249V14.9091H43.4102ZM56.9693 14.9091V28H55.4352L48.3017 17.7216H48.1738V28H46.5886V14.9091H48.1227L55.2818 25.2131H55.4096V14.9091H56.9693ZM67.3004 18.1818C67.2237 17.5341 66.9127 17.0312 66.3672 16.6733C65.8217 16.3153 65.1527 16.1364 64.3601 16.1364C63.7806 16.1364 63.2735 16.2301 62.8388 16.4176C62.4084 16.6051 62.0717 16.8629 61.8288 17.1911C61.5902 17.5192 61.4709 17.892 61.4709 18.3097C61.4709 18.6591 61.554 18.9595 61.7202 19.2109C61.8906 19.4581 62.108 19.6648 62.3722 19.831C62.6364 19.9929 62.9134 20.1271 63.2031 20.2337C63.4929 20.3359 63.7592 20.419 64.0021 20.483L65.3317 20.8409C65.6726 20.9304 66.0519 21.054 66.4695 21.2116C66.8913 21.3693 67.294 21.5845 67.6776 21.8572C68.0654 22.1257 68.385 22.4709 68.6364 22.8928C68.8878 23.3146 69.0135 23.8324 69.0135 24.446C69.0135 25.1534 68.8281 25.7926 68.4574 26.3636C68.0909 26.9347 67.554 27.3885 66.8466 27.7251C66.1435 28.0618 65.2891 28.2301 64.2834 28.2301C63.3459 28.2301 62.5341 28.0788 61.848 27.7763C61.1662 27.4737 60.6293 27.0518 60.2372 26.5107C59.8494 25.9695 59.63 25.3409 59.5788 24.625H61.2152C61.2578 25.1193 61.424 25.5284 61.7138 25.8523C62.0078 26.1719 62.3786 26.4105 62.826 26.5682C63.2777 26.7216 63.7635 26.7983 64.2834 26.7983C64.8885 26.7983 65.4318 26.7003 65.9134 26.5043C66.3949 26.304 66.7763 26.027 67.0575 25.6733C67.3388 25.3153 67.4794 24.8977 67.4794 24.4205C67.4794 23.9858 67.358 23.6321 67.1151 23.3594C66.8722 23.0866 66.5526 22.8651 66.1563 22.6946C65.76 22.5241 65.3317 22.375 64.8715 22.2472L63.2607 21.7869C62.2379 21.4929 61.4283 21.0732 60.8317 20.5277C60.2351 19.9822 59.9368 19.2685 59.9368 18.3864C59.9368 17.6534 60.135 17.0142 60.5313 16.4688C60.9318 15.919 61.4688 15.4929 62.1421 15.1903C62.8196 14.8835 63.576 14.7301 64.4112 14.7301C65.255 14.7301 66.005 14.8814 66.6612 15.1839C67.3175 15.4822 67.8374 15.8913 68.2209 16.4112C68.6087 16.9311 68.8132 17.5213 68.8345 18.1818H67.3004ZM70.904 16.3153V14.9091H80.7221V16.3153H76.6057V28H75.0204V16.3153H70.904ZM82.1763 28H80.5144L85.3212 14.9091H86.9576L91.7644 28H90.1025L86.1905 16.9801H86.0883L82.1763 28ZM82.79 22.8864H89.4888V24.2926H82.79V22.8864ZM102.137 19C101.996 18.5696 101.811 18.1839 101.581 17.843C101.355 17.4979 101.085 17.2038 100.769 16.9609C100.458 16.718 100.104 16.5327 99.7081 16.4048C99.3118 16.277 98.8771 16.2131 98.4041 16.2131C97.6286 16.2131 96.9233 16.4134 96.2884 16.8139C95.6534 17.2145 95.1485 17.8047 94.7735 18.5845C94.3985 19.3643 94.211 20.321 94.211 21.4545C94.211 22.5881 94.4006 23.5447 94.7798 24.3246C95.1591 25.1044 95.6726 25.6946 96.3203 26.0952C96.9681 26.4957 97.6967 26.696 98.5064 26.696C99.2564 26.696 99.9169 26.5362 100.488 26.2166C101.063 25.8928 101.511 25.4368 101.83 24.8487C102.154 24.2564 102.316 23.5597 102.316 22.7585L102.802 22.8608H98.8644V21.4545H103.85V22.8608C103.85 23.9389 103.62 24.8764 103.16 25.6733C102.704 26.4702 102.073 27.0881 101.268 27.527C100.467 27.9616 99.5462 28.179 98.5064 28.179C97.3473 28.179 96.3288 27.9062 95.451 27.3608C94.5774 26.8153 93.8956 26.0398 93.4056 25.0341C92.9198 24.0284 92.6769 22.8352 92.6769 21.4545C92.6769 20.419 92.8154 19.4879 93.0923 18.6612C93.3736 17.8303 93.7699 17.1229 94.2813 16.5391C94.7926 15.9553 95.3977 15.5078 96.0966 15.1967C96.7955 14.8857 97.5646 14.7301 98.4041 14.7301C99.0945 14.7301 99.7379 14.8345 100.335 15.0433C100.935 15.2479 101.47 15.5398 101.939 15.919C102.412 16.294 102.806 16.7436 103.121 17.2678C103.437 17.7876 103.654 18.3651 103.773 19H102.137ZM106.565 28V14.9091H110.988C112.011 14.9091 112.851 15.0838 113.507 15.4332C114.163 15.7784 114.649 16.2536 114.964 16.8587C115.28 17.4638 115.437 18.152 115.437 18.9233C115.437 19.6946 115.28 20.3786 114.964 20.9751C114.649 21.5717 114.165 22.0405 113.513 22.3814C112.861 22.718 112.028 22.8864 111.014 22.8864H107.434V21.4545H110.963C111.662 21.4545 112.224 21.3523 112.65 21.1477C113.081 20.9432 113.392 20.6534 113.584 20.2784C113.78 19.8991 113.878 19.4474 113.878 18.9233C113.878 18.3991 113.78 17.9411 113.584 17.549C113.388 17.157 113.074 16.8544 112.644 16.6413C112.214 16.424 111.645 16.3153 110.937 16.3153H108.15V28H106.565ZM112.727 22.1193L115.949 28H114.108L110.937 22.1193H112.727ZM118.616 28H116.954L121.761 14.9091H123.397L128.204 28H126.542L122.63 16.9801H122.528L118.616 28ZM119.229 22.8864H125.928V24.2926H119.229V22.8864ZM130.243 14.9091H132.135L136.584 25.7756H136.737L141.186 14.9091H143.078V28H141.595V18.054H141.467L137.376 28H135.945L131.854 18.054H131.726V28H130.243V14.9091Z" fill="#1E1E24"/>
<defs>
<clipPath id="clip0_9_239">
<rect width="20" height="20" fill="white" transform="translate(10.2397 11)"/>
</clipPath>
</defs>
</svg>
