<svg width="137" height="42" viewBox="0 0 137 42" fill="none" xmlns="http://www.w3.org/2000/svg">
<rect x="0.525391" width="135.857" height="42" rx="5" fill="#F3A63B"/>
<path fill-rule="evenodd" clip-rule="evenodd" d="M11.0615 13.2459C10.5254 14.149 10.5254 15.3355 10.5254 17.7083V24.2917C10.5254 26.6645 10.5254 27.851 11.0615 28.7541C11.5133 29.5151 12.2224 30.1356 13.0922 30.5309C14.1243 31 15.4802 31 18.1921 31H25.7159C28.4277 31 29.7837 31 30.8157 30.5309C31.6855 30.1356 32.3946 29.5151 32.8464 28.7541C33.3825 27.851 33.3825 26.6645 33.3825 24.2917V17.7083C33.3825 15.3355 33.3825 14.149 32.8464 13.2459C32.3946 12.4849 31.6855 11.8644 30.8157 11.4691C29.7837 11 28.4277 11 25.7159 11H18.1921C15.4802 11 14.1243 11 13.0922 11.4691C12.2224 11.8644 11.5133 12.4849 11.0615 13.2459ZM15.6558 17.2111C16.7509 17.2111 17.6386 16.4343 17.6386 15.4761C17.6386 14.5179 16.7509 13.7411 15.6558 13.7411C14.5607 13.7411 13.6729 14.5179 13.6729 15.4761C13.6729 16.4343 14.5607 17.2111 15.6558 17.2111ZM19.4546 18.4933H22.7408V19.8106C22.7408 19.8106 23.6326 18.25 26.0589 18.25C28.2233 18.25 30.0163 19.1829 30.0163 22.0267V28.0233H26.6109V22.7533C26.6109 21.0758 25.5873 20.8913 24.8074 20.8913C23.1887 20.8913 22.9116 22.1129 22.9116 22.9721V28.0233H19.4546V18.4933ZM17.3843 18.4933H13.9273V28.0233H17.3843V18.4933Z" fill="#1E1E24"/>
<path d="M44.9678 28V14.9091H46.553V26.5938H52.6382V28H44.9678ZM56.678 14.9091V28H55.0928V14.9091H56.678ZM70.2371 14.9091V28H68.703L61.5695 17.7216H61.4417V28H59.8564V14.9091H61.3905L68.5496 25.2131H68.6775V14.9091H70.2371ZM73.4092 28V14.9091H74.9944V21.4034H75.1478L81.0285 14.9091H83.0995L77.6024 20.8153L83.0995 28H81.1819L76.6308 21.9148L74.9944 23.7557V28H73.4092ZM85.1514 28V14.9091H93.0519V16.3153H86.7366V20.7386H92.6428V22.1449H86.7366V26.5938H93.1542V28H85.1514ZM99.9489 28H95.9092V14.9091H100.128C101.398 14.9091 102.484 15.1712 103.388 15.6953C104.291 16.2152 104.984 16.9631 105.465 17.9389C105.947 18.9105 106.188 20.0739 106.188 21.429C106.188 22.7926 105.945 23.9666 105.459 24.951C104.973 25.9311 104.266 26.6854 103.337 27.2138C102.408 27.7379 101.278 28 99.9489 28ZM97.4944 26.5938H99.8467C100.929 26.5938 101.826 26.3849 102.538 25.9673C103.249 25.5497 103.78 24.9553 104.129 24.1839C104.479 23.4126 104.653 22.4943 104.653 21.429C104.653 20.3722 104.481 19.4624 104.136 18.6996C103.791 17.9325 103.275 17.3445 102.589 16.9354C101.903 16.522 101.048 16.3153 100.026 16.3153H97.4944V26.5938ZM110.432 14.9091V28H108.847V14.9091H110.432ZM123.991 14.9091V28H122.457L115.323 17.7216H115.196V28H113.61V14.9091H115.144L122.304 25.2131H122.431V14.9091H123.991Z" fill="#1E1E24"/>
</svg>
