<svg width="156" height="42" viewBox="0 0 156 42" fill="none" xmlns="http://www.w3.org/2000/svg">
<rect width="155.525" height="42" rx="5" fill="#F3A63B"/>
<g clip-path="url(#clip0_8_225)">
<path d="M22.6367 30.6826C26.748 30.6826 29.4922 29.2276 29.4922 27.0791C29.4922 25.1553 27.8516 24.7256 27.8516 23.5928C27.8516 22.0303 33.5254 21.7178 33.5254 17.7041C33.5254 13.7392 29.4336 11.1221 23.3594 11.1221C15.3809 11.1221 10 15.1064 10 21.0732C10 26.8155 15.1074 30.6826 22.6367 30.6826ZM22.4219 26.9522C20.9961 26.9522 19.8242 25.7901 19.8242 24.3545C19.8242 22.9287 20.9961 21.7569 22.4219 21.7569C23.8574 21.7569 25.0293 22.9287 25.0293 24.3545C25.0293 25.7901 23.8574 26.9522 22.4219 26.9522ZM14.6191 22.2647C13.7305 22.2647 12.9883 21.5225 12.9883 20.624C12.9883 19.7646 13.7598 19.0127 14.6191 19.0127C15.5176 19.0127 16.2402 19.7256 16.2402 20.624C16.2402 21.5225 15.5176 22.2647 14.6191 22.2647ZM18.3691 18.8076C17.2168 18.8076 16.2988 17.9092 16.2988 16.7568C16.2988 15.6338 17.2168 14.7353 18.3691 14.7353C19.4824 14.7353 20.4102 15.6338 20.4102 16.7568C20.4102 17.9092 19.4922 18.8076 18.3691 18.8076ZM23.5742 17.2646C22.6758 17.2646 21.9141 16.5322 21.9141 15.624C21.9141 14.7158 22.6758 13.9834 23.5742 13.9834C24.4922 13.9834 25.2148 14.7158 25.2148 15.624C25.2148 16.5322 24.4922 17.2646 23.5742 17.2646ZM28.1738 18.124C27.4316 18.124 26.8262 17.5381 26.8262 16.7959C26.8262 16.0635 27.4316 15.458 28.1738 15.458C28.9062 15.458 29.4922 16.0635 29.4922 16.7959C29.4922 17.5381 28.9062 18.124 28.1738 18.124Z" fill="#1E1E24"/>
</g>
<path d="M45.1106 28V14.9091H49.5339C50.5609 14.9091 51.4004 15.0945 52.0524 15.4652C52.7086 15.8317 53.1944 16.3281 53.5098 16.9545C53.8251 17.581 53.9828 18.2798 53.9828 19.0511C53.9828 19.8224 53.8251 20.5234 53.5098 21.1541C53.1987 21.7848 52.7172 22.2876 52.0652 22.6626C51.4132 23.0334 50.5779 23.2188 49.5595 23.2188H46.389V21.8125H49.5083C50.2115 21.8125 50.7761 21.6911 51.2022 21.4482C51.6284 21.2053 51.9373 20.8771 52.1291 20.4638C52.3251 20.0462 52.4231 19.5753 52.4231 19.0511C52.4231 18.527 52.3251 18.0582 52.1291 17.6449C51.9373 17.2315 51.6262 16.9077 51.1958 16.6733C50.7654 16.4347 50.1944 16.3153 49.4828 16.3153H46.6958V28H45.1106ZM67.5819 21.4545C67.5819 22.8352 67.3326 24.0284 66.834 25.0341C66.3354 26.0398 65.6515 26.8153 64.7821 27.3608C63.9128 27.9062 62.9199 28.179 61.8034 28.179C60.687 28.179 59.6941 27.9062 58.8248 27.3608C57.9554 26.8153 57.2715 26.0398 56.7729 25.0341C56.2743 24.0284 56.025 22.8352 56.025 21.4545C56.025 20.0739 56.2743 18.8807 56.7729 17.875C57.2715 16.8693 57.9554 16.0938 58.8248 15.5483C59.6941 15.0028 60.687 14.7301 61.8034 14.7301C62.9199 14.7301 63.9128 15.0028 64.7821 15.5483C65.6515 16.0938 66.3354 16.8693 66.834 17.875C67.3326 18.8807 67.5819 20.0739 67.5819 21.4545ZM66.0478 21.4545C66.0478 20.321 65.8581 19.3643 65.4789 18.5845C65.1039 17.8047 64.5946 17.2145 63.9512 16.8139C63.312 16.4134 62.5961 16.2131 61.8034 16.2131C61.0108 16.2131 60.2928 16.4134 59.6493 16.8139C59.0101 17.2145 58.5009 17.8047 58.1216 18.5845C57.7466 19.3643 57.5591 20.321 57.5591 21.4545C57.5591 22.5881 57.7466 23.5447 58.1216 24.3246C58.5009 25.1044 59.0101 25.6946 59.6493 26.0952C60.2928 26.4957 61.0108 26.696 61.8034 26.696C62.5961 26.696 63.312 26.4957 63.9512 26.0952C64.5946 25.6946 65.1039 25.1044 65.4789 24.3246C65.8581 23.5447 66.0478 22.5881 66.0478 21.4545ZM70.2473 28V14.9091H74.6706C75.6934 14.9091 76.5328 15.0838 77.1891 15.4332C77.8453 15.7784 78.3311 16.2536 78.6465 16.8587C78.9618 17.4638 79.1195 18.152 79.1195 18.9233C79.1195 19.6946 78.9618 20.3786 78.6465 20.9751C78.3311 21.5717 77.8475 22.0405 77.1955 22.3814C76.5435 22.718 75.7104 22.8864 74.6962 22.8864H71.1167V21.4545H74.6451C75.3439 21.4545 75.9064 21.3523 76.3326 21.1477C76.763 20.9432 77.074 20.6534 77.2658 20.2784C77.4618 19.8991 77.5598 19.4474 77.5598 18.9233C77.5598 18.3991 77.4618 17.9411 77.2658 17.549C77.0698 17.157 76.7566 16.8544 76.3262 16.6413C75.8958 16.424 75.3269 16.3153 74.6195 16.3153H71.8326V28H70.2473ZM76.4093 22.1193L79.6309 28H77.79L74.6195 22.1193H76.4093ZM81.0451 16.3153V14.9091H90.8633V16.3153H86.7468V28H85.1616V16.3153H81.0451ZM93.3098 28V14.9091H101.159V16.3153H94.8951V20.7386H100.571V22.1449H94.8951V28H93.3098ZM114.92 21.4545C114.92 22.8352 114.67 24.0284 114.172 25.0341C113.673 26.0398 112.989 26.8153 112.12 27.3608C111.251 27.9062 110.258 28.179 109.141 28.179C108.025 28.179 107.032 27.9062 106.163 27.3608C105.293 26.8153 104.609 26.0398 104.111 25.0341C103.612 24.0284 103.363 22.8352 103.363 21.4545C103.363 20.0739 103.612 18.8807 104.111 17.875C104.609 16.8693 105.293 16.0938 106.163 15.5483C107.032 15.0028 108.025 14.7301 109.141 14.7301C110.258 14.7301 111.251 15.0028 112.12 15.5483C112.989 16.0938 113.673 16.8693 114.172 17.875C114.67 18.8807 114.92 20.0739 114.92 21.4545ZM113.386 21.4545C113.386 20.321 113.196 19.3643 112.817 18.5845C112.442 17.8047 111.933 17.2145 111.289 16.8139C110.65 16.4134 109.934 16.2131 109.141 16.2131C108.349 16.2131 107.631 16.4134 106.987 16.8139C106.348 17.2145 105.839 17.8047 105.46 18.5845C105.085 19.3643 104.897 20.321 104.897 21.4545C104.897 22.5881 105.085 23.5447 105.46 24.3246C105.839 25.1044 106.348 25.6946 106.987 26.0952C107.631 26.4957 108.349 26.696 109.141 26.696C109.934 26.696 110.65 26.4957 111.289 26.0952C111.933 25.6946 112.442 25.1044 112.817 24.3246C113.196 23.5447 113.386 22.5881 113.386 21.4545ZM117.585 28V14.9091H119.17V26.5938H125.256V28H117.585ZM129.295 14.9091V28H127.71V14.9091H129.295ZM143.519 21.4545C143.519 22.8352 143.27 24.0284 142.771 25.0341C142.273 26.0398 141.589 26.8153 140.72 27.3608C139.85 27.9062 138.857 28.179 137.741 28.179C136.624 28.179 135.632 27.9062 134.762 27.3608C133.893 26.8153 133.209 26.0398 132.71 25.0341C132.212 24.0284 131.963 22.8352 131.963 21.4545C131.963 20.0739 132.212 18.8807 132.71 17.875C133.209 16.8693 133.893 16.0938 134.762 15.5483C135.632 15.0028 136.624 14.7301 137.741 14.7301C138.857 14.7301 139.85 15.0028 140.72 15.5483C141.589 16.0938 142.273 16.8693 142.771 17.875C143.27 18.8807 143.519 20.0739 143.519 21.4545ZM141.985 21.4545C141.985 20.321 141.796 19.3643 141.416 18.5845C141.041 17.8047 140.532 17.2145 139.889 16.8139C139.249 16.4134 138.534 16.2131 137.741 16.2131C136.948 16.2131 136.23 16.4134 135.587 16.8139C134.948 17.2145 134.438 17.8047 134.059 18.5845C133.684 19.3643 133.497 20.321 133.497 21.4545C133.497 22.5881 133.684 23.5447 134.059 24.3246C134.438 25.1044 134.948 25.6946 135.587 26.0952C136.23 26.4957 136.948 26.696 137.741 26.696C138.534 26.696 139.249 26.4957 139.889 26.0952C140.532 25.6946 141.041 25.1044 141.416 24.3246C141.796 23.5447 141.985 22.5881 141.985 21.4545Z" fill="#1E1E24"/>
<defs>
<clipPath id="clip0_8_225">
<rect width="23.5254" height="19.7559" fill="white" transform="translate(10 11.1221)"/>
</clipPath>
</defs>
</svg>
