<svg width="133" height="42" viewBox="0 0 133 42" fill="none" xmlns="http://www.w3.org/2000/svg">
<rect x="0.382568" width="131.857" height="42" rx="5" fill="#F3A63B"/>
<path fill-rule="evenodd" clip-rule="evenodd" d="M10.9187 13.2459C10.3826 14.149 10.3826 15.3355 10.3826 17.7083V24.2917C10.3826 26.6645 10.3826 27.851 10.9187 28.7541C11.3705 29.5151 12.0796 30.1356 12.9494 30.5309C13.9814 31 15.3374 31 18.0492 31H25.573C28.2849 31 29.6408 31 30.6729 30.5309C31.5427 30.1356 32.2518 29.5151 32.7036 28.7541C33.2397 27.851 33.2397 26.6645 33.2397 24.2917V17.7083C33.2397 15.3355 33.2397 14.149 32.7036 13.2459C32.2518 12.4849 31.5427 11.8644 30.6729 11.4691C29.6408 11 28.2849 11 25.573 11H18.0492C15.3374 11 13.9814 11 12.9494 11.4691C12.0796 11.8644 11.3705 12.4849 10.9187 13.2459ZM28.1628 18.9381C28.1628 18.8132 28.1609 18.6883 28.1554 18.5634C28.7466 18.1603 29.2585 17.655 29.6652 17.0815C29.1231 17.3086 28.5387 17.4618 27.9259 17.53C28.5522 17.1779 29.0315 16.6159 29.2585 15.9459C28.6728 16.2752 28.0256 16.5137 27.3347 16.6386C26.7828 16.0822 25.9965 15.7357 25.126 15.7357C23.4538 15.7357 22.0984 17.019 22.0984 18.6032C22.0984 18.8247 22.1249 19.046 22.1766 19.2561C19.6609 19.1369 17.4295 17.9956 15.9369 16.2581C15.6748 16.6839 15.5259 17.178 15.5259 17.7003C15.5259 18.694 16.0606 19.5741 16.8739 20.0908C16.3774 20.0738 15.9099 19.9432 15.5013 19.7331V19.7672C15.5013 21.1584 16.5454 22.3167 17.9315 22.5779C17.6756 22.646 17.4086 22.68 17.1335 22.68C16.9385 22.68 16.7478 22.663 16.5626 22.6289C16.9484 23.7645 18.0669 24.5992 19.3914 24.6162C18.3554 25.3884 17.0493 25.8485 15.6312 25.8485C15.3869 25.8485 15.1464 25.8314 14.9095 25.8087C16.2495 26.6206 17.8398 27.0976 19.5502 27.0976C25.118 27.0976 28.1628 22.7254 28.1628 18.9381Z" fill="#1E1E24"/>
<path d="M44.109 16.3153V14.9091H53.9272V16.3153H49.8107V28H48.2255V16.3153H44.109ZM58.7516 28L55.1721 14.9091H56.7829L59.5187 25.571H59.6465L62.4334 14.9091H64.2232L67.0101 25.571H67.138L69.8738 14.9091H71.4846L67.905 28H66.2687L63.3795 17.5682H63.2772L60.388 28H58.7516ZM75.0449 14.9091V28H73.4597V14.9091H75.0449ZM77.5075 16.3153V14.9091H87.3257V16.3153H83.2092V28H81.6239V16.3153H77.5075ZM89.0563 16.3153V14.9091H98.8745V16.3153H94.758V28H93.1728V16.3153H89.0563ZM101.321 28V14.9091H109.222V16.3153H102.906V20.7386H108.813V22.1449H102.906V26.5938H109.324V28H101.321ZM112.079 28V14.9091H116.502C117.525 14.9091 118.364 15.0838 119.021 15.4332C119.677 15.7784 120.163 16.2536 120.478 16.8587C120.793 17.4638 120.951 18.152 120.951 18.9233C120.951 19.6946 120.793 20.3786 120.478 20.9751C120.163 21.5717 119.679 22.0405 119.027 22.3814C118.375 22.718 117.542 22.8864 116.528 22.8864H112.948V21.4545H116.477C117.175 21.4545 117.738 21.3523 118.164 21.1477C118.594 20.9432 118.906 20.6534 119.097 20.2784C119.293 19.8991 119.391 19.4474 119.391 18.9233C119.391 18.3991 119.293 17.9411 119.097 17.549C118.901 17.157 118.588 16.8544 118.158 16.6413C117.727 16.424 117.158 16.3153 116.451 16.3153H113.664V28H112.079ZM118.241 22.1193L121.462 28H119.621L116.451 22.1193H118.241Z" fill="#1E1E24"/>
</svg>
