<svg width="103" height="42" viewBox="0 0 103 42" fill="none" xmlns="http://www.w3.org/2000/svg">
<rect width="103" height="42" rx="5" fill="#4ECDC4"/>
<g clip-path="url(#clip0_19_62)">
<path d="M26.9739 15.3027C26.935 15.2596 26.8874 15.2251 26.8343 15.2016C26.7812 15.1781 26.7237 15.1659 26.6656 15.166H13.3344C13.2763 15.1657 13.2188 15.1777 13.1656 15.201C13.1124 15.2244 13.0647 15.2586 13.0256 15.3016C12.9864 15.3446 12.9568 15.3953 12.9385 15.4504C12.9202 15.5056 12.9137 15.5639 12.9195 15.6218L14.1693 28.953C14.1859 29.1238 14.3051 29.2671 14.4701 29.3146L20.3025 30.981C20.3831 31.0043 20.4689 31.0022 20.5483 30.9752L25.5475 29.3088C25.6241 29.2833 25.6917 29.2361 25.7419 29.173C25.7922 29.1098 25.8231 29.0334 25.8308 28.953L27.0806 15.6218C27.0858 15.5641 27.079 15.506 27.0607 15.451C27.0423 15.3961 27.0128 15.3456 26.9739 15.3027ZM17.0963 26.5159L16.6797 24.8495C16.6527 24.7423 16.6695 24.6288 16.7262 24.534C16.7829 24.4391 16.875 24.3707 16.9822 24.3437C17.0893 24.3168 17.2028 24.3335 17.2977 24.3902C17.3925 24.4469 17.4609 24.539 17.4879 24.6462L17.7879 25.846C17.8056 25.9171 17.8417 25.9822 17.8926 26.0349C17.9435 26.0875 18.0074 26.1258 18.0778 26.1459L20.3025 26.7817C20.3771 26.8025 20.4561 26.8025 20.5308 26.7817L22.6804 26.1676C22.7599 26.1447 22.8308 26.0988 22.8842 26.0356C22.9376 25.9724 22.9711 25.8949 22.9804 25.8127L23.2787 23.1273C23.2851 23.069 23.2792 23.0101 23.2613 22.9543C23.2435 22.8985 23.214 22.8471 23.1749 22.8035C23.1359 22.7599 23.088 22.725 23.0345 22.7011C22.9811 22.6772 22.9231 22.6648 22.8646 22.6648H16.6672C16.5567 22.6648 16.4508 22.6209 16.3726 22.5428C16.2945 22.4647 16.2506 22.3587 16.2506 22.2482C16.2506 22.1377 16.2945 22.0318 16.3726 21.9536C16.4508 21.8755 16.5567 21.8316 16.6672 21.8316H23.0504C23.1529 21.8316 23.2519 21.7938 23.3283 21.7254C23.4047 21.657 23.4532 21.5628 23.4645 21.4608L23.6494 19.7944C23.6559 19.7362 23.65 19.6773 23.6321 19.6215C23.6142 19.5657 23.5848 19.5143 23.5457 19.4707C23.5066 19.4271 23.4588 19.3922 23.4053 19.3683C23.3518 19.3444 23.2939 19.332 23.2353 19.332H16.2506C16.1401 19.332 16.0342 19.2881 15.956 19.21C15.8779 19.1319 15.834 19.0259 15.834 18.9154C15.834 18.8049 15.8779 18.699 15.956 18.6208C16.0342 18.5427 16.1401 18.4988 16.2506 18.4988H24.166C24.2246 18.4991 24.2825 18.5116 24.3359 18.5356C24.3893 18.5597 24.4371 18.5947 24.4761 18.6383C24.5152 18.682 24.5446 18.7334 24.5625 18.7892C24.5804 18.8449 24.5864 18.9038 24.5801 18.9621L23.7469 26.4609C23.7381 26.543 23.7049 26.6206 23.6516 26.6837C23.5982 26.7468 23.5273 26.7925 23.4478 26.815L20.5308 27.6482C20.4561 27.6695 20.3771 27.6695 20.3025 27.6482L17.3863 26.815C17.3159 26.795 17.2521 26.7568 17.2012 26.7043C17.1503 26.6518 17.1141 26.5868 17.0963 26.5159ZM15.834 13.4996H17.5004C17.6109 13.4996 17.7169 13.4557 17.795 13.3776C17.8731 13.2995 17.917 13.1935 17.917 13.083C17.917 12.9725 17.8731 12.8666 17.795 12.7884C17.7169 12.7103 17.6109 12.6664 17.5004 12.6664H16.2506V11.8332H17.5004C17.6109 11.8332 17.7169 11.7893 17.795 11.7112C17.8731 11.6331 17.917 11.5271 17.917 11.4166C17.917 11.3061 17.8731 11.2001 17.795 11.122C17.7169 11.0439 17.6109 11 17.5004 11H15.834C15.7793 11 15.7251 11.0108 15.6746 11.0317C15.624 11.0526 15.5781 11.0833 15.5394 11.122C15.5007 11.1607 15.4701 11.2066 15.4491 11.2572C15.4282 11.3077 15.4174 11.3619 15.4174 11.4166V13.083C15.4174 13.1377 15.4282 13.1919 15.4491 13.2424C15.4701 13.293 15.5007 13.3389 15.5394 13.3776C15.5781 13.4163 15.624 13.447 15.6746 13.4679C15.7251 13.4888 15.7793 13.4996 15.834 13.4996ZM18.7502 13.083C18.7502 13.1935 18.7941 13.2995 18.8722 13.3776C18.9504 13.4557 19.0563 13.4996 19.1668 13.4996H20.8332C20.9157 13.4998 20.9964 13.4754 21.0651 13.4296C21.1337 13.3839 21.1872 13.3187 21.2188 13.2425C21.2504 13.1663 21.2587 13.0824 21.2425 13.0015C21.2264 12.9206 21.1866 12.8463 21.1282 12.7881L20.1725 11.8332H20.8332C20.9437 11.8332 21.0497 11.7893 21.1278 11.7112C21.2059 11.6331 21.2498 11.5271 21.2498 11.4166C21.2498 11.3061 21.2059 11.2001 21.1278 11.122C21.0497 11.0439 20.9437 11 20.8332 11H19.1668C19.0843 10.9999 19.0036 11.0242 18.935 11.07C18.8663 11.1157 18.8128 11.1809 18.7812 11.2571C18.7496 11.3333 18.7414 11.4172 18.7575 11.4981C18.7736 11.579 18.8134 11.6533 18.8719 11.7116L19.8275 12.6664H19.1668C19.0563 12.6664 18.9504 12.7103 18.8722 12.7884C18.7941 12.8666 18.7502 12.9725 18.7502 13.083ZM22.083 13.083C22.083 13.1935 22.1269 13.2995 22.205 13.3776C22.2832 13.4557 22.3891 13.4996 22.4996 13.4996H24.166C24.2485 13.4998 24.3292 13.4754 24.3979 13.4296C24.4665 13.3839 24.52 13.3187 24.5516 13.2425C24.5832 13.1663 24.5915 13.0824 24.5753 13.0015C24.5592 12.9206 24.5194 12.8463 24.461 12.7881L23.5053 11.8332H24.166C24.2765 11.8332 24.3825 11.7893 24.4606 11.7112C24.5387 11.6331 24.5826 11.5271 24.5826 11.4166C24.5826 11.3061 24.5387 11.2001 24.4606 11.122C24.3825 11.0439 24.2765 11 24.166 11H22.4996C22.4171 10.9999 22.3364 11.0242 22.2678 11.07C22.1991 11.1157 22.1456 11.1809 22.114 11.2571C22.0824 11.3333 22.0742 11.4172 22.0903 11.4981C22.1065 11.579 22.1463 11.6533 22.2047 11.7116L23.1603 12.6664H22.4996C22.3891 12.6664 22.2832 12.7103 22.205 12.7884C22.1269 12.8666 22.083 12.9725 22.083 13.083Z" fill="#1E1E24"/>
</g>
<path d="M52.1193 19H50.5341C50.4403 18.544 50.2763 18.1435 50.0419 17.7983C49.8118 17.4531 49.5305 17.1634 49.1982 16.929C48.87 16.6903 48.5057 16.5114 48.1051 16.392C47.7045 16.2727 47.2869 16.2131 46.8523 16.2131C46.0597 16.2131 45.3416 16.4134 44.6982 16.8139C44.0589 17.2145 43.5497 17.8047 43.1705 18.5845C42.7955 19.3643 42.608 20.321 42.608 21.4545C42.608 22.5881 42.7955 23.5447 43.1705 24.3246C43.5497 25.1044 44.0589 25.6946 44.6982 26.0952C45.3416 26.4957 46.0597 26.696 46.8523 26.696C47.2869 26.696 47.7045 26.6364 48.1051 26.517C48.5057 26.3977 48.87 26.2209 49.1982 25.9865C49.5305 25.7479 49.8118 25.456 50.0419 25.1108C50.2763 24.7614 50.4403 24.3608 50.5341 23.9091H52.1193C52 24.5781 51.7827 25.1768 51.4673 25.7053C51.152 26.2337 50.7599 26.6832 50.2912 27.054C49.8224 27.4205 49.2962 27.6996 48.7124 27.8913C48.1328 28.0831 47.5128 28.179 46.8523 28.179C45.7358 28.179 44.7429 27.9062 43.8736 27.3608C43.0043 26.8153 42.3203 26.0398 41.8217 25.0341C41.3232 24.0284 41.0739 22.8352 41.0739 21.4545C41.0739 20.0739 41.3232 18.8807 41.8217 17.875C42.3203 16.8693 43.0043 16.0938 43.8736 15.5483C44.7429 15.0028 45.7358 14.7301 46.8523 14.7301C47.5128 14.7301 48.1328 14.826 48.7124 15.0178C49.2962 15.2095 49.8224 15.4908 50.2912 15.8615C50.7599 16.228 51.152 16.6754 51.4673 17.2038C51.7827 17.728 52 18.3267 52.1193 19ZM61.84 18.1818C61.7633 17.5341 61.4522 17.0312 60.9068 16.6733C60.3613 16.3153 59.6923 16.1364 58.8997 16.1364C58.3201 16.1364 57.813 16.2301 57.3784 16.4176C56.948 16.6051 56.6113 16.8629 56.3684 17.1911C56.1298 17.5192 56.0105 17.892 56.0105 18.3097C56.0105 18.6591 56.0936 18.9595 56.2598 19.2109C56.4302 19.4581 56.6475 19.6648 56.9118 19.831C57.176 19.9929 57.4529 20.1271 57.7427 20.2337C58.0325 20.3359 58.2988 20.419 58.5417 20.483L59.8713 20.8409C60.2122 20.9304 60.5914 21.054 61.0091 21.2116C61.4309 21.3693 61.8336 21.5845 62.2172 21.8572C62.6049 22.1257 62.9245 22.4709 63.176 22.8928C63.4274 23.3146 63.5531 23.8324 63.5531 24.446C63.5531 25.1534 63.3677 25.7926 62.997 26.3636C62.6305 26.9347 62.0936 27.3885 61.3862 27.7251C60.6831 28.0618 59.8287 28.2301 58.823 28.2301C57.8855 28.2301 57.0737 28.0788 56.3876 27.7763C55.7058 27.4737 55.1689 27.0518 54.7768 26.5107C54.389 25.9695 54.1696 25.3409 54.1184 24.625H55.7548C55.7974 25.1193 55.9636 25.5284 56.2534 25.8523C56.5474 26.1719 56.9181 26.4105 57.3656 26.5682C57.8173 26.7216 58.3031 26.7983 58.823 26.7983C59.4281 26.7983 59.9714 26.7003 60.4529 26.5043C60.9345 26.304 61.3159 26.027 61.5971 25.6733C61.8784 25.3153 62.019 24.8977 62.019 24.4205C62.019 23.9858 61.8976 23.6321 61.6547 23.3594C61.4118 23.0866 61.0922 22.8651 60.6958 22.6946C60.2995 22.5241 59.8713 22.375 59.411 22.2472L57.8002 21.7869C56.7775 21.4929 55.9679 21.0732 55.3713 20.5277C54.7747 19.9822 54.4764 19.2685 54.4764 18.3864C54.4764 17.6534 54.6745 17.0142 55.0708 16.4688C55.4714 15.919 56.0083 15.4929 56.6816 15.1903C57.3592 14.8835 58.1156 14.7301 58.9508 14.7301C59.7946 14.7301 60.5446 14.8814 61.2008 15.1839C61.8571 15.4822 62.377 15.8913 62.7605 16.4112C63.1483 16.9311 63.3528 17.5213 63.3741 18.1818H61.84ZM73.3185 18.1818C73.2418 17.5341 72.9308 17.0312 72.3853 16.6733C71.8398 16.3153 71.1708 16.1364 70.3782 16.1364C69.7987 16.1364 69.2915 16.2301 68.8569 16.4176C68.4265 16.6051 68.0898 16.8629 67.8469 17.1911C67.6083 17.5192 67.489 17.892 67.489 18.3097C67.489 18.6591 67.5721 18.9595 67.7383 19.2109C67.9087 19.4581 68.1261 19.6648 68.3903 19.831C68.6545 19.9929 68.9315 20.1271 69.2212 20.2337C69.511 20.3359 69.7773 20.419 70.0202 20.483L71.3498 20.8409C71.6907 20.9304 72.07 21.054 72.4876 21.2116C72.9094 21.3693 73.3121 21.5845 73.6957 21.8572C74.0835 22.1257 74.4031 22.4709 74.6545 22.8928C74.9059 23.3146 75.0316 23.8324 75.0316 24.446C75.0316 25.1534 74.8462 25.7926 74.4755 26.3636C74.109 26.9347 73.5721 27.3885 72.8647 27.7251C72.1616 28.0618 71.3072 28.2301 70.3015 28.2301C69.364 28.2301 68.5522 28.0788 67.8661 27.7763C67.1843 27.4737 66.6474 27.0518 66.2553 26.5107C65.8675 25.9695 65.6481 25.3409 65.5969 24.625H67.2333C67.2759 25.1193 67.4421 25.5284 67.7319 25.8523C68.0259 26.1719 68.3967 26.4105 68.8441 26.5682C69.2958 26.7216 69.7816 26.7983 70.3015 26.7983C70.9066 26.7983 71.4499 26.7003 71.9315 26.5043C72.413 26.304 72.7944 26.027 73.0756 25.6733C73.3569 25.3153 73.4975 24.8977 73.4975 24.4205C73.4975 23.9858 73.3761 23.6321 73.1332 23.3594C72.8903 23.0866 72.5707 22.8651 72.1744 22.6946C71.7781 22.5241 71.3498 22.375 70.8896 22.2472L69.2788 21.7869C68.256 21.4929 67.4464 21.0732 66.8498 20.5277C66.2532 19.9822 65.9549 19.2685 65.9549 18.3864C65.9549 17.6534 66.1531 17.0142 66.5494 16.4688C66.9499 15.919 67.4869 15.4929 68.1602 15.1903C68.8377 14.8835 69.5941 14.7301 70.4293 14.7301C71.2731 14.7301 72.0231 14.8814 72.6793 15.1839C73.3356 15.4822 73.8555 15.8913 74.239 16.4112C74.6268 16.9311 74.8313 17.5213 74.8526 18.1818H73.3185ZM86.8936 28.179C86.0499 28.179 85.2978 28.0341 84.6373 27.7443C83.981 27.4545 83.459 27.0518 83.0712 26.5362C82.6877 26.0163 82.4789 25.4134 82.4448 24.7273H84.0556C84.0897 25.1491 84.2346 25.5135 84.4902 25.8203C84.7459 26.1229 85.0804 26.3572 85.4938 26.5234C85.9071 26.6896 86.3652 26.7727 86.8681 26.7727C87.4306 26.7727 87.9292 26.6747 88.3638 26.4787C88.7985 26.2827 89.1394 26.0099 89.3865 25.6605C89.6337 25.3111 89.7573 24.9062 89.7573 24.446C89.7573 23.9645 89.638 23.5405 89.3993 23.174C89.1607 22.8033 88.8113 22.5135 88.351 22.3047C87.8908 22.0959 87.3283 21.9915 86.6635 21.9915H85.6152V20.5852H86.6635C87.1834 20.5852 87.6394 20.4915 88.0314 20.304C88.4277 20.1165 88.7367 19.8523 88.9583 19.5114C89.1841 19.1705 89.2971 18.7699 89.2971 18.3097C89.2971 17.8665 89.199 17.4808 89.003 17.1527C88.807 16.8246 88.53 16.5689 88.1721 16.3857C87.8184 16.2024 87.4007 16.1108 86.9192 16.1108C86.4675 16.1108 86.0414 16.1939 85.6408 16.3601C85.2445 16.522 84.9206 16.7585 84.6692 17.0696C84.4178 17.3764 84.2814 17.7472 84.2601 18.1818H82.726C82.7516 17.4957 82.9583 16.8949 83.3461 16.3793C83.7338 15.8594 84.2409 15.4545 84.8674 15.1648C85.498 14.875 86.1905 14.7301 86.9448 14.7301C87.7544 14.7301 88.449 14.8942 89.0286 15.2223C89.6081 15.5462 90.0534 15.9744 90.3645 16.5071C90.6756 17.0398 90.8311 17.6151 90.8311 18.233C90.8311 18.9702 90.6373 19.5987 90.2495 20.1186C89.8659 20.6385 89.3439 20.9986 88.6834 21.1989V21.3011C89.5101 21.4375 90.1557 21.7891 90.6202 22.3558C91.0847 22.9183 91.3169 23.6151 91.3169 24.446C91.3169 25.1577 91.123 25.7969 90.7353 26.3636C90.3517 26.9261 89.8276 27.3693 89.1628 27.6932C88.498 28.017 87.7417 28.179 86.8936 28.179Z" fill="#1E1E24"/>
<defs>
<clipPath id="clip0_19_62">
<rect width="20" height="20" fill="white" transform="translate(10 11)"/>
</clipPath>
</defs>
</svg>
