<svg width="138" height="42" viewBox="0 0 138 42" fill="none" xmlns="http://www.w3.org/2000/svg">
<rect x="0.593567" width="137.389" height="42" rx="5" fill="#EDDDCC"/>
<path d="M32.9475 12.675C31.2137 11.8812 29.3834 11.3181 27.5032 11C27.246 11.4599 27.0132 11.9331 26.8058 12.4176C24.8032 12.1158 22.7665 12.1158 20.7639 12.4176C20.5564 11.9332 20.3236 11.46 20.0665 11C18.1851 11.3208 16.3536 11.8852 14.6181 12.6791C11.1726 17.7767 10.2386 22.7476 10.7056 27.648C12.7234 29.1388 14.9818 30.2725 17.3827 31C17.9234 30.2729 18.4017 29.5015 18.8128 28.6941C18.0321 28.4025 17.2785 28.0427 16.5608 27.6189C16.7497 27.4819 16.9344 27.3408 17.1129 27.2038C19.2012 28.1859 21.4803 28.695 23.788 28.695C26.0956 28.695 28.3748 28.1859 30.463 27.2038C30.6436 27.3512 30.8283 27.4923 31.0151 27.6189C30.2961 28.0434 29.5411 28.4038 28.759 28.6961C29.1695 29.5032 29.6479 30.2739 30.189 31C32.592 30.2755 34.8522 29.1422 36.8703 27.6501C37.4183 21.9672 35.9342 17.0419 32.9475 12.675ZM19.4044 24.6343C18.103 24.6343 17.0278 23.4533 17.0278 22.0004C17.0278 20.5475 18.0656 19.3562 19.4002 19.3562C20.7348 19.3562 21.8016 20.5475 21.7788 22.0004C21.756 23.4533 20.7306 24.6343 19.4044 24.6343ZM28.1716 24.6343C26.8681 24.6343 25.7971 23.4533 25.7971 22.0004C25.7971 20.5475 26.8349 19.3562 28.1716 19.3562C29.5082 19.3562 30.5668 20.5475 30.544 22.0004C30.5211 23.4533 29.4979 24.6343 28.1716 24.6343Z" fill="#1E1E24"/>
<path d="M52.6075 28H48.5677V14.9091H52.7864C54.0563 14.9091 55.143 15.1712 56.0464 15.6953C56.9498 16.2152 57.6423 16.9631 58.1238 17.9389C58.6053 18.9105 58.8461 20.0739 58.8461 21.429C58.8461 22.7926 58.6032 23.9666 58.1174 24.951C57.6316 25.9311 56.9242 26.6854 55.9952 27.2138C55.0663 27.7379 53.937 28 52.6075 28ZM50.1529 26.5938H52.5052C53.5876 26.5938 54.4846 26.3849 55.1962 25.9673C55.9079 25.5497 56.4384 24.9553 56.7879 24.1839C57.1373 23.4126 57.312 22.4943 57.312 21.429C57.312 20.3722 57.1394 19.4624 56.7942 18.6996C56.4491 17.9325 55.9334 17.3445 55.2474 16.9354C54.5613 16.522 53.7069 16.3153 52.6842 16.3153H50.1529V26.5938ZM63.0904 14.9091V28H61.5052V14.9091H63.0904ZM73.4279 18.1818C73.3512 17.5341 73.0402 17.0312 72.4947 16.6733C71.9492 16.3153 71.2802 16.1364 70.4876 16.1364C69.9081 16.1364 69.401 16.2301 68.9663 16.4176C68.5359 16.6051 68.1992 16.8629 67.9564 17.1911C67.7177 17.5192 67.5984 17.892 67.5984 18.3097C67.5984 18.6591 67.6815 18.9595 67.8477 19.2109C68.0181 19.4581 68.2355 19.6648 68.4997 19.831C68.7639 19.9929 69.0409 20.1271 69.3306 20.2337C69.6204 20.3359 69.8867 20.419 70.1296 20.483L71.4592 20.8409C71.8001 20.9304 72.1794 21.054 72.597 21.2116C73.0189 21.3693 73.4216 21.5845 73.8051 21.8572C74.1929 22.1257 74.5125 22.4709 74.7639 22.8928C75.0153 23.3146 75.141 23.8324 75.141 24.446C75.141 25.1534 74.9556 25.7926 74.5849 26.3636C74.2184 26.9347 73.6815 27.3885 72.9741 27.7251C72.271 28.0618 71.4166 28.2301 70.4109 28.2301C69.4734 28.2301 68.6616 28.0788 67.9755 27.7763C67.2937 27.4737 66.7568 27.0518 66.3647 26.5107C65.9769 25.9695 65.7575 25.3409 65.7064 24.625H67.3427C67.3853 25.1193 67.5515 25.5284 67.8413 25.8523C68.1353 26.1719 68.5061 26.4105 68.9535 26.5682C69.4052 26.7216 69.891 26.7983 70.4109 26.7983C71.016 26.7983 71.5593 26.7003 72.0409 26.5043C72.5224 26.304 72.9038 26.027 73.185 25.6733C73.4663 25.3153 73.6069 24.8977 73.6069 24.4205C73.6069 23.9858 73.4855 23.6321 73.2426 23.3594C72.9997 23.0866 72.6801 22.8651 72.2838 22.6946C71.8875 22.5241 71.4592 22.375 70.999 22.2472L69.3882 21.7869C68.3654 21.4929 67.5558 21.0732 66.9592 20.5277C66.3626 19.9822 66.0643 19.2685 66.0643 18.3864C66.0643 17.6534 66.2625 17.0142 66.6588 16.4688C67.0593 15.919 67.5963 15.4929 68.2696 15.1903C68.9471 14.8835 69.7035 14.7301 70.5387 14.7301C71.3825 14.7301 72.1325 14.8814 72.7887 15.1839C73.445 15.4822 73.9649 15.8913 74.3484 16.4112C74.7362 16.9311 74.9407 17.5213 74.962 18.1818H73.4279ZM88.2815 19H86.6962C86.6025 18.544 86.4384 18.1435 86.204 17.7983C85.9739 17.4531 85.6927 17.1634 85.3603 16.929C85.0322 16.6903 84.6678 16.5114 84.2673 16.392C83.8667 16.2727 83.4491 16.2131 83.0144 16.2131C82.2218 16.2131 81.5038 16.4134 80.8603 16.8139C80.2211 17.2145 79.7119 17.8047 79.3326 18.5845C78.9576 19.3643 78.7701 20.321 78.7701 21.4545C78.7701 22.5881 78.9576 23.5447 79.3326 24.3246C79.7119 25.1044 80.2211 25.6946 80.8603 26.0952C81.5038 26.4957 82.2218 26.696 83.0144 26.696C83.4491 26.696 83.8667 26.6364 84.2673 26.517C84.6678 26.3977 85.0322 26.2209 85.3603 25.9865C85.6927 25.7479 85.9739 25.456 86.204 25.1108C86.4384 24.7614 86.6025 24.3608 86.6962 23.9091H88.2815C88.1621 24.5781 87.9448 25.1768 87.6295 25.7053C87.3141 26.2337 86.9221 26.6832 86.4533 27.054C85.9846 27.4205 85.4583 27.6996 84.8745 27.8913C84.295 28.0831 83.6749 28.179 83.0144 28.179C81.8979 28.179 80.905 27.9062 80.0357 27.3608C79.1664 26.8153 78.4825 26.0398 77.9839 25.0341C77.4853 24.0284 77.236 22.8352 77.236 21.4545C77.236 20.0739 77.4853 18.8807 77.9839 17.875C78.4825 16.8693 79.1664 16.0938 80.0357 15.5483C80.905 15.0028 81.8979 14.7301 83.0144 14.7301C83.6749 14.7301 84.295 14.826 84.8745 15.0178C85.4583 15.2095 85.9846 15.4908 86.4533 15.8615C86.9221 16.228 87.3141 16.6754 87.6295 17.2038C87.9448 17.728 88.1621 18.3267 88.2815 19ZM101.889 21.4545C101.889 22.8352 101.639 24.0284 101.141 25.0341C100.642 26.0398 99.9581 26.8153 99.0888 27.3608C98.2195 27.9062 97.2266 28.179 96.1101 28.179C94.9936 28.179 94.0007 27.9062 93.1314 27.3608C92.2621 26.8153 91.5782 26.0398 91.0796 25.0341C90.581 24.0284 90.3317 22.8352 90.3317 21.4545C90.3317 20.0739 90.581 18.8807 91.0796 17.875C91.5782 16.8693 92.2621 16.0938 93.1314 15.5483C94.0007 15.0028 94.9936 14.7301 96.1101 14.7301C97.2266 14.7301 98.2195 15.0028 99.0888 15.5483C99.9581 16.0938 100.642 16.8693 101.141 17.875C101.639 18.8807 101.889 20.0739 101.889 21.4545ZM100.354 21.4545C100.354 20.321 100.165 19.3643 99.7855 18.5845C99.4105 17.8047 98.9013 17.2145 98.2578 16.8139C97.6186 16.4134 96.9027 16.2131 96.1101 16.2131C95.3175 16.2131 94.5995 16.4134 93.956 16.8139C93.3168 17.2145 92.8076 17.8047 92.4283 18.5845C92.0533 19.3643 91.8658 20.321 91.8658 21.4545C91.8658 22.5881 92.0533 23.5447 92.4283 24.3246C92.8076 25.1044 93.3168 25.6946 93.956 26.0952C94.5995 26.4957 95.3175 26.696 96.1101 26.696C96.9027 26.696 97.6186 26.4957 98.2578 26.0952C98.9013 25.6946 99.4105 25.1044 99.7855 24.3246C100.165 23.5447 100.354 22.5881 100.354 21.4545ZM104.554 28V14.9091H108.977C110 14.9091 110.84 15.0838 111.496 15.4332C112.152 15.7784 112.638 16.2536 112.953 16.8587C113.268 17.4638 113.426 18.152 113.426 18.9233C113.426 19.6946 113.268 20.3786 112.953 20.9751C112.638 21.5717 112.154 22.0405 111.502 22.3814C110.85 22.718 110.017 22.8864 109.003 22.8864H105.423V21.4545H108.952C109.651 21.4545 110.213 21.3523 110.639 21.1477C111.07 20.9432 111.381 20.6534 111.572 20.2784C111.768 19.8991 111.867 19.4474 111.867 18.9233C111.867 18.3991 111.768 17.9411 111.572 17.549C111.376 17.157 111.063 16.8544 110.633 16.6413C110.202 16.424 109.634 16.3153 108.926 16.3153H106.139V28H104.554ZM110.716 22.1193L113.938 28H112.097L108.926 22.1193H110.716ZM120.107 28H116.068V14.9091H120.286C121.556 14.9091 122.643 15.1712 123.546 15.6953C124.45 16.2152 125.142 16.9631 125.624 17.9389C126.105 18.9105 126.346 20.0739 126.346 21.429C126.346 22.7926 126.103 23.9666 125.617 24.951C125.132 25.9311 124.424 26.6854 123.495 27.2138C122.566 27.7379 121.437 28 120.107 28ZM117.653 26.5938H120.005C121.088 26.5938 121.985 26.3849 122.696 25.9673C123.408 25.5497 123.938 24.9553 124.288 24.1839C124.637 23.4126 124.812 22.4943 124.812 21.429C124.812 20.3722 124.639 19.4624 124.294 18.6996C123.949 17.9325 123.433 17.3445 122.747 16.9354C122.061 16.522 121.207 16.3153 120.184 16.3153H117.653V26.5938Z" fill="#1E1E24"/>
</svg>
