<svg width="155" height="42" viewBox="0 0 155 42" fill="none" xmlns="http://www.w3.org/2000/svg">
<rect width="155" height="42" rx="5" fill="#4ECDC4"/>
<rect x="10" y="11" width="19" height="20" rx="9.5" fill="#1E1E24"/>
<path d="M21.6793 16.0526L24.0316 20.0668L26.3838 16.0526H28.1225L24.952 20.9617L28.1225 25.8708H26.3838L24.0316 22.0611L21.6793 25.8708H19.9406L23.06 20.9617L19.9406 16.0526H21.6793Z" fill="#4ECDC4"/>
<path d="M15.4542 26.0753C14.5082 26.0753 13.6921 25.8665 13.0061 25.4489C12.3242 25.027 11.798 24.4389 11.4272 23.6847C11.0607 22.9262 10.8775 22.0441 10.8775 21.0384C10.8775 20.0327 11.0607 19.1463 11.4272 18.3793C11.798 17.608 12.3136 17.0071 12.9741 16.5767C13.6389 16.1421 14.4144 15.9247 15.3008 15.9247C15.8122 15.9247 16.3171 16.01 16.8157 16.1804C17.3143 16.3509 17.7681 16.6279 18.1772 17.0114C18.5863 17.3907 18.9123 17.8935 19.1552 18.5199C19.3981 19.1463 19.5195 19.9176 19.5195 20.8338V21.473H11.9514V20.1691H17.9855C17.9855 19.6151 17.8747 19.1208 17.6531 18.6861C17.4357 18.2514 17.1247 17.9084 16.7198 17.657C16.3193 17.4056 15.8463 17.2799 15.3008 17.2799C14.6999 17.2799 14.1801 17.429 13.7411 17.7273C13.3065 18.0213 12.972 18.4049 12.7376 18.8779C12.5032 19.3509 12.386 19.858 12.386 20.3992V21.2685C12.386 22.01 12.5139 22.6385 12.7695 23.1541C13.0295 23.6655 13.3896 24.0554 13.8498 24.3239C14.31 24.5881 14.8448 24.7202 15.4542 24.7202C15.8505 24.7202 16.2085 24.6648 16.5281 24.554C16.8519 24.4389 17.1311 24.2685 17.3654 24.0426C17.5998 23.8125 17.7809 23.527 17.9088 23.1861L19.3661 23.5952C19.2127 24.0895 18.9549 24.5242 18.5927 24.8992C18.2305 25.2699 17.783 25.5597 17.2504 25.7685C16.7177 25.973 16.119 26.0753 15.4542 26.0753Z" fill="#4ECDC4"/>
<path d="M40.5852 28V14.9091H48.4858V16.3153H42.1705V20.7386H48.0767V22.1449H42.1705V26.5938H48.5881V28H40.5852ZM52.1101 14.9091L55.4851 20.3551H55.5874L58.9624 14.9091H60.8288L56.7124 21.4545L60.8288 28H58.9624L55.5874 22.6562H55.4851L52.1101 28H50.2436L54.4624 21.4545L50.2436 14.9091H52.1101ZM62.8919 28V14.9091H67.3152C68.3422 14.9091 69.1816 15.0945 69.8336 15.4652C70.4899 15.8317 70.9757 16.3281 71.291 16.9545C71.6064 17.581 71.764 18.2798 71.764 19.0511C71.764 19.8224 71.6064 20.5234 71.291 21.1541C70.9799 21.7848 70.4984 22.2876 69.8464 22.6626C69.1944 23.0334 68.3592 23.2188 67.3407 23.2188H64.1703V21.8125H67.2896C67.9927 21.8125 68.5574 21.6911 68.9835 21.4482C69.4096 21.2053 69.7186 20.8771 69.9103 20.4638C70.1064 20.0462 70.2044 19.5753 70.2044 19.0511C70.2044 18.527 70.1064 18.0582 69.9103 17.6449C69.7186 17.2315 69.4075 16.9077 68.9771 16.6733C68.5467 16.4347 67.9757 16.3153 67.264 16.3153H64.4771V28H62.8919ZM74.3176 28V14.9091H78.7409C79.7637 14.9091 80.6032 15.0838 81.2594 15.4332C81.9157 15.7784 82.4015 16.2536 82.7168 16.8587C83.0321 17.4638 83.1898 18.152 83.1898 18.9233C83.1898 19.6946 83.0321 20.3786 82.7168 20.9751C82.4015 21.5717 81.9178 22.0405 81.2658 22.3814C80.6138 22.718 79.7807 22.8864 78.7665 22.8864H75.187V21.4545H78.7154C79.4142 21.4545 79.9767 21.3523 80.4029 21.1477C80.8333 20.9432 81.1444 20.6534 81.3361 20.2784C81.5321 19.8991 81.6301 19.4474 81.6301 18.9233C81.6301 18.3991 81.5321 17.9411 81.3361 17.549C81.1401 17.157 80.8269 16.8544 80.3965 16.6413C79.9661 16.424 79.3972 16.3153 78.6898 16.3153H75.9029V28H74.3176ZM80.4796 22.1193L83.7012 28H81.8603L78.6898 22.1193H80.4796ZM85.8313 28V14.9091H93.7319V16.3153H87.4165V20.7386H93.3228V22.1449H87.4165V26.5938H93.8342V28H85.8313ZM103.748 18.1818C103.672 17.5341 103.36 17.0312 102.815 16.6733C102.27 16.3153 101.6 16.1364 100.808 16.1364C100.228 16.1364 99.7212 16.2301 99.2866 16.4176C98.8562 16.6051 98.5195 16.8629 98.2766 17.1911C98.038 17.5192 97.9187 17.892 97.9187 18.3097C97.9187 18.6591 98.0018 18.9595 98.168 19.2109C98.3384 19.4581 98.5558 19.6648 98.82 19.831C99.0842 19.9929 99.3612 20.1271 99.6509 20.2337C99.9407 20.3359 100.207 20.419 100.45 20.483L101.779 20.8409C102.12 20.9304 102.5 21.054 102.917 21.2116C103.339 21.3693 103.742 21.5845 104.125 21.8572C104.513 22.1257 104.833 22.4709 105.084 22.8928C105.336 23.3146 105.461 23.8324 105.461 24.446C105.461 25.1534 105.276 25.7926 104.905 26.3636C104.539 26.9347 104.002 27.3885 103.294 27.7251C102.591 28.0618 101.737 28.2301 100.731 28.2301C99.7937 28.2301 98.9819 28.0788 98.2958 27.7763C97.614 27.4737 97.0771 27.0518 96.685 26.5107C96.2972 25.9695 96.0778 25.3409 96.0266 24.625H97.663C97.7056 25.1193 97.8718 25.5284 98.1616 25.8523C98.4556 26.1719 98.8263 26.4105 99.2738 26.5682C99.7255 26.7216 100.211 26.7983 100.731 26.7983C101.336 26.7983 101.88 26.7003 102.361 26.5043C102.843 26.304 103.224 26.027 103.505 25.6733C103.787 25.3153 103.927 24.8977 103.927 24.4205C103.927 23.9858 103.806 23.6321 103.563 23.3594C103.32 23.0866 103 22.8651 102.604 22.6946C102.208 22.5241 101.779 22.375 101.319 22.2472L99.7085 21.7869C98.6857 21.4929 97.8761 21.0732 97.2795 20.5277C96.6829 19.9822 96.3846 19.2685 96.3846 18.3864C96.3846 17.6534 96.5827 17.0142 96.979 16.4688C97.3796 15.919 97.9165 15.4929 98.5898 15.1903C99.2674 14.8835 100.024 14.7301 100.859 14.7301C101.703 14.7301 102.453 14.8814 103.109 15.1839C103.765 15.4822 104.285 15.8913 104.669 16.4112C105.056 16.9311 105.261 17.5213 105.282 18.1818H103.748ZM115.227 18.1818C115.15 17.5341 114.839 17.0312 114.294 16.6733C113.748 16.3153 113.079 16.1364 112.286 16.1364C111.707 16.1364 111.2 16.2301 110.765 16.4176C110.335 16.6051 109.998 16.8629 109.755 17.1911C109.517 17.5192 109.397 17.892 109.397 18.3097C109.397 18.6591 109.48 18.9595 109.646 19.2109C109.817 19.4581 110.034 19.6648 110.298 19.831C110.563 19.9929 110.84 20.1271 111.129 20.2337C111.419 20.3359 111.686 20.419 111.928 20.483L113.258 20.8409C113.599 20.9304 113.978 21.054 114.396 21.2116C114.818 21.3693 115.22 21.5845 115.604 21.8572C115.992 22.1257 116.311 22.4709 116.563 22.8928C116.814 23.3146 116.94 23.8324 116.94 24.446C116.94 25.1534 116.754 25.7926 116.384 26.3636C116.017 26.9347 115.48 27.3885 114.773 27.7251C114.07 28.0618 113.215 28.2301 112.21 28.2301C111.272 28.2301 110.46 28.0788 109.774 27.7763C109.093 27.4737 108.556 27.0518 108.164 26.5107C107.776 25.9695 107.556 25.3409 107.505 24.625H109.142C109.184 25.1193 109.35 25.5284 109.64 25.8523C109.934 26.1719 110.305 26.4105 110.752 26.5682C111.204 26.7216 111.69 26.7983 112.21 26.7983C112.815 26.7983 113.358 26.7003 113.84 26.5043C114.321 26.304 114.703 26.027 114.984 25.6733C115.265 25.3153 115.406 24.8977 115.406 24.4205C115.406 23.9858 115.284 23.6321 115.041 23.3594C114.798 23.0866 114.479 22.8651 114.083 22.6946C113.686 22.5241 113.258 22.375 112.798 22.2472L111.187 21.7869C110.164 21.4929 109.355 21.0732 108.758 20.5277C108.161 19.9822 107.863 19.2685 107.863 18.3864C107.863 17.6534 108.061 17.0142 108.458 16.4688C108.858 15.919 109.395 15.4929 110.068 15.1903C110.746 14.8835 111.502 14.7301 112.338 14.7301C113.181 14.7301 113.931 14.8814 114.588 15.1839C115.244 15.4822 115.764 15.8913 116.147 16.4112C116.535 16.9311 116.74 17.5213 116.761 18.1818H115.227ZM120.441 28.1023C120.126 28.1023 119.855 27.9893 119.629 27.7635C119.403 27.5376 119.29 27.267 119.29 26.9517C119.29 26.6364 119.403 26.3658 119.629 26.1399C119.855 25.9141 120.126 25.8011 120.441 25.8011C120.756 25.8011 121.027 25.9141 121.253 26.1399C121.479 26.3658 121.592 26.6364 121.592 26.9517C121.592 27.1605 121.538 27.3523 121.432 27.527C121.33 27.7017 121.191 27.8423 121.016 27.9489C120.846 28.0511 120.654 28.1023 120.441 28.1023ZM129.515 14.9091H131.1V24.267C131.1 25.1023 130.946 25.8118 130.64 26.3956C130.333 26.9794 129.9 27.4226 129.342 27.7251C128.784 28.0277 128.125 28.179 127.367 28.179C126.651 28.179 126.014 28.049 125.456 27.7891C124.897 27.5249 124.458 27.1499 124.139 26.6641C123.819 26.1783 123.659 25.6009 123.659 24.9318H125.219C125.219 25.3026 125.311 25.6264 125.494 25.9034C125.681 26.1761 125.937 26.3892 126.261 26.5426C126.585 26.696 126.953 26.7727 127.367 26.7727C127.823 26.7727 128.211 26.6768 128.53 26.4851C128.85 26.2933 129.093 26.0121 129.259 25.6413C129.429 25.2663 129.515 24.8082 129.515 24.267V14.9091ZM141.436 18.1818C141.359 17.5341 141.048 17.0312 140.502 16.6733C139.957 16.3153 139.288 16.1364 138.495 16.1364C137.916 16.1364 137.409 16.2301 136.974 16.4176C136.544 16.6051 136.207 16.8629 135.964 17.1911C135.725 17.5192 135.606 17.892 135.606 18.3097C135.606 18.6591 135.689 18.9595 135.855 19.2109C136.026 19.4581 136.243 19.6648 136.507 19.831C136.772 19.9929 137.049 20.1271 137.338 20.2337C137.628 20.3359 137.895 20.419 138.137 20.483L139.467 20.8409C139.808 20.9304 140.187 21.054 140.605 21.2116C141.027 21.3693 141.429 21.5845 141.813 21.8572C142.201 22.1257 142.52 22.4709 142.772 22.8928C143.023 23.3146 143.149 23.8324 143.149 24.446C143.149 25.1534 142.963 25.7926 142.593 26.3636C142.226 26.9347 141.689 27.3885 140.982 27.7251C140.279 28.0618 139.424 28.2301 138.419 28.2301C137.481 28.2301 136.669 28.0788 135.983 27.7763C135.301 27.4737 134.765 27.0518 134.373 26.5107C133.985 25.9695 133.765 25.3409 133.714 24.625H135.35C135.393 25.1193 135.559 25.5284 135.849 25.8523C136.143 26.1719 136.514 26.4105 136.961 26.5682C137.413 26.7216 137.899 26.7983 138.419 26.7983C139.024 26.7983 139.567 26.7003 140.049 26.5043C140.53 26.304 140.912 26.027 141.193 25.6733C141.474 25.3153 141.615 24.8977 141.615 24.4205C141.615 23.9858 141.493 23.6321 141.25 23.3594C141.007 23.0866 140.688 22.8651 140.292 22.6946C139.895 22.5241 139.467 22.375 139.007 22.2472L137.396 21.7869C136.373 21.4929 135.564 21.0732 134.967 20.5277C134.37 19.9822 134.072 19.2685 134.072 18.3864C134.072 17.6534 134.27 17.0142 134.667 16.4688C135.067 15.919 135.604 15.4929 136.277 15.1903C136.955 14.8835 137.711 14.7301 138.547 14.7301C139.39 14.7301 140.14 14.8814 140.797 15.1839C141.453 15.4822 141.973 15.8913 142.356 16.4112C142.744 16.9311 142.949 17.5213 142.97 18.1818H141.436Z" fill="#1E1E24"/>
</svg>
