<svg width="103" height="43" viewBox="0 0 103 43" fill="none" xmlns="http://www.w3.org/2000/svg">
<rect width="102.581" height="43" rx="5" fill="#EDDDCC"/>
<path fill-rule="evenodd" clip-rule="evenodd" d="M10 14.0806C10 11.827 11.827 10 14.0806 10H18.1613V18.1613H14.0806C11.827 18.1613 10 16.3343 10 14.0806ZM14.0806 10.7419C12.2367 10.7419 10.7419 12.2367 10.7419 14.0806C10.7419 15.9246 12.2367 17.4194 14.0806 17.4194H17.4194V10.7419H14.0806Z" fill="#1E1E24"/>
<path fill-rule="evenodd" clip-rule="evenodd" d="M25.5807 14.0806C25.5807 11.827 23.7537 10 21.5 10H17.4194V18.1613H21.5C23.7537 18.1613 25.5807 16.3343 25.5807 14.0806ZM21.5 10.7419C23.3439 10.7419 24.8387 12.2367 24.8387 14.0806C24.8387 15.9246 23.3439 17.4194 21.5 17.4194H18.1613V10.7419H21.5Z" fill="#1E1E24"/>
<path fill-rule="evenodd" clip-rule="evenodd" d="M25.5807 21.5C25.5807 19.2463 23.7537 17.4193 21.5 17.4193C19.2463 17.4193 17.4194 19.2463 17.4194 21.5C17.4194 23.7536 19.2463 25.5806 21.5 25.5806C23.7537 25.5806 25.5807 23.7536 25.5807 21.5ZM21.5 18.1612C23.3439 18.1612 24.8387 19.656 24.8387 21.5C24.8387 23.3439 23.3439 24.8387 21.5 24.8387C19.6561 24.8387 18.1613 23.3439 18.1613 21.5C18.1613 19.656 19.6561 18.1612 21.5 18.1612Z" fill="#1E1E24"/>
<path fill-rule="evenodd" clip-rule="evenodd" d="M10 21.5C10 19.2463 11.827 17.4193 14.0806 17.4193H18.1613V25.5806H14.0806C11.827 25.5806 10 23.7536 10 21.5ZM14.0806 18.1612C12.2367 18.1612 10.7419 19.656 10.7419 21.5C10.7419 23.3439 12.2367 24.8387 14.0806 24.8387H17.4194V18.1612H14.0806Z" fill="#1E1E24"/>
<path fill-rule="evenodd" clip-rule="evenodd" d="M10 28.9194C10 26.6657 11.827 24.8387 14.0806 24.8387H18.1613V28.9194C18.1613 31.1731 16.3343 33 14.0806 33C11.827 33 10 31.1731 10 28.9194ZM14.0806 25.5807C12.2367 25.5807 10.7419 27.0755 10.7419 28.9194C10.7419 30.7633 12.2367 32.2581 14.0806 32.2581C15.9246 32.2581 17.4194 30.7633 17.4194 28.9194V25.5807H14.0806Z" fill="#1E1E24"/>
<path d="M37.1659 28.5V15.4091H45.0153V16.8153H38.7511V21.2386H44.4272V22.6449H38.7511V28.5H37.1659ZM49.3156 15.4091V28.5H47.7303V15.4091H49.3156ZM61.4429 19.5C61.3022 19.0696 61.1169 18.6839 60.8868 18.343C60.6609 17.9979 60.3903 17.7038 60.075 17.4609C59.7639 17.218 59.4102 17.0327 59.0139 16.9048C58.6176 16.777 58.1829 16.7131 57.7099 16.7131C56.9344 16.7131 56.2291 16.9134 55.5942 17.3139C54.9592 17.7145 54.4542 18.3047 54.0792 19.0845C53.7042 19.8643 53.5167 20.821 53.5167 21.9545C53.5167 23.0881 53.7064 24.0447 54.0856 24.8246C54.4649 25.6044 54.9784 26.1946 55.6261 26.5952C56.2738 26.9957 57.0025 27.196 57.8122 27.196C58.5622 27.196 59.2227 27.0362 59.7937 26.7166C60.369 26.3928 60.8165 25.9368 61.1361 25.3487C61.4599 24.7564 61.6219 24.0597 61.6219 23.2585L62.1076 23.3608H58.1701V21.9545H63.1559V23.3608C63.1559 24.4389 62.9258 25.3764 62.4656 26.1733C62.0096 26.9702 61.379 27.5881 60.5736 28.027C59.7724 28.4616 58.852 28.679 57.8122 28.679C56.6531 28.679 55.6346 28.4062 54.7568 27.8608C53.8832 27.3153 53.2014 26.5398 52.7113 25.5341C52.2255 24.5284 51.9826 23.3352 51.9826 21.9545C51.9826 20.919 52.1211 19.9879 52.3981 19.1612C52.6794 18.3303 53.0757 17.6229 53.5871 17.0391C54.0984 16.4553 54.7035 16.0078 55.4024 15.6967C56.1013 15.3857 56.8704 15.2301 57.7099 15.2301C58.4003 15.2301 59.0437 15.3345 59.6403 15.5433C60.2412 15.7479 60.776 16.0398 61.2447 16.419C61.7177 16.794 62.1119 17.2436 62.4272 17.7678C62.7426 18.2876 62.9599 18.8651 63.0792 19.5H61.4429ZM65.871 15.4091H67.763L72.2119 26.2756H72.3653L76.8141 15.4091H78.7062V28.5H77.2232V18.554H77.0954L73.0045 28.5H71.5727L67.4818 18.554H67.3539V28.5H65.871V15.4091ZM82.4216 28.5H80.7596L85.5665 15.4091H87.2028L92.0096 28.5H90.3477L86.4358 17.4801H86.3335L82.4216 28.5ZM83.0352 23.3864H89.7341V24.7926H83.0352V23.3864Z" fill="#1E1E24"/>
</svg>
