<svg width="50" height="38" viewBox="0 0 50 38" fill="none" xmlns="http://www.w3.org/2000/svg">
<rect y="0.0820923" width="50" height="37.7051" rx="5" fill="#F3A63B"/>
<g clip-path="url(#clip0_5_70)">
<path d="M17.0947 16.9766C17.0947 16.4883 17.3974 16.1856 17.9052 16.1856H19.6631V14.4766C19.6631 13.9786 19.9463 13.6758 20.4345 13.6758C20.9131 13.6758 21.206 13.9786 21.206 14.4766V16.1856H22.8564C23.4033 16.1856 23.7256 16.4883 23.7256 16.9766C23.7256 17.4844 23.4033 17.7969 22.8564 17.7969H21.206V19.5059C21.206 20.004 20.9131 20.3165 20.4345 20.3165C19.9463 20.3165 19.6631 20.004 19.6631 19.5059V17.7969H17.9052C17.3974 17.7969 17.0947 17.4844 17.0947 16.9766ZM26.6943 18.3438C26.6943 17.543 27.3193 16.9278 28.1006 16.9278C28.8916 16.9278 29.5068 17.543 29.5068 18.3438C29.5068 19.1348 28.8916 19.7501 28.1006 19.7501C27.3193 19.7501 26.6943 19.1348 26.6943 18.3438ZM29.5752 15.4532C29.5752 14.6524 30.1904 14.0372 30.9717 14.0372C31.7724 14.0372 32.3779 14.6524 32.3779 15.4532C32.3779 16.2442 31.7724 16.8497 30.9717 16.8497C30.1904 16.8497 29.5752 16.2442 29.5752 15.4532ZM14.624 27.7872C15.9619 27.7872 16.8798 27.2989 17.7002 26.2833L19.4677 24.1446C19.7217 23.8419 20.0146 23.6954 20.3076 23.6954H29.6924C29.9853 23.6954 30.2783 23.8419 30.5322 24.1446L32.2998 26.2833C33.1201 27.2989 34.0381 27.7872 35.376 27.7872C37.6123 27.7872 39.0967 26.3028 39.0967 24.0176C39.0967 23.0411 38.8721 21.918 38.4912 20.6583C37.8955 18.6563 36.8506 15.9317 35.8545 13.8223C35.0146 12.0645 34.5849 11.2637 32.5146 10.795C30.6787 10.3751 28.1299 10.0919 25.0049 10.0919C21.8799 10.0919 19.3213 10.3751 17.4853 10.795C15.415 11.2637 14.9853 12.0645 14.1455 13.8223C13.1494 15.9317 12.1045 18.6563 11.5088 20.6583C11.1279 21.918 10.9033 23.0411 10.9033 24.0176C10.9033 26.3028 12.3877 27.7872 14.624 27.7872Z" fill="#1E1E24"/>
</g>
<defs>
<clipPath id="clip0_5_70">
<rect width="28.1934" height="17.7051" fill="white" transform="translate(10.9033 10.0821)"/>
</clipPath>
</defs>
</svg>
