<svg width="80" height="42" viewBox="0 0 80 42" fill="none" xmlns="http://www.w3.org/2000/svg">
<rect width="80.0005" height="42" rx="5" fill="#4ECDC4"/>
<path d="M29.6237 20.1093L20.8911 11.3776C20.7715 11.2579 20.6295 11.1629 20.4731 11.0981C20.3168 11.0333 20.1492 11 19.98 11C19.8108 11 19.6432 11.0333 19.4869 11.0981C19.3305 11.1629 19.1885 11.2579 19.0689 11.3776L17.2562 13.1911L19.556 15.4909C19.8264 15.399 20.1171 15.3847 20.3952 15.4495C20.6733 15.5142 20.9277 15.6555 21.1297 15.8574C21.3328 16.0607 21.4746 16.3171 21.5388 16.5972C21.603 16.8773 21.5872 17.1698 21.493 17.4413L23.7103 19.6579C23.9818 19.5636 24.2745 19.5477 24.5547 19.6121C24.8348 19.6764 25.0912 19.8185 25.2944 20.0218C25.4367 20.1641 25.5496 20.3331 25.6266 20.519C25.7037 20.7049 25.7433 20.9042 25.7433 21.1054C25.7433 21.3067 25.7037 21.506 25.6266 21.6919C25.5496 21.8778 25.4367 22.0468 25.2944 22.1891C25.0067 22.4765 24.6166 22.6379 24.2099 22.6379C23.8032 22.6379 23.4131 22.4765 23.1254 22.1891C22.9117 21.975 22.766 21.7024 22.7069 21.4057C22.6477 21.1091 22.6776 20.8015 22.7928 20.5218L20.7251 18.4547V23.8955C20.9433 24.0033 21.1327 24.1616 21.2776 24.3571C21.4225 24.5527 21.5188 24.78 21.5583 25.0202C21.5979 25.2604 21.5797 25.5066 21.5052 25.7383C21.4307 25.9701 21.302 26.1807 21.1299 26.3528C20.9876 26.4952 20.8187 26.6081 20.6327 26.6851C20.4468 26.7621 20.2475 26.8017 20.0463 26.8017C19.845 26.8017 19.6457 26.7621 19.4598 26.6851C19.2739 26.6081 19.105 26.4952 18.9627 26.3528C18.8203 26.2105 18.7074 26.0416 18.6303 25.8556C18.5533 25.6697 18.5136 25.4704 18.5136 25.2691C18.5136 25.0678 18.5533 24.8685 18.6303 24.6826C18.7074 24.4966 18.8203 24.3277 18.9627 24.1854C19.1061 24.0417 19.2765 23.9279 19.4641 23.8504V18.3596C19.2773 18.2826 19.1074 18.1695 18.9644 18.0267C18.8214 17.8839 18.708 17.7142 18.6307 17.5275C18.5535 17.3407 18.5139 17.1405 18.5142 16.9384C18.5145 16.7363 18.5548 16.5362 18.6327 16.3497L16.3651 14.0817L10.3768 20.0684C10.1355 20.3102 10 20.6378 10 20.9794C10 21.321 10.1355 21.6486 10.3768 21.8904L19.1098 30.6233C19.3516 30.8645 19.6792 31 20.0207 31C20.3622 31 20.6898 30.8645 20.9316 30.6233L29.6237 21.9313C29.865 21.6896 30.0005 21.3619 30.0005 21.0203C30.0005 20.6787 29.865 20.3511 29.6237 20.1093Z" fill="#1E1E24"/>
<path d="M50.5346 19C50.394 18.5696 50.2086 18.1839 49.9785 17.843C49.7526 17.4979 49.482 17.2038 49.1667 16.9609C48.8556 16.718 48.5019 16.5327 48.1056 16.4048C47.7093 16.277 47.2746 16.2131 46.8016 16.2131C46.0261 16.2131 45.3208 16.4134 44.6859 16.8139C44.0509 17.2145 43.5459 17.8047 43.1709 18.5845C42.7959 19.3643 42.6084 20.321 42.6084 21.4545C42.6084 22.5881 42.7981 23.5447 43.1773 24.3246C43.5566 25.1044 44.0701 25.6946 44.7178 26.0952C45.3655 26.4957 46.0942 26.696 46.9039 26.696C47.6539 26.696 48.3144 26.5362 48.8854 26.2166C49.4607 25.8928 49.9082 25.4368 50.2278 24.8487C50.5516 24.2564 50.7136 23.5597 50.7136 22.7585L51.1994 22.8608H47.2619V21.4545H52.2476V22.8608C52.2476 23.9389 52.0175 24.8764 51.5573 25.6733C51.1013 26.4702 50.4707 27.0881 49.6653 27.527C48.8641 27.9616 47.9437 28.179 46.9039 28.179C45.7448 28.179 44.7263 27.9062 43.8485 27.3608C42.9749 26.8153 42.2931 26.0398 41.803 25.0341C41.3172 24.0284 41.0744 22.8352 41.0744 21.4545C41.0744 20.419 41.2128 19.4879 41.4898 18.6612C41.7711 17.8303 42.1674 17.1229 42.6788 16.5391C43.1901 15.9553 43.7952 15.5078 44.4941 15.1967C45.193 14.8857 45.9621 14.7301 46.8016 14.7301C47.492 14.7301 48.1354 14.8345 48.732 15.0433C49.3329 15.2479 49.8677 15.5398 50.3364 15.919C50.8094 16.294 51.2036 16.7436 51.519 17.2678C51.8343 17.7876 52.0516 18.3651 52.1709 19H50.5346ZM56.5479 14.9091V28H54.9627V14.9091H56.5479ZM59.0104 16.3153V14.9091H68.8286V16.3153H64.7121V28H63.1269V16.3153H59.0104Z" fill="#1E1E24"/>
</svg>
