<svg width="122" height="42" viewBox="0 0 122 42" fill="none" xmlns="http://www.w3.org/2000/svg">
<rect width="121.857" height="42" rx="5" fill="#4ECDC4"/>
<path fill-rule="evenodd" clip-rule="evenodd" d="M10.5361 13.2459C10 14.149 10 15.3355 10 17.7083V24.2917C10 26.6645 10 27.851 10.5361 28.7541C10.9879 29.5151 11.6971 30.1356 12.5668 30.5309C13.5989 31 14.9548 31 17.6667 31H18.568C18.5696 30.8402 18.5862 29.1656 18.5805 28.3062C15.4015 28.9103 14.7308 26.9655 14.7308 26.9655C14.2109 25.8108 13.4616 25.5032 13.4616 25.5032C12.424 24.8825 13.5402 24.8948 13.5402 24.8948C14.6873 24.966 15.2907 25.9256 15.2907 25.9256C16.3101 27.4535 17.9659 27.0121 18.6169 26.7568C18.7208 26.1103 19.0154 25.6696 19.3424 25.4197C16.8047 25.1674 14.1366 24.3092 14.1366 20.4773C14.1366 19.3858 14.5821 18.4932 15.3131 17.7939C15.1953 17.541 14.8031 16.5244 15.4247 15.1474C15.4247 15.1474 16.3845 14.8786 18.5678 16.1726C19.4792 15.951 20.4572 15.8399 21.4289 15.8362C22.3992 15.8399 23.3772 15.951 24.29 16.1726C26.472 14.8786 27.4296 15.1474 27.4296 15.1474C28.0533 16.5244 27.6611 17.541 27.5433 17.7939C28.2757 18.4932 28.7184 19.3858 28.7184 20.4773C28.7184 24.319 26.0461 25.1643 23.5 25.4117C23.9104 25.7205 24.276 26.3307 24.276 27.2638C24.276 28.4623 24.2889 30.8097 24.2899 31H25.1905C27.9023 31 29.2583 31 30.2904 30.5309C31.1601 30.1356 31.8692 29.5151 32.321 28.7541C32.8571 27.851 32.8571 26.6645 32.8571 24.2917V17.7083C32.8571 15.3355 32.8571 14.149 32.321 13.2459C31.8692 12.4849 31.1601 11.8644 30.2904 11.4691C29.2583 11 27.9023 11 25.1905 11H17.6667C14.9548 11 13.5989 11 12.5668 11.4691C11.6971 11.8644 10.9879 12.4849 10.5361 13.2459Z" fill="#1E1E24"/>
<path fill-rule="evenodd" clip-rule="evenodd" d="M18.5678 31.0123C18.5678 31.0123 18.5865 29.2092 18.5805 28.3062C15.4015 28.9103 14.7308 26.9655 14.7308 26.9655C14.2109 25.8107 13.4616 25.5032 13.4616 25.5032C12.424 24.8825 13.5402 24.8948 13.5402 24.8948C14.6873 24.966 15.2907 25.9255 15.2907 25.9255C16.3101 27.4535 17.9659 27.0121 18.6169 26.7568C18.7208 26.1103 19.0154 25.6696 19.3424 25.4197C16.8047 25.1674 14.1366 24.3092 14.1366 20.4773C14.1366 19.3858 14.5821 18.4932 15.3131 17.7939C15.1953 17.541 14.8031 16.5244 15.4247 15.1474C15.4247 15.1474 16.3845 14.8786 18.5678 16.1726C19.4792 15.951 20.4572 15.8399 21.4289 15.8362C22.3992 15.8399 23.3772 15.951 24.29 16.1726C26.4719 14.8786 27.4296 15.1474 27.4296 15.1474C28.0533 16.5244 27.6611 17.541 27.5433 17.7939C28.2757 18.4932 28.7184 19.3858 28.7184 20.4773C28.7184 24.319 26.0461 25.1643 23.5 25.4117C23.9104 25.7205 24.276 26.3307 24.276 27.2638C24.276 28.5135 24.29 31.0123 24.29 31.0123H18.5678Z" fill="#4ECDC4"/>
<path d="M53.3912 19C53.2506 18.5696 53.0652 18.1839 52.8351 17.843C52.6093 17.4979 52.3387 17.2038 52.0233 16.9609C51.7123 16.718 51.3586 16.5327 50.9623 16.4048C50.566 16.277 50.1313 16.2131 49.6583 16.2131C48.8827 16.2131 48.1775 16.4134 47.5425 16.8139C46.9076 17.2145 46.4026 17.8047 46.0276 18.5845C45.6526 19.3643 45.4651 20.321 45.4651 21.4545C45.4651 22.5881 45.6547 23.5447 46.034 24.3246C46.4133 25.1044 46.9267 25.6946 47.5745 26.0952C48.2222 26.4957 48.9509 26.696 49.7606 26.696C50.5106 26.696 51.1711 26.5362 51.7421 26.2166C52.3174 25.8928 52.7648 25.4368 53.0844 24.8487C53.4083 24.2564 53.5702 23.5597 53.5702 22.7585L54.056 22.8608H50.1185V21.4545H55.1043V22.8608C55.1043 23.9389 54.8742 24.8764 54.414 25.6733C53.958 26.4702 53.3273 27.0881 52.5219 27.527C51.7208 27.9616 50.8003 28.179 49.7606 28.179C48.6015 28.179 47.583 27.9062 46.7052 27.3608C45.8316 26.8153 45.1498 26.0398 44.6597 25.0341C44.1739 24.0284 43.931 22.8352 43.931 21.4545C43.931 20.419 44.0695 19.4879 44.3465 18.6612C44.6277 17.8303 45.0241 17.1229 45.5354 16.5391C46.0468 15.9553 46.6519 15.5078 47.3508 15.1967C48.0496 14.8857 48.8188 14.7301 49.6583 14.7301C50.3486 14.7301 50.9921 14.8345 51.5887 15.0433C52.1895 15.2479 52.7243 15.5398 53.1931 15.919C53.6661 16.294 54.0603 16.7436 54.3756 17.2678C54.691 17.7876 54.9083 18.3651 55.0276 19H53.3912ZM59.4046 14.9091V28H57.8193V14.9091H59.4046ZM61.8671 16.3153V14.9091H71.6853V16.3153H67.5688V28H65.9836V16.3153H61.8671ZM74.1318 28V14.9091H75.7171V20.7386H82.6972V14.9091H84.2824V28H82.6972V22.1449H75.7171V28H74.1318ZM96.047 14.9091H97.6322V23.5767C97.6322 24.4716 97.4212 25.2706 96.9994 25.9737C96.5818 26.6726 95.9916 27.2244 95.2288 27.6293C94.466 28.0298 93.5711 28.2301 92.5441 28.2301C91.5171 28.2301 90.6222 28.0298 89.8595 27.6293C89.0967 27.2244 88.5043 26.6726 88.0825 25.9737C87.6649 25.2706 87.456 24.4716 87.456 23.5767V14.9091H89.0413V23.4489C89.0413 24.0881 89.1819 24.657 89.4631 25.1555C89.7444 25.6499 90.145 26.0398 90.6649 26.3253C91.189 26.6065 91.8154 26.7472 92.5441 26.7472C93.2728 26.7472 93.8992 26.6065 94.4234 26.3253C94.9475 26.0398 95.3481 25.6499 95.6251 25.1555C95.9063 24.657 96.047 24.0881 96.047 23.4489V14.9091ZM100.798 28V14.9091H105.375C106.286 14.9091 107.039 15.0668 107.631 15.3821C108.223 15.6932 108.664 16.1129 108.954 16.6413C109.244 17.1655 109.389 17.7472 109.389 18.3864C109.389 18.9489 109.289 19.4134 109.088 19.7798C108.892 20.1463 108.632 20.4361 108.308 20.6491C107.989 20.8622 107.642 21.0199 107.267 21.1222V21.25C107.667 21.2756 108.07 21.4162 108.475 21.6719C108.88 21.9276 109.218 22.294 109.491 22.7713C109.764 23.2486 109.9 23.8324 109.9 24.5227C109.9 25.179 109.751 25.7692 109.453 26.2933C109.154 26.8175 108.683 27.233 108.04 27.5398C107.397 27.8466 106.559 28 105.528 28H100.798ZM102.383 26.5938H105.528C106.563 26.5938 107.299 26.3935 107.733 25.9929C108.172 25.5881 108.392 25.098 108.392 24.5227C108.392 24.0795 108.279 23.6705 108.053 23.2955C107.827 22.9162 107.505 22.6136 107.088 22.3878C106.67 22.1577 106.176 22.0426 105.605 22.0426H102.383V26.5938ZM102.383 20.6619H105.323C105.801 20.6619 106.231 20.5682 106.615 20.3807C107.002 20.1932 107.309 19.929 107.535 19.5881C107.765 19.2472 107.88 18.8466 107.88 18.3864C107.88 17.8111 107.68 17.3232 107.279 16.9226C106.879 16.5178 106.244 16.3153 105.375 16.3153H102.383V20.6619Z" fill="#1E1E24"/>
</svg>
