<svg width="50" height="42" viewBox="0 0 50 42" fill="none" xmlns="http://www.w3.org/2000/svg">
<rect y="0.787201" width="50" height="40.5762" rx="5" fill="#EDDDCC"/>
<g clip-path="url(#clip0_5_71)">
<path d="M23.2373 14.9571H24.8095V11.5782C24.8095 11.1485 24.4482 10.7872 24.0185 10.7872C23.5888 10.7872 23.2373 11.1485 23.2373 11.5782V14.9571ZM17.0654 23.2384L29.8096 23.2286C30.6982 23.2286 31.0986 22.9649 31.5967 22.4864L34.2041 19.9962C35.2588 18.9903 35.2881 18.004 34.1943 16.9493L31.5967 14.4786C31.0986 13.9903 30.6982 13.7267 29.8193 13.7267H17.0654C15.7373 13.7267 14.9951 14.4493 14.9951 15.7579V21.1974C14.9951 22.506 15.7373 23.2384 17.0654 23.2384ZM23.2373 22.6817V31.295H24.8095V22.6817H23.2373ZM19.4775 30.5626C19.4775 30.9923 19.8388 31.3438 20.2685 31.3438H27.7881C28.2178 31.3438 28.5791 30.9923 28.5791 30.5626C28.5791 30.1329 28.2178 29.7716 27.7881 29.7716H20.2685C19.8388 29.7716 19.4775 30.1329 19.4775 30.5626Z" fill="#1E1E24"/>
</g>
<defs>
<clipPath id="clip0_5_71">
<rect width="20.0098" height="20.5762" fill="white" transform="translate(14.9951 10.7872)"/>
</clipPath>
</defs>
</svg>
