<svg width="158" height="42" viewBox="0 0 158 42" fill="none" xmlns="http://www.w3.org/2000/svg">
<rect width="158" height="42" rx="5" fill="#4ECDC4"/>
<path d="M10 11H30V31H10V11ZM15.2556 27.7111C15.7 28.6556 16.5778 29.4333 18.0778 29.4333C19.7444 29.4333 20.8889 28.5444 20.8889 26.6V20.1778H19V26.5556C19 27.5111 18.6111 27.7556 18 27.7556C17.3556 27.7556 17.0889 27.3111 16.7889 26.7889L15.2556 27.7111ZM21.9 27.5111C22.4556 28.6 23.5778 29.4333 25.3333 29.4333C27.1111 29.4333 28.4444 28.5111 28.4444 26.8111C28.4444 25.2444 27.5444 24.5444 25.9444 23.8556L25.4778 23.6556C24.6667 23.3111 24.3222 23.0778 24.3222 22.5222C24.3222 22.0667 24.6667 21.7111 25.2222 21.7111C25.7556 21.7111 26.1111 21.9444 26.4333 22.5222L27.8889 21.5556C27.2778 20.4889 26.4111 20.0778 25.2222 20.0778C23.5444 20.0778 22.4667 21.1444 22.4667 22.5556C22.4667 24.0889 23.3667 24.8111 24.7222 25.3889L25.1889 25.5889C26.0556 25.9667 26.5667 26.2 26.5667 26.8444C26.5667 27.3778 26.0667 27.7667 25.2889 27.7667C24.3667 27.7667 23.8333 27.2889 23.4333 26.6222L21.9 27.5111Z" fill="#1E1E24"/>
<path d="M46.5966 14.9091H48.1818V24.267C48.1818 25.1023 48.0284 25.8118 47.7216 26.3956C47.4148 26.9794 46.9822 27.4226 46.424 27.7251C45.8658 28.0277 45.2074 28.179 44.4489 28.179C43.733 28.179 43.0959 28.049 42.5376 27.7891C41.9794 27.5249 41.5405 27.1499 41.2209 26.6641C40.9013 26.1783 40.7415 25.6009 40.7415 24.9318H42.3011C42.3011 25.3026 42.3928 25.6264 42.576 25.9034C42.7635 26.1761 43.0192 26.3892 43.343 26.5426C43.6669 26.696 44.0355 26.7727 44.4489 26.7727C44.9048 26.7727 45.2926 26.6768 45.6122 26.4851C45.9318 26.2933 46.1747 26.0121 46.3409 25.6413C46.5114 25.2663 46.5966 24.8082 46.5966 24.267V14.9091ZM51.8956 28H50.2337L55.0405 14.9091H56.6768L61.4837 28H59.8217L55.9098 16.9801H55.8075L51.8956 28ZM52.5092 22.8864H59.2081V24.2926H52.5092V22.8864ZM62.8292 14.9091L66.7156 25.929H66.869L70.7553 14.9091H72.4173L67.6104 28H65.9741L61.1673 14.9091H62.8292ZM73.8683 28H72.2063L77.0131 14.9091H78.6495L83.4563 28H81.7944L77.8825 16.9801H77.7802L73.8683 28ZM74.4819 22.8864H81.1808V24.2926H74.4819V22.8864ZM92.6545 18.1818C92.5778 17.5341 92.2667 17.0312 91.7212 16.6733C91.1758 16.3153 90.5067 16.1364 89.7141 16.1364C89.1346 16.1364 88.6275 16.2301 88.1928 16.4176C87.7624 16.6051 87.4258 16.8629 87.1829 17.1911C86.9442 17.5192 86.8249 17.892 86.8249 18.3097C86.8249 18.6591 86.908 18.9595 87.0742 19.2109C87.2447 19.4581 87.462 19.6648 87.7262 19.831C87.9904 19.9929 88.2674 20.1271 88.5572 20.2337C88.8469 20.3359 89.1133 20.419 89.3562 20.483L90.6857 20.8409C91.0266 20.9304 91.4059 21.054 91.8235 21.2116C92.2454 21.3693 92.6481 21.5845 93.0316 21.8572C93.4194 22.1257 93.739 22.4709 93.9904 22.8928C94.2418 23.3146 94.3675 23.8324 94.3675 24.446C94.3675 25.1534 94.1822 25.7926 93.8114 26.3636C93.445 26.9347 92.908 27.3885 92.2006 27.7251C91.4975 28.0618 90.6431 28.2301 89.6374 28.2301C88.6999 28.2301 87.8881 28.0788 87.2021 27.7763C86.5202 27.4737 85.9833 27.0518 85.5913 26.5107C85.2035 25.9695 84.984 25.3409 84.9329 24.625H86.5692C86.6119 25.1193 86.7781 25.5284 87.0678 25.8523C87.3619 26.1719 87.7326 26.4105 88.18 26.5682C88.6317 26.7216 89.1175 26.7983 89.6374 26.7983C90.2425 26.7983 90.7859 26.7003 91.2674 26.5043C91.7489 26.304 92.1303 26.027 92.4116 25.6733C92.6928 25.3153 92.8335 24.8977 92.8335 24.4205C92.8335 23.9858 92.712 23.6321 92.4691 23.3594C92.2262 23.0866 91.9066 22.8651 91.5103 22.6946C91.114 22.5241 90.6857 22.375 90.2255 22.2472L88.6147 21.7869C87.592 21.4929 86.7823 21.0732 86.1857 20.5277C85.5891 19.9822 85.2908 19.2685 85.2908 18.3864C85.2908 17.6534 85.489 17.0142 85.8853 16.4688C86.2859 15.919 86.8228 15.4929 87.4961 15.1903C88.1737 14.8835 88.93 14.7301 89.7653 14.7301C90.609 14.7301 91.359 14.8814 92.0153 15.1839C92.6715 15.4822 93.1914 15.8913 93.5749 16.4112C93.9627 16.9311 94.1673 17.5213 94.1886 18.1818H92.6545ZM107.508 19H105.923C105.829 18.544 105.665 18.1435 105.431 17.7983C105.2 17.4531 104.919 17.1634 104.587 16.929C104.259 16.6903 103.894 16.5114 103.494 16.392C103.093 16.2727 102.676 16.2131 102.241 16.2131C101.448 16.2131 100.73 16.4134 100.087 16.8139C99.4476 17.2145 98.9384 17.8047 98.5591 18.5845C98.1841 19.3643 97.9966 20.321 97.9966 21.4545C97.9966 22.5881 98.1841 23.5447 98.5591 24.3246C98.9384 25.1044 99.4476 25.6946 100.087 26.0952C100.73 26.4957 101.448 26.696 102.241 26.696C102.676 26.696 103.093 26.6364 103.494 26.517C103.894 26.3977 104.259 26.2209 104.587 25.9865C104.919 25.7479 105.2 25.456 105.431 25.1108C105.665 24.7614 105.829 24.3608 105.923 23.9091H107.508C107.389 24.5781 107.171 25.1768 106.856 25.7053C106.541 26.2337 106.149 26.6832 105.68 27.054C105.211 27.4205 104.685 27.6996 104.101 27.8913C103.521 28.0831 102.901 28.179 102.241 28.179C101.124 28.179 100.132 27.9062 99.2623 27.3608C98.3929 26.8153 97.709 26.0398 97.2104 25.0341C96.7118 24.0284 96.4625 22.8352 96.4625 21.4545C96.4625 20.0739 96.7118 18.8807 97.2104 17.875C97.709 16.8693 98.3929 16.0938 99.2623 15.5483C100.132 15.0028 101.124 14.7301 102.241 14.7301C102.901 14.7301 103.521 14.826 104.101 15.0178C104.685 15.2095 105.211 15.4908 105.68 15.8615C106.149 16.228 106.541 16.6754 106.856 17.2038C107.171 17.728 107.389 18.3267 107.508 19ZM110.07 28V14.9091H114.493C115.516 14.9091 116.355 15.0838 117.011 15.4332C117.668 15.7784 118.153 16.2536 118.469 16.8587C118.784 17.4638 118.942 18.152 118.942 18.9233C118.942 19.6946 118.784 20.3786 118.469 20.9751C118.153 21.5717 117.67 22.0405 117.018 22.3814C116.366 22.718 115.533 22.8864 114.518 22.8864H110.939V21.4545H114.467C115.166 21.4545 115.729 21.3523 116.155 21.1477C116.585 20.9432 116.896 20.6534 117.088 20.2784C117.284 19.8991 117.382 19.4474 117.382 18.9233C117.382 18.3991 117.284 17.9411 117.088 17.549C116.892 17.157 116.579 16.8544 116.148 16.6413C115.718 16.424 115.149 16.3153 114.442 16.3153H111.655V28H110.07ZM116.232 22.1193L119.453 28H117.612L114.442 22.1193H116.232ZM123.169 14.9091V28H121.583V14.9091H123.169ZM126.347 28V14.9091H130.77C131.797 14.9091 132.637 15.0945 133.289 15.4652C133.945 15.8317 134.431 16.3281 134.746 16.9545C135.061 17.581 135.219 18.2798 135.219 19.0511C135.219 19.8224 135.061 20.5234 134.746 21.1541C134.435 21.7848 133.953 22.2876 133.301 22.6626C132.65 23.0334 131.814 23.2188 130.796 23.2188H127.625V21.8125H130.745C131.448 21.8125 132.012 21.6911 132.439 21.4482C132.865 21.2053 133.174 20.8771 133.365 20.4638C133.561 20.0462 133.659 19.5753 133.659 19.0511C133.659 18.527 133.561 18.0582 133.365 17.6449C133.174 17.2315 132.863 16.9077 132.432 16.6733C132.002 16.4347 131.431 16.3153 130.719 16.3153H127.932V28H126.347ZM137.057 16.3153V14.9091H146.875V16.3153H142.759V28H141.173V16.3153H137.057Z" fill="#1E1E24"/>
</svg>
