<svg width="24" height="20" viewBox="0 0 24 20" fill="none" xmlns="http://www.w3.org/2000/svg">
<path fill-rule="evenodd" clip-rule="evenodd" d="M1.06152 2.24594C0.525391 3.14902 0.525391 4.33546 0.525391 6.70833V13.2917C0.525391 15.6645 0.525391 16.851 1.06152 17.7541C1.51331 18.5151 2.22245 19.1356 3.09218 19.5309C4.12427 20 5.4802 20 8.19206 20H15.7159C18.4277 20 19.7837 20 20.8157 19.5309C21.6855 19.1356 22.3946 18.5151 22.8464 17.7541C23.3825 16.851 23.3825 15.6645 23.3825 13.2917V6.70833C23.3825 4.33546 23.3825 3.14902 22.8464 2.24594C22.3946 1.48493 21.6855 0.864425 20.8157 0.469111C19.7837 0 18.4277 0 15.7159 0H8.19206C5.4802 0 4.12427 0 3.09218 0.469111C2.22245 0.864425 1.51331 1.48493 1.06152 2.24594ZM5.65578 6.21108C6.75087 6.21108 7.63863 5.4343 7.63863 4.47608C7.63863 3.51787 6.75087 2.74109 5.65578 2.74109C4.56068 2.74109 3.67292 3.51787 3.67292 4.47608C3.67292 5.4343 4.56068 6.21108 5.65578 6.21108ZM9.45458 7.49329H12.7408V8.81055C12.7408 8.81055 13.6326 7.24997 16.0589 7.24997C18.2233 7.24997 20.0163 8.18293 20.0163 11.0267V17.0233H16.6109V11.7533C16.6109 10.0758 15.5873 9.89126 14.8074 9.89126C13.1887 9.89126 12.9116 11.1129 12.9116 11.9721V17.0233H9.45458V7.49329ZM7.38428 7.4933H3.92727V17.0233H7.38428V7.4933Z" fill="#1E1E24"/>
</svg>
