<svg width="136" height="42" viewBox="0 0 136 42" fill="none" xmlns="http://www.w3.org/2000/svg">
<rect width="135.302" height="42" rx="5" fill="#4ECDC4"/>
<g clip-path="url(#clip0_19_39)">
<path d="M16.4348 13.2291C15.5917 12.2332 14.8657 11.2217 14.7174 11.0117C14.7017 10.9961 14.6783 10.9961 14.6627 11.0117C14.5144 11.2217 13.7884 12.2332 12.9453 13.2291C5.70857 22.418 14.085 28.6191 14.085 28.6191L14.1553 28.6658C14.2177 29.6229 14.3739 31 14.3739 31H14.6861H14.9984C14.9984 31 15.1545 29.6306 15.217 28.6658L15.2872 28.6114C15.295 28.6114 23.6715 22.418 16.4348 13.2291ZM14.6861 28.4791C14.6861 28.4791 14.3114 28.1601 14.2099 27.9967V27.9812L14.6627 17.9753C14.6627 17.9442 14.7096 17.9442 14.7096 17.9753L15.1623 27.9812V27.9967C15.0608 28.1601 14.6861 28.4791 14.6861 28.4791Z" fill="#1E1E24"/>
</g>
<path d="M30.8875 14.9091H32.7796L37.2285 25.7756H37.3819L41.8307 14.9091H43.7228V28H42.2398V18.054H42.112L38.0211 28H36.5893L32.4983 18.054H32.3705V28H30.8875V14.9091ZM57.9467 21.4545C57.9467 22.8352 57.6974 24.0284 57.1988 25.0341C56.7002 26.0398 56.0163 26.8153 55.147 27.3608C54.2776 27.9062 53.2847 28.179 52.1683 28.179C51.0518 28.179 50.0589 27.9062 49.1896 27.3608C48.3203 26.8153 47.6363 26.0398 47.1377 25.0341C46.6391 24.0284 46.3899 22.8352 46.3899 21.4545C46.3899 20.0739 46.6391 18.8807 47.1377 17.875C47.6363 16.8693 48.3203 16.0938 49.1896 15.5483C50.0589 15.0028 51.0518 14.7301 52.1683 14.7301C53.2847 14.7301 54.2776 15.0028 55.147 15.5483C56.0163 16.0938 56.7002 16.8693 57.1988 17.875C57.6974 18.8807 57.9467 20.0739 57.9467 21.4545ZM56.4126 21.4545C56.4126 20.321 56.223 19.3643 55.8437 18.5845C55.4687 17.8047 54.9595 17.2145 54.316 16.8139C53.6768 16.4134 52.9609 16.2131 52.1683 16.2131C51.3757 16.2131 50.6576 16.4134 50.0141 16.8139C49.3749 17.2145 48.8657 17.8047 48.4864 18.5845C48.1114 19.3643 47.9239 20.321 47.9239 21.4545C47.9239 22.5881 48.1114 23.5447 48.4864 24.3246C48.8657 25.1044 49.3749 25.6946 50.0141 26.0952C50.6576 26.4957 51.3757 26.696 52.1683 26.696C52.9609 26.696 53.6768 26.4957 54.316 26.0952C54.9595 25.6946 55.4687 25.1044 55.8437 24.3246C56.223 23.5447 56.4126 22.5881 56.4126 21.4545ZM70.9928 14.9091V28H69.4588L62.3252 17.7216H62.1974V28H60.6122V14.9091H62.1462L69.3053 25.2131H69.4332V14.9091H70.9928ZM83.1138 19C82.9731 18.5696 82.7878 18.1839 82.5576 17.843C82.3318 17.4979 82.0612 17.2038 81.7459 16.9609C81.4348 16.718 81.0811 16.5327 80.6848 16.4048C80.2885 16.277 79.8538 16.2131 79.3808 16.2131C78.6052 16.2131 77.9 16.4134 77.265 16.8139C76.6301 17.2145 76.1251 17.8047 75.7501 18.5845C75.3751 19.3643 75.1876 20.321 75.1876 21.4545C75.1876 22.5881 75.3773 23.5447 75.7565 24.3246C76.1358 25.1044 76.6493 25.6946 77.297 26.0952C77.9447 26.4957 78.6734 26.696 79.4831 26.696C80.2331 26.696 80.8936 26.5362 81.4646 26.2166C82.0399 25.8928 82.4873 25.4368 82.8069 24.8487C83.1308 24.2564 83.2927 23.5597 83.2927 22.7585L83.7785 22.8608H79.841V21.4545H84.8268V22.8608C84.8268 23.9389 84.5967 24.8764 84.1365 25.6733C83.6805 26.4702 83.0498 27.0881 82.2444 27.527C81.4433 27.9616 80.5228 28.179 79.4831 28.179C78.324 28.179 77.3055 27.9062 76.4277 27.3608C75.5541 26.8153 74.8723 26.0398 74.3822 25.0341C73.8964 24.0284 73.6535 22.8352 73.6535 21.4545C73.6535 20.419 73.792 19.4879 74.069 18.6612C74.3503 17.8303 74.7466 17.1229 75.2579 16.5391C75.7693 15.9553 76.3744 15.5078 77.0733 15.1967C77.7721 14.8857 78.5413 14.7301 79.3808 14.7301C80.0711 14.7301 80.7146 14.8345 81.3112 15.0433C81.9121 15.2479 82.4469 15.5398 82.9156 15.919C83.3886 16.294 83.7828 16.7436 84.0981 17.2678C84.4135 17.7876 84.6308 18.3651 84.7501 19H83.1138ZM98.5873 21.4545C98.5873 22.8352 98.338 24.0284 97.8394 25.0341C97.3409 26.0398 96.6569 26.8153 95.7876 27.3608C94.9183 27.9062 93.9254 28.179 92.8089 28.179C91.6924 28.179 90.6995 27.9062 89.8302 27.3608C88.9609 26.8153 88.2769 26.0398 87.7784 25.0341C87.2798 24.0284 87.0305 22.8352 87.0305 21.4545C87.0305 20.0739 87.2798 18.8807 87.7784 17.875C88.2769 16.8693 88.9609 16.0938 89.8302 15.5483C90.6995 15.0028 91.6924 14.7301 92.8089 14.7301C93.9254 14.7301 94.9183 15.0028 95.7876 15.5483C96.6569 16.0938 97.3409 16.8693 97.8394 17.875C98.338 18.8807 98.5873 20.0739 98.5873 21.4545ZM97.0532 21.4545C97.0532 20.321 96.8636 19.3643 96.4843 18.5845C96.1093 17.8047 95.6001 17.2145 94.9566 16.8139C94.3174 16.4134 93.6015 16.2131 92.8089 16.2131C92.0163 16.2131 91.2982 16.4134 90.6548 16.8139C90.0156 17.2145 89.5063 17.8047 89.1271 18.5845C88.7521 19.3643 88.5646 20.321 88.5646 21.4545C88.5646 22.5881 88.7521 23.5447 89.1271 24.3246C89.5063 25.1044 90.0156 25.6946 90.6548 26.0952C91.2982 26.4957 92.0163 26.696 92.8089 26.696C93.6015 26.696 94.3174 26.4957 94.9566 26.0952C95.6001 25.6946 96.1093 25.1044 96.4843 24.3246C96.8636 23.5447 97.0532 22.5881 97.0532 21.4545ZM105.293 28H101.253V14.9091H105.472C106.741 14.9091 107.828 15.1712 108.731 15.6953C109.635 16.2152 110.327 16.9631 110.809 17.9389C111.29 18.9105 111.531 20.0739 111.531 21.429C111.531 22.7926 111.288 23.9666 110.803 24.951C110.317 25.9311 109.609 26.6854 108.68 27.2138C107.751 27.7379 106.622 28 105.293 28ZM102.838 26.5938H105.19C106.273 26.5938 107.17 26.3849 107.881 25.9673C108.593 25.5497 109.124 24.9553 109.473 24.1839C109.822 23.4126 109.997 22.4943 109.997 21.429C109.997 20.3722 109.825 19.4624 109.479 18.6996C109.134 17.9325 108.619 17.3445 107.932 16.9354C107.246 16.522 106.392 16.3153 105.369 16.3153H102.838V26.5938ZM114.19 28V14.9091H118.767C119.679 14.9091 120.431 15.0668 121.023 15.3821C121.616 15.6932 122.057 16.1129 122.347 16.6413C122.636 17.1655 122.781 17.7472 122.781 18.3864C122.781 18.9489 122.681 19.4134 122.481 19.7798C122.285 20.1463 122.025 20.4361 121.701 20.6491C121.381 20.8622 121.034 21.0199 120.659 21.1222V21.25C121.06 21.2756 121.462 21.4162 121.867 21.6719C122.272 21.9276 122.611 22.294 122.883 22.7713C123.156 23.2486 123.293 23.8324 123.293 24.5227C123.293 25.179 123.143 25.7692 122.845 26.2933C122.547 26.8175 122.076 27.233 121.432 27.5398C120.789 27.8466 119.952 28 118.92 28H114.19ZM115.776 26.5938H118.92C119.956 26.5938 120.691 26.3935 121.126 25.9929C121.565 25.5881 121.784 25.098 121.784 24.5227C121.784 24.0795 121.671 23.6705 121.445 23.2955C121.219 22.9162 120.898 22.6136 120.48 22.3878C120.062 22.1577 119.568 22.0426 118.997 22.0426H115.776V26.5938ZM115.776 20.6619H118.716C119.193 20.6619 119.624 20.5682 120.007 20.3807C120.395 20.1932 120.702 19.929 120.928 19.5881C121.158 19.2472 121.273 18.8466 121.273 18.3864C121.273 17.8111 121.072 17.3232 120.672 16.9226C120.271 16.5178 119.636 16.3153 118.767 16.3153H115.776V20.6619Z" fill="#1E1E24"/>
<defs>
<clipPath id="clip0_19_39">
<rect width="9.30233" height="20" fill="white" transform="translate(10 11)"/>
</clipPath>
</defs>
</svg>
