<svg width="123" height="42" viewBox="0 0 123 42" fill="none" xmlns="http://www.w3.org/2000/svg">
<rect width="123" height="42" rx="5" fill="#4ECDC4"/>
<path d="M17.5 12.5417C17.275 12.5417 17.0417 12.6 16.85 12.7084L10.65 16.2917C10.25 16.525 10 16.9584 10 17.425V24.575C10 25.0417 10.25 25.475 10.65 25.7084L12.275 26.6417C13.0667 27.025 13.3333 27.0334 13.7 27.0334C14.8667 27.0334 15.5417 26.325 15.5417 25.0917V18.0334C15.5417 17.9334 15.4583 17.85 15.3583 17.85H14.5833C14.475 17.85 14.3917 17.9334 14.3917 18.0334V25.0917C14.3917 25.6417 13.825 26.1834 12.9167 25.725L11.2083 24.75C11.1803 24.7302 11.1573 24.704 11.1414 24.6736C11.1255 24.6431 11.117 24.6094 11.1167 24.575V17.425C11.1167 17.35 11.15 17.2834 11.2083 17.25L17.4083 13.675C17.4583 13.6417 17.5417 13.6417 17.5917 13.675L23.7917 17.25C23.85 17.2834 23.8833 17.35 23.8833 17.425V24.575C23.8833 24.6417 23.85 24.7084 23.7917 24.75L17.5917 28.325C17.5417 28.3584 17.4583 28.3584 17.4 28.325L15.8333 27.375C15.7667 27.35 15.7 27.3417 15.6583 27.3667C15.2167 27.6167 15.1333 27.6667 14.725 27.7917C14.625 27.825 14.4667 27.8834 14.7833 28.0584L16.85 29.2834C17.05 29.4 17.2667 29.4584 17.5 29.4584C17.7333 29.4584 17.95 29.4 18.15 29.2834L24.35 25.7084C24.75 25.475 25 25.0417 25 24.575V17.425C25 16.9584 24.75 16.525 24.35 16.2917L18.15 12.7084C17.9583 12.6 17.7333 12.5417 17.5 12.5417ZM19.1667 17.6667C17.4 17.6667 16.3417 18.4084 16.3417 19.6584C16.3417 21 17.3917 21.3917 19.0917 21.5584C21.1167 21.7584 21.275 22.0584 21.275 22.4584C21.275 23.15 20.7167 23.4417 19.4167 23.4417C17.7667 23.4417 17.4167 23.0334 17.2917 22.2167C17.2829 22.1745 17.2599 22.1366 17.2265 22.1093C17.1932 22.082 17.1514 22.0669 17.1083 22.0667H16.3083C16.2083 22.0667 16.1333 22.1417 16.1333 22.25C16.1333 23.2834 16.7 24.5334 19.4167 24.5334C21.375 24.5334 22.5 23.7584 22.5 22.4084C22.5 21.0667 21.6 20.7167 19.6917 20.4584C17.7667 20.2084 17.575 20.075 17.575 19.625C17.575 19.25 17.7417 18.75 19.1667 18.75C20.4167 18.75 20.9083 19.025 21.1 19.8834C21.1167 19.9667 21.1917 20.025 21.275 20.025H22.0833C22.125 20.025 22.175 20.0084 22.2083 19.9667C22.2417 19.9334 22.2667 19.8834 22.25 19.8334C22.1333 18.35 21.15 17.6667 19.1667 17.6667Z" fill="#1E1E24"/>
<path d="M46.9659 14.9091V28H45.4318L38.2983 17.7216H38.1705V28H36.5852V14.9091H38.1193L45.2784 25.2131H45.4062V14.9091H46.9659ZM61.1834 21.4545C61.1834 22.8352 60.9341 24.0284 60.4355 25.0341C59.937 26.0398 59.253 26.8153 58.3837 27.3608C57.5144 27.9062 56.5215 28.179 55.405 28.179C54.2885 28.179 53.2956 27.9062 52.4263 27.3608C51.557 26.8153 50.873 26.0398 50.3745 25.0341C49.8759 24.0284 49.6266 22.8352 49.6266 21.4545C49.6266 20.0739 49.8759 18.8807 50.3745 17.875C50.873 16.8693 51.557 16.0938 52.4263 15.5483C53.2956 15.0028 54.2885 14.7301 55.405 14.7301C56.5215 14.7301 57.5144 15.0028 58.3837 15.5483C59.253 16.0938 59.937 16.8693 60.4355 17.875C60.9341 18.8807 61.1834 20.0739 61.1834 21.4545ZM59.6493 21.4545C59.6493 20.321 59.4597 19.3643 59.0804 18.5845C58.7054 17.8047 58.1962 17.2145 57.5527 16.8139C56.9135 16.4134 56.1976 16.2131 55.405 16.2131C54.6124 16.2131 53.8944 16.4134 53.2509 16.8139C52.6117 17.2145 52.1025 17.8047 51.7232 18.5845C51.3482 19.3643 51.1607 20.321 51.1607 21.4545C51.1607 22.5881 51.3482 23.5447 51.7232 24.3246C52.1025 25.1044 52.6117 25.6946 53.2509 26.0952C53.8944 26.4957 54.6124 26.696 55.405 26.696C56.1976 26.696 56.9135 26.4957 57.5527 26.0952C58.1962 25.6946 58.7054 25.1044 59.0804 24.3246C59.4597 23.5447 59.6493 22.5881 59.6493 21.4545ZM67.8887 28H63.8489V14.9091H68.0676C69.3375 14.9091 70.4242 15.1712 71.3276 15.6953C72.231 16.2152 72.9235 16.9631 73.405 17.9389C73.8865 18.9105 74.1273 20.0739 74.1273 21.429C74.1273 22.7926 73.8844 23.9666 73.3986 24.951C72.9128 25.9311 72.2054 26.6854 71.2765 27.2138C70.3475 27.7379 69.2182 28 67.8887 28ZM65.4341 26.5938H67.7864C68.8688 26.5938 69.7658 26.3849 70.4775 25.9673C71.1891 25.5497 71.7196 24.9553 72.0691 24.1839C72.4185 23.4126 72.5932 22.4943 72.5932 21.429C72.5932 20.3722 72.4206 19.4624 72.0755 18.6996C71.7303 17.9325 71.2147 17.3445 70.5286 16.9354C69.8425 16.522 68.9881 16.3153 67.9654 16.3153H65.4341V26.5938ZM76.7864 28V14.9091H84.687V16.3153H78.3716V20.7386H84.2779V22.1449H78.3716V26.5938H84.7892V28H76.7864ZM97.6181 14.9091H99.2033V24.267C99.2033 25.1023 99.0499 25.8118 98.7431 26.3956C98.4363 26.9794 98.0037 27.4226 97.4455 27.7251C96.8873 28.0277 96.2289 28.179 95.4703 28.179C94.7544 28.179 94.1174 28.049 93.5591 27.7891C93.0009 27.5249 92.562 27.1499 92.2424 26.6641C91.9228 26.1783 91.763 25.6009 91.763 24.9318H93.3226C93.3226 25.3026 93.4142 25.6264 93.5975 25.9034C93.785 26.1761 94.0407 26.3892 94.3645 26.5426C94.6884 26.696 95.057 26.7727 95.4703 26.7727C95.9263 26.7727 96.3141 26.6768 96.6337 26.4851C96.9533 26.2933 97.1962 26.0121 97.3624 25.6413C97.5328 25.2663 97.6181 24.8082 97.6181 24.267V14.9091ZM109.539 18.1818C109.463 17.5341 109.151 17.0312 108.606 16.6733C108.061 16.3153 107.392 16.1364 106.599 16.1364C106.019 16.1364 105.512 16.2301 105.078 16.4176C104.647 16.6051 104.311 16.8629 104.068 17.1911C103.829 17.5192 103.71 17.892 103.71 18.3097C103.71 18.6591 103.793 18.9595 103.959 19.2109C104.129 19.4581 104.347 19.6648 104.611 19.831C104.875 19.9929 105.152 20.1271 105.442 20.2337C105.732 20.3359 105.998 20.419 106.241 20.483L107.57 20.8409C107.911 20.9304 108.291 21.054 108.708 21.2116C109.13 21.3693 109.533 21.5845 109.916 21.8572C110.304 22.1257 110.624 22.4709 110.875 22.8928C111.127 23.3146 111.252 23.8324 111.252 24.446C111.252 25.1534 111.067 25.7926 110.696 26.3636C110.33 26.9347 109.793 27.3885 109.085 27.7251C108.382 28.0618 107.528 28.2301 106.522 28.2301C105.585 28.2301 104.773 28.0788 104.087 27.7763C103.405 27.4737 102.868 27.0518 102.476 26.5107C102.088 25.9695 101.869 25.3409 101.818 24.625H103.454C103.497 25.1193 103.663 25.5284 103.953 25.8523C104.247 26.1719 104.617 26.4105 105.065 26.5682C105.517 26.7216 106.002 26.7983 106.522 26.7983C107.127 26.7983 107.671 26.7003 108.152 26.5043C108.634 26.304 109.015 26.027 109.296 25.6733C109.578 25.3153 109.718 24.8977 109.718 24.4205C109.718 23.9858 109.597 23.6321 109.354 23.3594C109.111 23.0866 108.791 22.8651 108.395 22.6946C107.999 22.5241 107.57 22.375 107.11 22.2472L105.499 21.7869C104.477 21.4929 103.667 21.0732 103.07 20.5277C102.474 19.9822 102.176 19.2685 102.176 18.3864C102.176 17.6534 102.374 17.0142 102.77 16.4688C103.171 15.919 103.708 15.4929 104.381 15.1903C105.058 14.8835 105.815 14.7301 106.65 14.7301C107.494 14.7301 108.244 14.8814 108.9 15.1839C109.556 15.4822 110.076 15.8913 110.46 16.4112C110.847 16.9311 111.052 17.5213 111.073 18.1818H109.539Z" fill="#1E1E24"/>
</svg>
