<svg width="50" height="41" viewBox="0 0 50 41" fill="none" xmlns="http://www.w3.org/2000/svg">
<rect y="0.0722961" width="50" height="40.0098" rx="5" fill="#CB4251"/>
<g clip-path="url(#clip0_4_69)">
<path d="M14.7266 19.125C14.7266 21.0586 15.7422 22.543 17.0605 22.543C18.3789 22.543 19.4043 21.0586 19.4043 19.125C19.4043 17.2012 18.3789 15.7071 17.0605 15.7071C15.7422 15.7071 14.7266 17.2012 14.7266 19.125ZM19.4629 13.4903C19.4629 15.4141 20.498 16.8985 21.8066 16.8985C23.1348 16.8985 24.1602 15.4043 24.1602 13.4903C24.1602 11.5567 23.1348 10.0723 21.8066 10.0723C20.498 10.0723 19.4629 11.5567 19.4629 13.4903ZM25.8496 13.4903C25.8496 15.4043 26.8653 16.8985 28.1934 16.8985C29.502 16.8985 30.5371 15.4141 30.5371 13.4903C30.5371 11.5567 29.502 10.0723 28.1934 10.0723C26.8653 10.0723 25.8496 11.5567 25.8496 13.4903ZM30.5957 19.125C30.5957 21.0586 31.6211 22.543 32.9395 22.543C34.2578 22.543 35.2735 21.0586 35.2735 19.125C35.2735 17.2012 34.2578 15.7071 32.9395 15.7071C31.6211 15.7071 30.5957 17.2012 30.5957 19.125ZM17.6563 26.6836C17.6563 28.6563 18.9844 30.0625 20.9375 30.0625C21.9043 30.0625 22.6074 29.7891 23.2813 29.5547C23.8281 29.3594 24.3555 29.1836 25 29.1836C25.6348 29.1836 26.1621 29.3594 26.7188 29.5547C27.3926 29.7891 28.086 30.0625 29.0528 30.0625C31.0157 30.0625 32.3438 28.6563 32.3438 26.6836C32.3438 25.0039 31.3379 24.1543 30.3711 23.3633C29.834 22.9336 29.3164 22.5235 28.9649 21.9766C28.6719 21.5371 28.4278 21.0586 28.2227 20.6094C27.5196 19.1055 26.9629 17.6895 25 17.6895C23.0273 17.6895 22.4805 19.1055 21.7773 20.5996C21.5625 21.0586 21.3281 21.5274 21.0449 21.9571C20.6836 22.5039 20.1563 22.9336 19.6289 23.3633C18.6621 24.1543 17.6563 25.0137 17.6563 26.6836Z" fill="#1E1E24"/>
</g>
<defs>
<clipPath id="clip0_4_69">
<rect width="20.5469" height="20.0098" fill="white" transform="translate(14.7266 10.0723)"/>
</clipPath>
</defs>
</svg>
