<svg width="24" height="20" viewBox="0 0 24 20" fill="none" xmlns="http://www.w3.org/2000/svg">
<g clip-path="url(#clip0_9_235)">
<path d="M12.6367 19.6826C16.748 19.6826 19.4922 18.2276 19.4922 16.0791C19.4922 14.1553 17.8516 13.7256 17.8516 12.5928C17.8516 11.0303 23.5254 10.7178 23.5254 6.70408C23.5254 2.73924 19.4336 0.122051 13.3594 0.122051C5.38086 0.122051 0 4.10643 0 10.0732C0 15.8155 5.10742 19.6826 12.6367 19.6826ZM12.4219 15.9522C10.9961 15.9522 9.82422 14.7901 9.82422 13.3545C9.82422 11.9287 10.9961 10.7569 12.4219 10.7569C13.8574 10.7569 15.0293 11.9287 15.0293 13.3545C15.0293 14.7901 13.8574 15.9522 12.4219 15.9522ZM4.61914 11.2647C3.73047 11.2647 2.98828 10.5225 2.98828 9.624C2.98828 8.76463 3.75977 8.01267 4.61914 8.01267C5.51758 8.01267 6.24023 8.72557 6.24023 9.624C6.24023 10.5225 5.51758 11.2647 4.61914 11.2647ZM8.36914 7.8076C7.2168 7.8076 6.29883 6.90916 6.29883 5.75682C6.29883 4.63377 7.2168 3.73533 8.36914 3.73533C9.48242 3.73533 10.4102 4.63377 10.4102 5.75682C10.4102 6.90916 9.49219 7.8076 8.36914 7.8076ZM13.5742 6.26463C12.6758 6.26463 11.9141 5.53221 11.9141 4.624C11.9141 3.7158 12.6758 2.98338 13.5742 2.98338C14.4922 2.98338 15.2148 3.7158 15.2148 4.624C15.2148 5.53221 14.4922 6.26463 13.5742 6.26463ZM18.1738 7.124C17.4316 7.124 16.8262 6.53807 16.8262 5.79588C16.8262 5.06346 17.4316 4.45799 18.1738 4.45799C18.9062 4.45799 19.4922 5.06346 19.4922 5.79588C19.4922 6.53807 18.9062 7.124 18.1738 7.124Z" fill="#1E1E24"/>
</g>
<defs>
<clipPath id="clip0_9_235">
<rect width="23.5254" height="19.7559" fill="white" transform="translate(0 0.122051)"/>
</clipPath>
</defs>
</svg>
