<svg width="128" height="42" viewBox="0 0 128 42" fill="none" xmlns="http://www.w3.org/2000/svg">
<rect x="0.857147" width="126.821" height="42" rx="5" fill="#4ECDC4"/>
<g clip-path="url(#clip0_19_78)">
<path d="M20.6214 11.0002C19.8029 11.004 19.0212 11.0738 18.3335 11.1955C16.3074 11.5534 15.9395 12.3026 15.9395 13.6843V15.5091H20.7274V16.1174H15.9395H14.1426C12.7511 16.1174 11.5327 16.9537 11.1515 18.5448C10.7119 20.3686 10.6924 21.5066 11.1515 23.4109C11.4919 24.8284 12.3047 25.8383 13.6962 25.8383H15.3424V23.6508C15.3424 22.0705 16.7097 20.6765 18.3335 20.6765H23.1158C24.4471 20.6765 25.5098 19.5804 25.5098 18.2435V13.6843C25.5098 12.3868 24.4152 11.412 23.1158 11.1955C22.2933 11.0586 21.4399 10.9964 20.6214 11.0002ZM18.0321 12.4678C18.5267 12.4678 18.9306 12.8783 18.9306 13.383C18.9306 13.8859 18.5267 14.2926 18.0321 14.2926C17.5358 14.2926 17.1337 13.8859 17.1337 13.383C17.1337 12.8783 17.5358 12.4678 18.0321 12.4678Z" fill="#1E1E24"/>
<path d="M26.1069 16.1174V18.2435C26.1069 19.8918 24.7094 21.2792 23.1159 21.2792H18.3335C17.0235 21.2792 15.9395 22.4004 15.9395 23.7122V28.2714C15.9395 29.569 17.0678 30.3322 18.3335 30.7044C19.8491 31.1501 21.3025 31.2306 23.1159 30.7044C24.3212 30.3554 25.5098 29.6531 25.5098 28.2714V26.4466H20.7275V25.8384H25.5098H27.9038C29.2953 25.8384 29.8138 24.8677 30.2978 23.4109C30.7977 21.9111 30.7764 20.4688 30.2978 18.5448C29.9539 17.1596 29.2971 16.1174 27.9038 16.1174H26.1069ZM23.4172 27.6631C23.9135 27.6631 24.3156 28.0698 24.3156 28.5727C24.3156 29.0774 23.9135 29.4879 23.4172 29.4879C22.9226 29.4879 22.5188 29.0774 22.5188 28.5727C22.5188 28.0698 22.9226 27.6631 23.4172 27.6631Z" fill="#1E1E24"/>
</g>
<path d="M42.2638 28V14.9091H46.6871C47.7141 14.9091 48.5536 15.0945 49.2056 15.4652C49.8618 15.8317 50.3476 16.3281 50.663 16.9545C50.9783 17.581 51.136 18.2798 51.136 19.0511C51.136 19.8224 50.9783 20.5234 50.663 21.1541C50.3519 21.7848 49.8704 22.2876 49.2184 22.6626C48.5664 23.0334 47.7311 23.2188 46.7127 23.2188H43.5422V21.8125H46.6615C47.3647 21.8125 47.9293 21.6911 48.3554 21.4482C48.7816 21.2053 49.0905 20.8771 49.2823 20.4638C49.4783 20.0462 49.5763 19.5753 49.5763 19.0511C49.5763 18.527 49.4783 18.0582 49.2823 17.6449C49.0905 17.2315 48.7794 16.9077 48.349 16.6733C47.9186 16.4347 47.3476 16.3153 46.636 16.3153H43.849V28H42.2638ZM52.5646 14.9091H54.3799L58.0106 21.0199H58.164L61.7947 14.9091H63.6101L58.8799 22.6051V28H57.2947V22.6051L52.5646 14.9091ZM65.7706 16.3153V14.9091H75.5887V16.3153H71.4723V28H69.887V16.3153H65.7706ZM78.0353 28V14.9091H79.6205V20.7386H86.6006V14.9091H88.1859V28H86.6006V22.1449H79.6205V28H78.0353ZM102.405 21.4545C102.405 22.8352 102.156 24.0284 101.657 25.0341C101.159 26.0398 100.475 26.8153 99.6053 27.3608C98.7359 27.9062 97.743 28.179 96.6266 28.179C95.5101 28.179 94.5172 27.9062 93.6479 27.3608C92.7786 26.8153 92.0946 26.0398 91.596 25.0341C91.0974 24.0284 90.8482 22.8352 90.8482 21.4545C90.8482 20.0739 91.0974 18.8807 91.596 17.875C92.0946 16.8693 92.7786 16.0938 93.6479 15.5483C94.5172 15.0028 95.5101 14.7301 96.6266 14.7301C97.743 14.7301 98.7359 15.0028 99.6053 15.5483C100.475 16.0938 101.159 16.8693 101.657 17.875C102.156 18.8807 102.405 20.0739 102.405 21.4545ZM100.871 21.4545C100.871 20.321 100.681 19.3643 100.302 18.5845C99.927 17.8047 99.4178 17.2145 98.7743 16.8139C98.1351 16.4134 97.4192 16.2131 96.6266 16.2131C95.834 16.2131 95.1159 16.4134 94.4724 16.8139C93.8332 17.2145 93.324 17.8047 92.9447 18.5845C92.5697 19.3643 92.3822 20.321 92.3822 21.4545C92.3822 22.5881 92.5697 23.5447 92.9447 24.3246C93.324 25.1044 93.8332 25.6946 94.4724 26.0952C95.1159 26.4957 95.834 26.696 96.6266 26.696C97.4192 26.696 98.1351 26.4957 98.7743 26.0952C99.4178 25.6946 99.927 25.1044 100.302 24.3246C100.681 23.5447 100.871 22.5881 100.871 21.4545ZM115.451 14.9091V28H113.917L106.784 17.7216H106.656V28H105.07V14.9091H106.605L113.764 25.2131H113.891V14.9091H115.451Z" fill="#1E1E24"/>
<defs>
<clipPath id="clip0_19_78">
<rect width="19.8214" height="20" fill="white" transform="translate(10.8571 11)"/>
</clipPath>
</defs>
</svg>
