<svg width="107" height="42" viewBox="0 0 107 42" fill="none" xmlns="http://www.w3.org/2000/svg">
<rect x="0.000488281" width="106.52" height="42" rx="5" fill="#4ECDC4"/>
<path d="M17.1978 20.9955C17.1978 21.4099 17.3624 21.8074 17.6554 22.1004C17.9484 22.3934 18.3459 22.558 18.7603 22.558C19.1747 22.558 19.5721 22.3934 19.8651 22.1004C20.1581 21.8074 20.3228 21.4099 20.3228 20.9955C20.3228 20.5811 20.1581 20.1837 19.8651 19.8907C19.5721 19.5977 19.1747 19.433 18.7603 19.433C18.3459 19.433 17.9484 19.5977 17.6554 19.8907C17.3624 20.1837 17.1978 20.5811 17.1978 20.9955Z" fill="#1E1E24"/>
<path d="M27.52 20.9955C27.52 19.769 26.0786 18.7065 23.8384 18.0639C24.4028 15.8022 24.2036 14.0229 23.1411 13.4096C22.0767 12.7963 20.436 13.5131 18.7603 15.1323C17.0845 13.5131 15.4438 12.7963 14.3794 13.4096C13.3169 14.0229 13.1177 15.8041 13.6821 18.0639C11.4419 18.7065 10.0005 19.769 10.0005 20.9955C10.0005 22.2221 11.4419 23.2846 13.6821 23.9272C13.1177 26.1869 13.3169 27.9682 14.3794 28.5815C14.6411 28.7338 14.938 28.808 15.2622 28.808C16.0376 28.808 16.9771 28.3822 17.9966 27.5541C18.2505 27.3471 18.5063 27.1127 18.7603 26.8666C19.0142 27.1127 19.27 27.3471 19.5239 27.5541C20.5435 28.3822 21.481 28.808 22.2583 28.808C22.5825 28.808 22.8794 28.7338 23.1411 28.5815C24.2036 27.9682 24.4028 26.1889 23.8384 23.9272C26.0786 23.2846 27.52 22.2221 27.52 20.9955ZM22.7603 14.0697C23.4497 14.4682 23.5942 15.9115 23.104 17.8744C22.3872 17.7104 21.606 17.5873 20.7739 17.5112C20.2915 16.8295 19.7935 16.2143 19.2935 15.6752C20.4497 14.5561 21.5239 13.9487 22.2622 13.9487C22.4497 13.9467 22.6177 13.9877 22.7603 14.0697ZM21.2017 22.4057C20.9321 22.8744 20.647 23.3237 20.356 23.7533C19.8462 23.7924 19.3149 23.8139 18.7603 23.8139C18.2075 23.8139 17.6763 23.7924 17.1665 23.7533C16.8735 23.3237 16.5903 22.8725 16.3208 22.4057C16.0454 21.9272 15.7993 21.4565 15.5767 20.9955C15.7993 20.5346 16.0454 20.0639 16.3208 19.5854C16.5962 19.1069 16.8813 18.6596 17.1685 18.2358C17.6782 18.1967 18.2095 18.1752 18.7622 18.1752C19.3149 18.1752 19.8462 18.1967 20.356 18.2358C20.6431 18.6576 20.9282 19.1069 21.2036 19.5834C21.479 20.0619 21.7251 20.5326 21.9478 20.9936C21.7231 21.4565 21.4771 21.9272 21.2017 22.4057ZM22.3501 21.8901C22.5688 22.4096 22.7485 22.9076 22.897 23.3842C22.4106 23.4936 21.8872 23.5873 21.3286 23.6576C21.5103 23.3744 21.688 23.0854 21.8618 22.7865C22.0337 22.4858 22.1958 22.1869 22.3501 21.8901ZM18.7603 25.7748C18.4146 25.3998 18.0747 24.9916 17.7407 24.5522C18.0747 24.5678 18.4146 24.5776 18.7603 24.5776C19.106 24.5776 19.4458 24.5678 19.7798 24.5522C19.4458 24.9916 19.106 25.3998 18.7603 25.7748ZM16.1919 23.6576C15.6333 23.5873 15.1118 23.4936 14.6235 23.3842C14.772 22.9076 14.9517 22.4096 15.1704 21.8901C15.3247 22.1869 15.4849 22.4858 15.6587 22.7865C15.8325 23.0834 16.0103 23.3725 16.1919 23.6576ZM15.1704 20.101C14.9517 19.5815 14.772 19.0834 14.6235 18.6069C15.1099 18.4975 15.6313 18.4037 16.1899 18.3334C16.0103 18.6147 15.8306 18.9037 15.6587 19.2045C15.4868 19.5053 15.3247 19.8041 15.1704 20.101ZM18.7603 16.2162C19.0981 16.5815 19.4399 16.9936 19.7778 17.4408C19.4438 17.4252 19.106 17.4155 18.7603 17.4155C18.4146 17.4155 18.0767 17.4252 17.7427 17.4408C18.0806 16.9936 18.4224 16.5815 18.7603 16.2162ZM21.8599 19.2045C21.686 18.9057 21.5083 18.6166 21.3286 18.3334C21.8872 18.4037 22.4087 18.4975 22.895 18.6069C22.7466 19.0834 22.5669 19.5815 22.3481 20.101C22.1958 19.8041 22.0337 19.5053 21.8599 19.2045ZM14.7603 14.0697C14.9009 13.9877 15.0688 13.9487 15.2603 13.9487C15.9985 13.9487 17.0708 14.5561 18.2271 15.6752C17.7271 16.2143 17.229 16.8315 16.7466 17.5112C15.9165 17.5873 15.1333 17.7104 14.4165 17.8744C13.9263 15.9096 14.0728 14.4662 14.7603 14.0697ZM10.7622 20.9955C10.7622 20.1987 11.9399 19.351 13.8872 18.7963C14.104 19.4994 14.3872 20.2377 14.7368 20.9955C14.3892 21.7533 14.104 22.4916 13.8872 23.1947C11.9399 22.6401 10.7622 21.7905 10.7622 20.9955ZM17.5161 26.9623C16.3501 27.9096 15.3462 28.2592 14.7603 27.9233C14.0708 27.5248 13.9263 26.0815 14.4165 24.1186C15.1333 24.2826 15.9146 24.4057 16.7466 24.4819C17.2231 25.1557 17.7212 25.7729 18.2271 26.3217C17.9907 26.5502 17.7544 26.769 17.5161 26.9623ZM22.7603 27.9233C22.1763 28.2612 21.1704 27.9115 20.0044 26.9623C19.7681 26.769 19.5298 26.5502 19.2915 26.3217C19.7993 25.7729 20.2954 25.1557 20.772 24.4819C21.6021 24.4057 22.3853 24.2826 23.1021 24.1166C23.5942 26.0815 23.4478 27.5248 22.7603 27.9233ZM23.6353 23.1947C23.4185 22.4916 23.1353 21.7533 22.7856 20.9955C23.1333 20.2377 23.4185 19.4994 23.6353 18.7963C25.5825 19.353 26.7603 20.2006 26.7603 20.9955C26.7583 21.7905 25.5806 22.6401 23.6353 23.1947Z" fill="#1E1E24"/>
<path d="M39.1052 28V14.9091H43.5285C44.5513 14.9091 45.3908 15.0838 46.047 15.4332C46.7033 15.7784 47.1891 16.2536 47.5044 16.8587C47.8197 17.4638 47.9774 18.152 47.9774 18.9233C47.9774 19.6946 47.8197 20.3786 47.5044 20.9751C47.1891 21.5717 46.7054 22.0405 46.0534 22.3814C45.4014 22.718 44.5683 22.8864 43.5541 22.8864H39.9746V21.4545H43.503C44.2018 21.4545 44.7643 21.3523 45.1905 21.1477C45.6209 20.9432 45.932 20.6534 46.1237 20.2784C46.3197 19.8991 46.4177 19.4474 46.4177 18.9233C46.4177 18.3991 46.3197 17.9411 46.1237 17.549C45.9277 17.157 45.6145 16.8544 45.1841 16.6413C44.7537 16.424 44.1848 16.3153 43.4774 16.3153H40.6905V28H39.1052ZM45.2672 22.1193L48.4888 28H46.6479L43.4774 22.1193H45.2672ZM50.6189 28V14.9091H58.5195V16.3153H52.2041V20.7386H58.1104V22.1449H52.2041V26.5938H58.6218V28H50.6189ZM61.9137 28H60.2517L65.0585 14.9091H66.6949L71.5017 28H69.8398L65.9279 16.9801H65.8256L61.9137 28ZM62.5273 22.8864H69.2262V24.2926H62.5273V22.8864ZM83.4597 19H81.8744C81.7807 18.544 81.6166 18.1435 81.3822 17.7983C81.1521 17.4531 80.8709 17.1634 80.5385 16.929C80.2104 16.6903 79.846 16.5114 79.4454 16.392C79.0449 16.2727 78.6273 16.2131 78.1926 16.2131C77.4 16.2131 76.682 16.4134 76.0385 16.8139C75.3993 17.2145 74.89 17.8047 74.5108 18.5845C74.1358 19.3643 73.9483 20.321 73.9483 21.4545C73.9483 22.5881 74.1358 23.5447 74.5108 24.3246C74.89 25.1044 75.3993 25.6946 76.0385 26.0952C76.682 26.4957 77.4 26.696 78.1926 26.696C78.6273 26.696 79.0449 26.6364 79.4454 26.517C79.846 26.3977 80.2104 26.2209 80.5385 25.9865C80.8709 25.7479 81.1521 25.456 81.3822 25.1108C81.6166 24.7614 81.7807 24.3608 81.8744 23.9091H83.4597C83.3403 24.5781 83.123 25.1768 82.8077 25.7053C82.4923 26.2337 82.1003 26.6832 81.6315 27.054C81.1628 27.4205 80.6365 27.6996 80.0527 27.8913C79.4731 28.0831 78.8531 28.179 78.1926 28.179C77.0761 28.179 76.0832 27.9062 75.2139 27.3608C74.3446 26.8153 73.6606 26.0398 73.1621 25.0341C72.6635 24.0284 72.4142 22.8352 72.4142 21.4545C72.4142 20.0739 72.6635 18.8807 73.1621 17.875C73.6606 16.8693 74.3446 16.0938 75.2139 15.5483C76.0832 15.0028 77.0761 14.7301 78.1926 14.7301C78.8531 14.7301 79.4731 14.826 80.0527 15.0178C80.6365 15.2095 81.1628 15.4908 81.6315 15.8615C82.1003 16.228 82.4923 16.6754 82.8077 17.2038C83.123 17.728 83.3403 18.3267 83.4597 19ZM85.3054 16.3153V14.9091H95.1235V16.3153H91.0071V28H89.4218V16.3153H85.3054Z" fill="#1E1E24"/>
</svg>
