<svg width="110" height="42" viewBox="0 0 110 42" fill="none" xmlns="http://www.w3.org/2000/svg">
<rect x="0.580627" width="109" height="42" rx="5" fill="#EDDDCC"/>
<path d="M14.753 23.5397C14.753 24.7185 13.8205 25.6712 12.6668 25.6712C11.5131 25.6712 10.5806 24.7185 10.5806 23.5397C10.5806 22.3609 11.5131 21.4082 12.6668 21.4082H14.753V23.5397ZM15.796 23.5397C15.796 22.3609 16.7285 21.4082 17.8822 21.4082C19.0359 21.4082 19.9684 22.3609 19.9684 23.5397V28.8685C19.9684 30.0473 19.0359 31 17.8822 31C16.7285 31 15.796 30.0473 15.796 28.8685V23.5397Z" fill="#1E1E24"/>
<path d="M17.8857 15.1653C16.7339 15.1653 15.8031 14.2344 15.8031 13.0827C15.8031 11.9309 16.7339 11 17.8857 11C19.0375 11 19.9684 11.9309 19.9684 13.0827V15.1653H17.8857ZM17.8857 16.2224C19.0375 16.2224 19.9684 17.1533 19.9684 18.3051C19.9684 19.4569 19.0375 20.3878 17.8857 20.3878H12.6633C11.5115 20.3878 10.5806 19.4569 10.5806 18.3051C10.5806 17.1533 11.5115 16.2224 12.6633 16.2224H17.8857Z" fill="#1E1E24"/>
<path d="M26.4083 18.3051C26.4083 17.1533 27.3407 16.2224 28.4945 16.2224C29.6482 16.2224 30.5806 17.1533 30.5806 18.3051C30.5806 19.4569 29.6482 20.3878 28.4945 20.3878H26.4083V18.3051ZM25.3652 18.3051C25.3652 19.4569 24.4328 20.3878 23.279 20.3878C22.1253 20.3878 21.1929 19.4569 21.1929 18.3051V13.0827C21.1929 11.9309 22.1253 11 23.279 11C24.4328 11 25.3652 11.9309 25.3652 13.0827V18.3051Z" fill="#1E1E24"/>
<path d="M23.2755 26.737C24.4273 26.737 25.3582 27.6897 25.3582 28.8685C25.3582 30.0473 24.4273 31 23.2755 31C22.1238 31 21.1929 30.0473 21.1929 28.8685V26.737H23.2755ZM23.2755 25.6712C22.1238 25.6712 21.1929 24.7185 21.1929 23.5397C21.1929 22.3609 22.1238 21.4082 23.2755 21.4082H28.498C29.6497 21.4082 30.5806 22.3609 30.5806 23.5397C30.5806 24.7185 29.6497 25.6712 28.498 25.6712H23.2755Z" fill="#1E1E24"/>
<path d="M49.3249 18.1818C49.2482 17.5341 48.9372 17.0312 48.3917 16.6733C47.8463 16.3153 47.1772 16.1364 46.3846 16.1364C45.8051 16.1364 45.298 16.2301 44.8633 16.4176C44.4329 16.6051 44.0963 16.8629 43.8534 17.1911C43.6147 17.5192 43.4954 17.892 43.4954 18.3097C43.4954 18.6591 43.5785 18.9595 43.7447 19.2109C43.9151 19.4581 44.1325 19.6648 44.3967 19.831C44.6609 19.9929 44.9379 20.1271 45.2276 20.2337C45.5174 20.3359 45.7838 20.419 46.0267 20.483L47.3562 20.8409C47.6971 20.9304 48.0764 21.054 48.494 21.2116C48.9159 21.3693 49.3186 21.5845 49.7021 21.8572C50.0899 22.1257 50.4095 22.4709 50.6609 22.8928C50.9123 23.3146 51.038 23.8324 51.038 24.446C51.038 25.1534 50.8526 25.7926 50.4819 26.3636C50.1154 26.9347 49.5785 27.3885 48.8711 27.7251C48.168 28.0618 47.3136 28.2301 46.3079 28.2301C45.3704 28.2301 44.5586 28.0788 43.8725 27.7763C43.1907 27.4737 42.6538 27.0518 42.2617 26.5107C41.874 25.9695 41.6545 25.3409 41.6034 24.625H43.2397C43.2823 25.1193 43.4485 25.5284 43.7383 25.8523C44.0323 26.1719 44.4031 26.4105 44.8505 26.5682C45.3022 26.7216 45.788 26.7983 46.3079 26.7983C46.913 26.7983 47.4563 26.7003 47.9379 26.5043C48.4194 26.304 48.8008 26.027 49.082 25.6733C49.3633 25.3153 49.5039 24.8977 49.5039 24.4205C49.5039 23.9858 49.3825 23.6321 49.1396 23.3594C48.8967 23.0866 48.5771 22.8651 48.1808 22.6946C47.7845 22.5241 47.3562 22.375 46.896 22.2472L45.2852 21.7869C44.2624 21.4929 43.4528 21.0732 42.8562 20.5277C42.2596 19.9822 41.9613 19.2685 41.9613 18.3864C41.9613 17.6534 42.1595 17.0142 42.5558 16.4688C42.9563 15.919 43.4933 15.4929 44.1666 15.1903C44.8441 14.8835 45.6005 14.7301 46.4357 14.7301C47.2795 14.7301 48.0295 14.8814 48.6857 15.1839C49.342 15.4822 49.8619 15.8913 50.2454 16.4112C50.6332 16.9311 50.8377 17.5213 50.859 18.1818H49.3249ZM53.6444 28V14.9091H55.2296V26.5938H61.3148V28H53.6444ZM65.1325 28H63.4705L68.2774 14.9091H69.9137L74.7205 28H73.0586L69.1467 16.9801H69.0444L65.1325 28ZM65.7461 22.8864H72.445V24.2926H65.7461V22.8864ZM86.6785 19H85.0932C84.9995 18.544 84.8354 18.1435 84.601 17.7983C84.3709 17.4531 84.0897 17.1634 83.7573 16.929C83.4292 16.6903 83.0648 16.5114 82.6643 16.392C82.2637 16.2727 81.8461 16.2131 81.4114 16.2131C80.6188 16.2131 79.9008 16.4134 79.2573 16.8139C78.6181 17.2145 78.1089 17.8047 77.7296 18.5845C77.3546 19.3643 77.1671 20.321 77.1671 21.4545C77.1671 22.5881 77.3546 23.5447 77.7296 24.3246C78.1089 25.1044 78.6181 25.6946 79.2573 26.0952C79.9008 26.4957 80.6188 26.696 81.4114 26.696C81.8461 26.696 82.2637 26.6364 82.6643 26.517C83.0648 26.3977 83.4292 26.2209 83.7573 25.9865C84.0897 25.7479 84.3709 25.456 84.601 25.1108C84.8354 24.7614 84.9995 24.3608 85.0932 23.9091H86.6785C86.5591 24.5781 86.3418 25.1768 86.0265 25.7053C85.7111 26.2337 85.3191 26.6832 84.8503 27.054C84.3816 27.4205 83.8553 27.6996 83.2715 27.8913C82.692 28.0831 82.0719 28.179 81.4114 28.179C80.2949 28.179 79.302 27.9062 78.4327 27.3608C77.5634 26.8153 76.8795 26.0398 76.3809 25.0341C75.8823 24.0284 75.633 22.8352 75.633 21.4545C75.633 20.0739 75.8823 18.8807 76.3809 17.875C76.8795 16.8693 77.5634 16.0938 78.4327 15.5483C79.302 15.0028 80.2949 14.7301 81.4114 14.7301C82.0719 14.7301 82.692 14.826 83.2715 15.0178C83.8553 15.2095 84.3816 15.4908 84.8503 15.8615C85.3191 16.228 85.7111 16.6754 86.0265 17.2038C86.3418 17.728 86.5591 18.3267 86.6785 19ZM89.2401 28V14.9091H90.8253V21.4034H90.9787L96.8594 14.9091H98.9304L93.4333 20.8153L98.9304 28H97.0128L92.4617 21.9148L90.8253 23.7557V28H89.2401Z" fill="#1E1E24"/>
</svg>
