<svg width="107" height="42" viewBox="0 0 107 42" fill="none" xmlns="http://www.w3.org/2000/svg">
<rect x="0.682892" width="106" height="42" rx="5" fill="#CB4251"/>
<path d="M24.5176 26.7947C22.4548 27.9812 19.6183 28.1032 16.7646 26.8854C14.4541 25.9066 12.5369 24.1931 11.3079 22.2354C11.8978 22.7249 12.586 23.1166 13.3234 23.459C16.2705 24.8344 19.2169 24.7402 21.2904 23.4625C18.3408 21.2109 15.8306 18.2704 13.9626 15.8722C13.5691 15.4805 13.2742 14.991 12.9792 14.5505C15.2405 16.6063 18.8293 19.2004 20.1072 19.935C17.4038 17.0958 14.9948 13.5717 15.093 13.6694C19.37 17.9769 23.3521 20.4244 23.3521 20.4244C23.4838 20.4984 23.5855 20.5599 23.6673 20.615C23.7535 20.3967 23.829 20.17 23.8927 19.935C24.5809 17.4386 23.7946 14.5994 22.0738 12.25C26.0555 14.6484 28.4155 19.1516 27.432 22.9208C27.4063 23.0224 27.3785 23.1228 27.3484 23.2214C29.3145 25.6689 28.8084 28.3053 28.5626 27.8158C27.496 25.7376 25.5215 26.3731 24.5176 26.7947Z" fill="#1E1E24"/>
<path d="M49.4272 18.1818C49.3505 17.5341 49.0394 17.0312 48.494 16.6733C47.9485 16.3153 47.2795 16.1364 46.4869 16.1364C45.9073 16.1364 45.4002 16.2301 44.9656 16.4176C44.5352 16.6051 44.1985 16.8629 43.9556 17.1911C43.717 17.5192 43.5977 17.892 43.5977 18.3097C43.5977 18.6591 43.6808 18.9595 43.847 19.2109C44.0174 19.4581 44.2347 19.6648 44.4989 19.831C44.7631 19.9929 45.0401 20.1271 45.3299 20.2337C45.6197 20.3359 45.886 20.419 46.1289 20.483L47.4585 20.8409C47.7994 20.9304 48.1786 21.054 48.5962 21.2116C49.0181 21.3693 49.4208 21.5845 49.8043 21.8572C50.1921 22.1257 50.5117 22.4709 50.7631 22.8928C51.0146 23.3146 51.1403 23.8324 51.1403 24.446C51.1403 25.1534 50.9549 25.7926 50.5842 26.3636C50.2177 26.9347 49.6808 27.3885 48.9734 27.7251C48.2703 28.0618 47.4158 28.2301 46.4102 28.2301C45.4727 28.2301 44.6609 28.0788 43.9748 27.7763C43.293 27.4737 42.756 27.0518 42.364 26.5107C41.9762 25.9695 41.7568 25.3409 41.7056 24.625H43.342C43.3846 25.1193 43.5508 25.5284 43.8406 25.8523C44.1346 26.1719 44.5053 26.4105 44.9528 26.5682C45.4045 26.7216 45.8903 26.7983 46.4102 26.7983C47.0153 26.7983 47.5586 26.7003 48.0401 26.5043C48.5217 26.304 48.9031 26.027 49.1843 25.6733C49.4656 25.3153 49.6062 24.8977 49.6062 24.4205C49.6062 23.9858 49.4847 23.6321 49.2418 23.3594C48.9989 23.0866 48.6793 22.8651 48.283 22.6946C47.8867 22.5241 47.4585 22.375 46.9982 22.2472L45.3874 21.7869C44.3647 21.4929 43.5551 21.0732 42.9585 20.5277C42.3619 19.9822 42.0636 19.2685 42.0636 18.3864C42.0636 17.6534 42.2617 17.0142 42.658 16.4688C43.0586 15.919 43.5955 15.4929 44.2688 15.1903C44.9464 14.8835 45.7028 14.7301 46.538 14.7301C47.3818 14.7301 48.1318 14.8814 48.788 15.1839C49.4443 15.4822 49.9641 15.8913 50.3477 16.4112C50.7354 16.9311 50.94 17.5213 50.9613 18.1818H49.4272ZM56.1245 28L52.5449 14.9091H54.1557L56.8915 25.571H57.0194L59.8063 14.9091H61.5961L64.383 25.571H64.5108L67.2466 14.9091H68.8574L65.2779 28H63.6415L60.7523 17.5682H60.65L57.7608 28H56.1245ZM72.4178 14.9091V28H70.8326V14.9091H72.4178ZM75.5962 28V14.9091H83.4457V16.3153H77.1815V20.7386H82.8576V22.1449H77.1815V28H75.5962ZM85.4448 16.3153V14.9091H95.263V16.3153H91.1465V28H89.5613V16.3153H85.4448Z" fill="#1E1E24"/>
</svg>
