<svg width="119" height="42" viewBox="0 0 119 42" fill="none" xmlns="http://www.w3.org/2000/svg">
<rect x="0.580627" width="118.013" height="42" rx="5" fill="#EDDDCC"/>
<path fill-rule="evenodd" clip-rule="evenodd" d="M28.2178 11H12.9596C11.647 11 10.5824 12.0631 10.5806 13.3758V28.6115C10.5781 29.244 10.8276 29.8516 11.274 30.2999C11.7205 30.7481 12.327 31 12.9596 31H28.2178C28.8498 30.9992 29.4555 30.7468 29.9013 30.2987C30.347 29.8506 30.5961 29.2435 30.5935 28.6115V13.3758C30.5918 12.0644 29.5291 11.0018 28.2178 11ZM19.2117 25.4053C19.2108 25.6168 19.1258 25.8191 18.9753 25.9677C18.825 26.1164 18.6216 26.1989 18.4101 26.1973H15.0757C14.6396 26.1954 14.287 25.8414 14.287 25.4053V15.4822C14.287 15.0461 14.6396 14.6921 15.0757 14.6903H18.4101C18.8467 14.6921 19.2003 15.0456 19.202 15.4822L19.2117 25.4053ZM26.9065 20.8493C26.9065 21.061 26.8217 21.2639 26.6711 21.4127C26.5205 21.5616 26.3166 21.6438 26.1049 21.6413H22.7705C22.3339 21.6395 21.9804 21.286 21.9786 20.8493V15.4822C21.9804 15.0456 22.3339 14.6921 22.7705 14.6903H26.1049C26.541 14.6921 26.8936 15.0461 26.8936 15.4822L26.9065 20.8493Z" fill="#1E1E24"/>
<path d="M41.4629 16.3153V14.9091H51.2811V16.3153H47.1646V28H45.5793V16.3153H41.4629ZM53.7276 28V14.9091H58.1509C59.1736 14.9091 60.0131 15.0838 60.6694 15.4332C61.3256 15.7784 61.8114 16.2536 62.1268 16.8587C62.4421 17.4638 62.5998 18.152 62.5998 18.9233C62.5998 19.6946 62.4421 20.3786 62.1268 20.9751C61.8114 21.5717 61.3277 22.0405 60.6758 22.3814C60.0238 22.718 59.1907 22.8864 58.1765 22.8864H54.5969V21.4545H58.1253C58.8242 21.4545 59.3867 21.3523 59.8128 21.1477C60.2432 20.9432 60.5543 20.6534 60.7461 20.2784C60.9421 19.8991 61.0401 19.4474 61.0401 18.9233C61.0401 18.3991 60.9421 17.9411 60.7461 17.549C60.5501 17.157 60.2368 16.8544 59.8064 16.6413C59.376 16.424 58.8072 16.3153 58.0998 16.3153H55.3128V28H53.7276ZM59.8895 22.1193L63.1111 28H61.2702L58.0998 22.1193H59.8895ZM65.2413 28V14.9091H73.1418V16.3153H66.8265V20.7386H72.7328V22.1449H66.8265V26.5938H73.2441V28H65.2413ZM75.9991 28V14.9091H77.5843V26.5938H83.6695V28H75.9991ZM86.1241 28V14.9091H87.7093V26.5938H93.7945V28H86.1241ZM106.785 21.4545C106.785 22.8352 106.535 24.0284 106.037 25.0341C105.538 26.0398 104.854 26.8153 103.985 27.3608C103.116 27.9062 102.123 28.179 101.006 28.179C99.8899 28.179 98.897 27.9062 98.0277 27.3608C97.1584 26.8153 96.4744 26.0398 95.9758 25.0341C95.4773 24.0284 95.228 22.8352 95.228 21.4545C95.228 20.0739 95.4773 18.8807 95.9758 17.875C96.4744 16.8693 97.1584 16.0938 98.0277 15.5483C98.897 15.0028 99.8899 14.7301 101.006 14.7301C102.123 14.7301 103.116 15.0028 103.985 15.5483C104.854 16.0938 105.538 16.8693 106.037 17.875C106.535 18.8807 106.785 20.0739 106.785 21.4545ZM105.251 21.4545C105.251 20.321 105.061 19.3643 104.682 18.5845C104.307 17.8047 103.798 17.2145 103.154 16.8139C102.515 16.4134 101.799 16.2131 101.006 16.2131C100.214 16.2131 99.4957 16.4134 98.8523 16.8139C98.213 17.2145 97.7038 17.8047 97.3246 18.5845C96.9496 19.3643 96.7621 20.321 96.7621 21.4545C96.7621 22.5881 96.9496 23.5447 97.3246 24.3246C97.7038 25.1044 98.213 25.6946 98.8523 26.0952C99.4957 26.4957 100.214 26.696 101.006 26.696C101.799 26.696 102.515 26.4957 103.154 26.0952C103.798 25.6946 104.307 25.1044 104.682 24.3246C105.061 23.5447 105.251 22.5881 105.251 21.4545Z" fill="#1E1E24"/>
</svg>
