<svg width="24" height="20" viewBox="0 0 24 20" fill="none" xmlns="http://www.w3.org/2000/svg">
<path fill-rule="evenodd" clip-rule="evenodd" d="M0.918695 2.24594C0.382568 3.14902 0.382568 4.33546 0.382568 6.70833V13.2917C0.382568 15.6645 0.382568 16.851 0.918695 17.7541C1.37048 18.5151 2.07963 19.1356 2.94936 19.5309C3.98144 20 5.33737 20 8.04924 20H15.573C18.2849 20 19.6408 20 20.6729 19.5309C21.5427 19.1356 22.2518 18.5151 22.7036 17.7541C23.2397 16.851 23.2397 15.6645 23.2397 13.2917V6.70833C23.2397 4.33546 23.2397 3.14902 22.7036 2.24594C22.2518 1.48493 21.5427 0.864425 20.6729 0.469111C19.6408 0 18.2849 0 15.573 0H8.04924C5.33737 0 3.98144 0 2.94936 0.469111C2.07963 0.864425 1.37048 1.48493 0.918695 2.24594ZM18.1628 7.93813C18.1628 7.81321 18.1609 7.68834 18.1554 7.56342C18.7466 7.16028 19.2585 6.655 19.6652 6.08152C19.1231 6.30864 18.5387 6.46183 17.9259 6.52997C18.5522 6.17793 19.0315 5.61591 19.2585 4.9459C18.6728 5.27523 18.0256 5.51369 17.3347 5.63861C16.7828 5.08216 15.9965 4.73574 15.126 4.73574C13.4538 4.73574 12.0984 6.01902 12.0984 7.60321C12.0984 7.82465 12.1249 8.04604 12.1766 8.25613C9.66092 8.13689 7.42946 6.99558 5.93692 5.25808C5.67483 5.68394 5.52595 6.17796 5.52595 6.70034C5.52595 7.69401 6.06059 8.57409 6.87392 9.09079C6.37743 9.07376 5.90986 8.94323 5.50135 8.73314V8.76724C5.50135 10.1584 6.54538 11.3167 7.93149 11.5779C7.67556 11.646 7.40855 11.68 7.13354 11.68C6.93852 11.68 6.74781 11.663 6.56262 11.6289C6.94837 12.7645 8.06685 13.5992 9.39144 13.6162C8.3554 14.3884 7.04927 14.8485 5.63116 14.8485C5.38692 14.8485 5.14636 14.8314 4.9095 14.8087C6.24946 15.6206 7.83983 16.0976 9.55017 16.0976C15.118 16.0976 18.1628 11.7254 18.1628 7.93813Z" fill="#1E1E24"/>
</svg>
